<svg width="121" height="170" viewBox="0 0 121 170" fill="none" xmlns="http://www.w3.org/2000/svg">
<g clip-path="url(#clip0_41_625)">
<path d="M53.8748 75.6047C54.1695 76.1553 54.7371 76.466 55.321 76.466C55.5829 76.466 55.8449 76.4006 56.0905 76.2698C56.1669 76.2261 60.369 74.0129 65.357 72.8899C65.4116 73.3151 65.4935 73.7839 65.6081 74.3127C65.87 75.4793 66.2684 76.4224 66.836 77.1965C68.0038 78.7937 69.7775 79.3552 71.4856 79.3552C72.397 79.3552 73.292 79.1917 74.0669 78.9409C76.4736 78.1559 77.2649 76.1335 77.5051 74.2419C77.7124 74.3945 77.9198 74.558 78.1163 74.7325C78.7875 75.3376 79.8244 75.2776 80.4302 74.6071C81.0359 73.9366 80.9759 72.9008 80.3047 72.2957C71.5074 64.424 55.2391 73.0153 54.5515 73.386C53.7547 73.8112 53.4546 74.8033 53.8857 75.5992L53.8748 75.6047Z" fill="#0000FF"/>
<path d="M55.572 59.7303C54.7207 60.0355 54.2786 60.9677 54.5788 61.8181C54.8844 62.6685 55.8176 63.1155 56.669 62.8103C56.8272 62.7558 72.6153 57.2554 78.6729 64.582C78.9949 64.9744 79.4642 65.1761 79.9336 65.1761C80.2992 65.1761 80.6703 65.0562 80.9759 64.8C81.6745 64.2276 81.7727 63.1919 81.1942 62.4995C73.6795 53.4067 56.3033 59.4686 55.5666 59.7303H55.572Z" fill="#0000FF"/>
<path d="M92.9002 65.6068C93.1458 65.6068 93.3913 65.5523 93.626 65.4378C98.0792 63.2355 104.339 61.213 108.879 64.0859C109.643 64.571 110.653 64.3421 111.139 63.5789C111.624 62.8157 111.395 61.8072 110.631 61.322C106.02 58.4056 99.6345 58.8144 92.1744 62.5104C91.3667 62.9138 91.0338 63.8951 91.4322 64.7019C91.7159 65.2797 92.2999 65.6122 92.9002 65.6122V65.6068Z" fill="#0000FF"/>
<path d="M90.0569 73.8492C90.3189 74.4707 90.9301 74.8468 91.5631 74.8468C91.776 74.8468 91.9943 74.8032 92.2016 74.716C93.2713 74.2635 94.5756 73.7675 95.9999 73.3423C96.0818 73.7947 96.2019 74.3017 96.371 74.8795C96.7039 76.0243 97.1624 76.9401 97.779 77.6815C98.9251 79.0553 100.519 79.5513 102.074 79.5513C103.155 79.5513 104.219 79.3115 105.108 78.9571C107.597 77.965 108.192 75.7027 108.252 73.7184C108.535 73.8928 108.814 74.0782 109.081 74.2853C109.791 74.8414 110.822 74.7214 111.379 74.0073C111.935 73.2932 111.815 72.2683 111.1 71.7123C105.25 67.1223 96.9004 69.1774 90.9246 71.7069C90.0896 72.0612 89.7022 73.0206 90.0569 73.8492Z" fill="#0000FF"/>
<path d="M86.2695 100.294C85.058 101.324 83.137 101.226 80.8558 100.021C73.8377 95.6219 71.1527 96.9248 70.3232 97.6935C69.6574 98.304 69.6192 99.3398 70.2304 100.005C70.7925 100.61 71.7039 100.697 72.3642 100.239C72.6098 100.168 74.3889 99.8195 79.1641 102.823C79.1968 102.845 79.2296 102.861 79.2678 102.883C80.9977 103.804 82.6786 104.262 84.2176 104.262C85.7565 104.262 87.2409 103.766 88.3979 102.78C90.9301 100.626 91.6614 96.5923 90.2643 92.5092C87.9613 85.8041 87.7539 77.1364 87.7484 77.0492C87.7266 76.1607 87.0008 75.4465 86.1112 75.4465C86.1003 75.4465 86.0894 75.4465 86.0785 75.4465C85.1726 75.4683 84.4577 76.2152 84.474 77.1146C84.4795 77.4908 84.6923 86.3656 87.1645 93.5613C88.0977 96.2761 87.7321 99.0399 86.275 100.283L86.2695 100.294Z" fill="#0000FF"/>
<path d="M29.0822 80.3528C29.6061 81.0887 30.6266 81.2686 31.3633 80.7453C32.1001 80.2219 32.2802 79.2025 31.7562 78.4666C29.2732 74.9559 22.8499 72.3884 17.2452 74.16C8.83545 76.8257 7.58026 87.107 7.58026 92.9999C7.58026 100.604 9.78502 106.383 14.1291 110.182C18.8824 114.336 24.9237 114.98 28.2254 114.98C29.6115 114.98 30.5174 114.865 30.632 114.849C31.527 114.729 32.1546 113.906 32.0346 113.012C31.9145 112.118 31.1014 111.485 30.1955 111.605C30.1136 111.616 21.873 112.625 16.2574 107.702C12.6665 104.551 10.8437 99.6069 10.8437 92.9999C10.8437 84.245 13.3978 78.81 18.2275 77.2782C22.5497 75.9099 27.5377 78.1831 29.0712 80.3528H29.0822Z" fill="#0000FF"/>
<path d="M25.6767 88.9932C26.5444 89.244 27.4558 88.7479 27.7069 87.8811C27.9579 87.0144 27.4613 86.104 26.5936 85.8532C23.2264 84.8774 20.4814 85.1882 18.4403 86.78C14.9749 89.4838 15.1441 94.8316 15.155 95.0551C15.1877 95.9382 15.9136 96.6251 16.7922 96.6251C16.814 96.6251 16.8304 96.6251 16.8522 96.6251C17.7527 96.5924 18.4567 95.8346 18.4294 94.9352C18.4021 94.0957 18.5767 92.035 19.4827 90.5087C20.9016 92.0896 21.5619 93.5887 21.4255 94.9733C21.2072 97.1975 19.0079 98.6421 18.9697 98.6639C18.2111 99.1436 17.9819 100.152 18.4567 100.915C18.7677 101.411 19.3026 101.684 19.8483 101.684C20.143 101.684 20.4431 101.602 20.716 101.433C20.8634 101.34 24.2851 99.16 24.678 95.3331C24.9072 93.0926 24.0723 90.8521 22.195 88.6498C23.1609 88.4971 24.3233 88.6062 25.6767 89.0041V88.9932Z" fill="#0000FF"/>
<path d="M82.5094 117.251C63.758 119.486 57.1983 105.863 56.9254 105.28C56.5489 104.462 55.5775 104.102 54.7589 104.479C53.9348 104.855 53.5746 105.825 53.9512 106.648C54.0276 106.817 55.9158 110.862 60.4345 114.591C64.0145 117.54 69.903 120.767 78.5147 120.767C79.9008 120.767 81.3634 120.685 82.8914 120.5C83.7919 120.391 84.4304 119.579 84.3213 118.685C84.2121 117.791 83.399 117.147 82.504 117.256L82.5094 117.251Z" fill="#0000FF"/>
<path d="M56.7017 99.1365C57.6022 99.0274 58.2407 98.2152 58.1315 97.3212C58.0224 96.4271 57.2093 95.7839 56.3142 95.8929C48.1446 96.8687 45.3614 103.492 45.0339 106.861C44.9466 107.76 45.607 108.562 46.502 108.649C46.5565 108.649 46.6111 108.654 46.6602 108.654C47.4952 108.654 48.2047 108.022 48.2865 107.177C48.3138 106.888 49.0669 100.052 56.6963 99.1419L56.7017 99.1365Z" fill="#0000FF"/>
<path d="M90.3461 147.764C90.2916 146.865 89.5166 146.178 88.6107 146.232C87.7102 146.287 87.0226 147.066 87.0772 147.966C87.1154 148.609 88.1195 163.786 93.1949 169.455C93.5169 169.815 93.9643 170 94.4173 170C94.8048 170 95.1977 169.864 95.5088 169.58C96.18 168.975 96.2401 167.945 95.6343 167.269C92.0488 163.268 90.5972 151.831 90.3461 147.759V147.764Z" fill="#0000FF"/>
<path d="M25.8951 118.856C25.0001 118.986 24.3834 119.82 24.5144 120.714C24.5635 121.031 29.0822 152.245 20.0557 167.105C19.5864 167.879 19.832 168.882 20.6069 169.351C20.8743 169.509 21.1636 169.586 21.4528 169.586C22.004 169.586 22.5443 169.308 22.8553 168.801C26.9265 162.096 28.9839 151.863 28.9676 138.382C28.9566 128.45 27.7997 120.562 27.7506 120.229C27.6196 119.335 26.7846 118.725 25.8896 118.85L25.8951 118.856Z" fill="#0000FF"/>
<path d="M120.984 49.82C120.618 29.7645 116.187 20.9442 112.536 17.0792C106.92 11.1373 95.2305 3.81067 79.246 1.0632C66.6614 -1.10099 47.0532 -1.02467 25.1038 11.6115C8.63354 21.0914 -0.0436168 36.5132 4.18691e-05 56.2144C0.0327859 70.9548 4.85707 82.7133 5.05899 83.2094C5.30457 83.8036 5.8885 84.1907 6.52701 84.1907C6.57613 84.1907 6.61979 84.1907 6.6689 84.1852C7.36198 84.1252 7.935 83.6237 8.08235 82.9423C9.26659 77.5727 11.6023 74.1493 15.0186 72.7756C22.2005 69.8918 32.1874 76.477 32.2856 76.5424C32.7822 76.875 33.4208 76.9022 33.9447 76.6133C44.1226 70.9657 44.2099 55.9527 43.8661 50.3815C82.3567 56.3234 105.605 49.9944 111.27 48.141C116.541 58.6566 114.757 77.6163 114.74 77.8126C114.664 78.5867 115.161 79.3008 115.908 79.5025C116.661 79.7042 117.447 79.3335 117.769 78.6303C119.99 73.7786 121.164 59.8995 120.978 49.82H120.984Z" fill="#0000FF"/>
<path d="M115.412 80.9741C114.506 80.8705 113.709 81.5301 113.616 82.4296C113.589 82.6967 110.702 109.534 102.03 124.917C93.4896 140.072 72.6917 149.606 52.6633 139.331C51.861 138.916 50.8733 139.233 50.4585 140.039C50.0438 140.846 50.3603 141.827 51.168 142.242C57.4657 145.474 63.829 146.903 69.9303 146.903C84.9216 146.903 98.2757 138.257 104.884 126.525C108.677 119.799 111.848 110.384 114.309 98.5438C116.132 89.7671 116.869 82.8385 116.874 82.773C116.967 81.8736 116.318 81.0722 115.417 80.9795L115.412 80.9741Z" fill="#0000FF"/>
</g>
<defs>
<clipPath id="clip0_41_625">
<rect width="121" height="170" fill="white"/>
</clipPath>
</defs>
</svg>
