<svg width="113" height="167" viewBox="0 0 113 167" fill="none" xmlns="http://www.w3.org/2000/svg">
<g clip-path="url(#clip0_41_15)">
<path d="M27.444 78.537C27.92 79.2094 28.847 79.3737 29.5163 78.8956C30.1856 78.4175 30.3491 77.4861 29.8732 76.8137C27.6176 73.6063 21.7826 71.2555 16.6962 72.8792C9.05665 75.3146 7.91643 84.7078 7.91643 90.0917C7.91643 97.0394 9.91926 102.319 13.8654 105.79C18.1834 109.585 23.6714 110.173 26.6707 110.173C27.9299 110.173 28.7528 110.068 28.8569 110.053C29.67 109.944 30.2401 109.192 30.131 108.375C30.022 107.558 29.2734 106.98 28.4603 107.095C28.386 107.105 20.9497 108.046 15.8237 103.544C12.5517 100.665 10.8909 96.1429 10.8909 90.0966C10.8909 82.098 13.211 77.1325 17.5984 75.733C21.5248 74.4829 26.0559 76.5597 27.449 78.542L27.444 78.537Z" fill="#0000FF"/>
<path d="M24.3456 86.4311C25.1339 86.6602 25.9618 86.207 26.1898 85.4151C26.4178 84.6232 25.9667 83.7914 25.1785 83.5623C22.1197 82.6658 19.6261 82.9547 17.772 84.409C14.6239 86.8793 14.7776 91.7652 14.7875 91.9694C14.8173 92.7762 15.4766 93.4037 16.2748 93.4037C16.2946 93.4037 16.3095 93.4037 16.3293 93.4037C17.1473 93.3738 17.7868 92.6816 17.762 91.8598C17.7373 91.0928 17.8959 89.2102 18.7188 87.8156C20.0078 89.26 20.6076 90.6296 20.4837 91.8946C20.2854 93.9167 18.3024 95.2316 18.2578 95.2664C17.5687 95.7047 17.3555 96.6261 17.7918 97.3234C18.0744 97.7766 18.5602 98.0256 19.0559 98.0256C19.3237 98.0256 19.5963 97.9509 19.8442 97.7965C19.978 97.7118 23.0864 95.7196 23.4433 92.2234C23.6516 90.1764 22.8931 88.1294 21.1877 86.1173C22.0652 85.9779 23.1211 86.0775 24.3506 86.441L24.3456 86.4311Z" fill="#0000FF"/>
<path d="M53.7288 40.0828C64.7939 33.7925 79.4334 39.1963 79.5822 39.2511C79.9391 39.3855 80.3357 39.3806 80.6877 39.2262C86.9093 36.5616 92.0404 36.5168 95.9469 39.0967C105.118 45.1629 105.277 63.6703 105.277 63.8546C105.277 64.5767 105.797 65.1943 106.506 65.3238C107.215 65.4533 107.914 65.0449 108.162 64.3676C116.516 41.5471 112.465 15.0062 99.1346 5.19962C87.0829 -3.67059 73.7025 2.35577 70.3909 4.09395C67.6197 2.70938 60.3768 0.0498139 50.9526 9.28412e-06C41.8902 -0.0497954 28.2472 2.38565 14.9412 14.269C4.54533 23.5526 -0.402264 38.0906 0.633855 56.2992C1.41218 69.9158 5.17493 80.6387 5.33853 81.092C5.5517 81.6896 6.1119 82.0831 6.73655 82.0831C6.76133 82.0831 6.78612 82.0831 6.81091 82.0831C7.4653 82.0482 8.02054 81.59 8.17918 80.9525C9.34915 76.236 11.6048 73.1083 14.8867 71.654C21.8322 68.576 31.3506 73.6611 31.4448 73.7109C32.1339 74.0844 32.9965 73.8603 33.4129 73.1929L41.687 59.9349C41.7861 59.7756 41.8555 59.5963 41.8902 59.412C43.5956 50.0836 47.5765 43.5791 53.7288 40.0828Z" fill="#0000FF"/>
<path d="M50.1197 74.199C50.3874 74.702 50.903 74.9859 51.4334 74.9859C51.6714 74.9859 51.9094 74.9311 52.1324 74.8066C52.2018 74.7668 56.0191 72.7447 60.5503 71.7187C60.5999 72.1072 60.6742 72.5355 60.7783 73.0186C61.0163 74.0844 61.3782 74.946 61.8938 75.6533C62.9547 77.1125 64.5659 77.6255 66.1176 77.6255C66.9455 77.6255 67.7585 77.4761 68.4625 77.247C70.6487 76.5298 71.3676 74.6821 71.5857 72.9539C71.7741 73.0933 71.9625 73.2427 72.1409 73.4021C72.7507 73.9549 73.6926 73.9001 74.2429 73.2876C74.7932 72.675 74.7387 71.7287 74.1289 71.1758C66.1374 63.984 51.3591 71.8333 50.7344 72.1719C50.0106 72.5604 49.738 73.4669 50.1296 74.194L50.1197 74.199Z" fill="#0000FF"/>
<path d="M52.6629 62.5099C52.8067 62.4601 67.1487 57.4348 72.6516 64.1285C72.944 64.4871 73.3704 64.6714 73.7967 64.6714C74.1289 64.6714 74.466 64.5568 74.7436 64.3277C75.3782 63.7998 75.4674 62.8585 74.9419 62.226C68.1154 53.9186 52.3307 59.4568 51.6615 59.6959C50.8881 59.9748 50.4865 60.8265 50.7592 61.6034C51.0368 62.3804 51.8846 62.7838 52.6579 62.5099H52.6629Z" fill="#0000FF"/>
<path d="M85.5708 65.0697C85.7939 65.0697 86.017 65.0199 86.2302 64.9153C90.2755 62.9032 95.9618 61.0555 100.086 63.6802C100.78 64.1234 101.698 63.9142 102.139 63.217C102.58 62.5197 102.372 61.5983 101.678 61.1551C97.4887 58.4905 91.6933 58.8641 84.9115 62.2408C84.1778 62.6094 83.8754 63.5059 84.2373 64.243C84.495 64.7709 85.0255 65.0747 85.5708 65.0747V65.0697Z" fill="#0000FF"/>
<path d="M88.4313 72.2367C88.5404 72.7796 88.6792 73.3772 88.7238 73.5366C89.0262 74.5875 89.4476 75.4242 90.0028 76.0916C91.0439 77.3467 92.4915 77.7999 93.9044 77.7999C94.886 77.7999 95.8527 77.5808 96.6608 77.257C98.9214 76.3506 99.4618 74.2837 99.5163 72.4708C99.7741 72.6302 100.027 72.7995 100.265 72.9888C100.909 73.4968 101.846 73.3872 102.352 72.7348C102.858 72.0873 102.749 71.146 102.099 70.638C96.7847 66.4444 89.1997 68.3221 83.7712 70.633C83.0127 70.9567 82.6608 71.8333 82.983 72.5903C83.221 73.1581 83.7712 73.5018 84.3513 73.5018C84.5446 73.5018 84.7429 73.4619 84.9313 73.3822C85.9079 72.9639 87.1027 72.5106 88.4016 72.1222C88.4065 72.157 88.4164 72.1969 88.4214 72.2317L88.4313 72.2367Z" fill="#0000FF"/>
<path d="M85.2684 89.5437C83.1664 83.3879 82.6707 75.5486 82.6657 75.4689C82.6161 74.6472 81.9072 74.0196 81.0892 74.0694C80.2712 74.1192 79.6466 74.8264 79.6962 75.6532C79.716 75.9919 80.2217 83.9706 82.4525 90.5149C83.2953 92.9952 82.9186 95.4655 81.5106 96.6758C80.3307 97.6868 78.5163 97.632 76.4093 96.5114C69.1416 91.9493 65.5574 97.373 65.5227 97.4278C65.0814 98.1151 65.2797 99.0216 65.9589 99.4698C66.6381 99.923 67.5552 99.7338 68.0163 99.0564C68.2295 98.7476 70.2075 96.1179 74.8725 99.0664C74.9023 99.0863 74.932 99.1012 74.9667 99.1212C76.5283 99.9579 78.0552 100.376 79.4632 100.376C80.9653 100.376 82.3286 99.8981 83.444 98.9468C85.7741 96.9497 86.5127 93.1745 85.2734 89.5437H85.2684Z" fill="#0000FF"/>
<path d="M59.8761 112.553C63.1282 115.248 68.4773 118.196 76.3003 118.196C77.5595 118.196 78.8881 118.122 80.2762 117.952C81.0942 117.853 81.6742 117.111 81.5751 116.294C81.4759 115.472 80.7373 114.894 79.9242 114.989C62.8902 117.036 56.9313 104.585 56.6884 104.052C56.3463 103.305 55.4639 102.976 54.7203 103.32C53.9717 103.663 53.6445 104.55 53.9865 105.302C54.0559 105.456 55.7712 109.152 59.8761 112.558V112.553Z" fill="#0000FF"/>
<path d="M45.886 105.491C45.8067 106.313 46.4065 107.045 47.2195 107.125C47.2691 107.125 47.3187 107.13 47.3633 107.13C48.1218 107.13 48.7663 106.552 48.8407 105.78C48.8654 105.516 49.5496 99.2706 56.4802 98.4388C57.2982 98.3392 57.8782 97.5971 57.779 96.7803C57.6799 95.9586 56.9412 95.3758 56.1282 95.4754C48.7068 96.3669 46.1834 102.418 45.881 105.496L45.886 105.491Z" fill="#0000FF"/>
<path d="M106.303 66.9624C105.485 67.0271 104.875 67.7493 104.94 68.5711C105.654 77.6106 104.96 85.2855 102.813 92.0341C100.726 98.5983 98.5496 104.271 95.9171 110.761C95.6742 111.358 95.4313 111.966 95.1834 112.583C92.1346 120.164 88.6841 128.76 82.6062 134.029C77.7479 138.243 70.614 138.811 65.5623 137.939C56.8718 136.435 50.0007 133.203 45.7026 128.586C45.1424 127.983 44.2004 127.953 43.6006 128.516C43.0007 129.079 42.971 130.025 43.5312 130.628C48.2755 135.723 55.7217 139.269 65.0567 140.882C66.6183 141.151 68.1898 141.286 69.7415 141.286C75.4327 141.286 80.8414 139.513 84.5496 136.295C91.1728 130.553 94.772 121.603 97.9448 113.709C98.1926 113.096 98.4356 112.489 98.6735 111.896C101.331 105.337 103.537 99.6044 105.649 92.9505C107.909 85.8284 108.648 77.78 107.904 68.347C107.84 67.5252 107.131 66.9076 106.303 66.9773V66.9624Z" fill="#0000FF"/>
<path d="M24.42 112.165C23.597 112.165 22.9327 112.832 22.9327 113.659C22.9327 113.963 22.8038 144.334 12.1948 164.819C11.818 165.551 12.1006 166.452 12.8293 166.836C13.0474 166.95 13.2854 167.005 13.5135 167.005C14.0489 167.005 14.5694 166.711 14.8321 166.198C25.7783 145.051 25.9023 114.929 25.9023 113.659C25.9023 112.832 25.238 112.165 24.415 112.165H24.42Z" fill="#0000FF"/>
<path d="M78.9972 144.349C78.9476 143.527 78.2436 142.895 77.4207 142.949C76.6027 142.999 75.9781 143.711 76.0276 144.533C76.0623 145.121 76.9745 158.986 81.585 164.166C81.8775 164.495 82.284 164.664 82.6955 164.664C83.0475 164.664 83.4044 164.54 83.687 164.281C84.2968 163.728 84.3513 162.787 83.801 162.169C80.539 158.513 79.2252 148.064 78.9922 144.344L78.9972 144.349Z" fill="#0000FF"/>
</g>
<defs>
<clipPath id="clip0_41_15">
<rect width="112" height="167" fill="white" transform="translate(0.5)"/>
</clipPath>
</defs>
</svg>
