<svg width="142" height="127" viewBox="0 0 142 127" fill="none" xmlns="http://www.w3.org/2000/svg">
<g clip-path="url(#clip0_41_766)">
<path d="M53.4206 94.158H18.8498C18.5315 94.158 18.2084 94.1359 17.8901 94.0941H17.7188C17.1729 94.0941 16.6637 93.8112 16.3724 93.3488C16.2083 93.0906 16.1276 92.793 16.1276 92.4954C16.1276 92.2592 16.179 92.0256 16.2842 91.8067L16.3063 91.76L24.4312 74.4006C24.6907 73.8423 25.2489 73.4857 25.8609 73.4832H25.8707C26.4802 73.4832 27.0359 73.8325 27.3003 74.3834L35.298 90.8991H54.2627C55.0951 90.8991 55.7878 91.5435 55.849 92.3773C55.8515 92.4191 55.8539 92.4585 55.8539 92.4978C55.8539 93.2824 55.2836 93.9588 54.5026 94.0768C54.1452 94.1309 53.7805 94.158 53.4206 94.158ZM20.1962 90.9606H31.7924L25.8951 78.7835L20.1962 90.9606ZM34.9112 63.7189C33.0776 63.7189 31.5843 62.2186 31.5843 60.3764C31.5843 58.5342 33.0776 57.0339 34.9112 57.0339C36.7447 57.0339 38.238 58.5342 38.238 60.3764C38.238 62.2186 36.7447 63.7189 34.9112 63.7189ZM34.7667 60.3764C34.7667 60.4576 34.8304 60.5215 34.9112 60.5215C34.992 60.5215 35.0556 60.4576 35.0556 60.3764C35.0556 60.2953 34.9895 60.2313 34.9112 60.2313C34.8328 60.2313 34.7667 60.2977 34.7667 60.3764Z" fill="#0000FF"/>
<path d="M124.068 101.864H18.2818C10.6856 101.864 4.50684 95.6558 4.50684 88.0239V35.0039C4.50684 27.3745 10.6856 21.1666 18.2818 21.1666H48.0717C48.9505 21.1666 49.6629 21.8823 49.6629 22.7653V46.6645C49.6629 47.5475 48.9505 48.2632 48.0717 48.2632H18.8498C16.6637 48.2632 14.8864 50.0488 14.8864 52.2452V86.9786C14.8864 88.8651 16.2206 90.508 18.0566 90.8819C18.0884 90.8892 18.1178 90.8966 18.1496 90.904C18.179 90.9064 18.2108 90.9114 18.2402 90.9138C18.4458 90.9458 18.6441 90.9606 18.8498 90.9606H53.4206C53.6238 90.9606 53.827 90.9458 54.0253 90.9138C54.1673 90.8917 54.3117 90.8622 54.4586 90.8228C56.1771 90.358 57.384 88.7765 57.384 86.9786V85.8497C57.384 84.9667 58.0963 84.251 58.9752 84.251H118.942C123.475 84.251 127.162 80.5469 127.162 75.9944V23.7049C127.162 23.1711 127.429 22.6719 127.87 22.3743C128.313 22.0767 128.873 22.0225 129.363 22.2291C134.514 24.3837 137.84 29.3987 137.84 35.0039V88.0239C137.84 95.6558 131.662 101.864 124.065 101.864H124.068ZM18.2818 24.364C12.4409 24.364 7.68925 29.1379 7.68925 35.0039V88.0239C7.68925 93.8923 12.4409 98.6663 18.2818 98.6663H124.068C129.909 98.6663 134.66 93.8923 134.66 88.0239V35.0039C134.66 31.5581 133.025 28.4025 130.345 26.4275V75.9944C130.345 82.3104 125.228 87.4484 118.942 87.4484H60.5517C60.3534 90.4932 58.2408 93.1151 55.2762 93.9145C55.0192 93.9833 54.7646 94.035 54.5124 94.0743C54.1477 94.1309 53.7854 94.1579 53.4231 94.1579H18.8498C18.5315 94.1579 18.2084 94.1358 17.8901 94.094H17.7163C17.4519 94.094 17.1973 94.0276 16.9721 93.9071C13.8925 93.0659 11.7016 90.2227 11.7016 86.9786V52.2452C11.7016 48.2853 14.906 45.0658 18.8473 45.0658H46.478V24.364H18.2818Z" fill="#0000FF"/>
<path d="M34.9112 63.7189C33.0776 63.7189 31.5844 62.2186 31.5844 60.3764C31.5844 58.5342 33.0776 57.0339 34.9112 57.0339C36.7448 57.0339 38.2381 58.5342 38.2381 60.3764C38.2381 62.2186 36.7448 63.7189 34.9112 63.7189ZM34.9112 60.2313C34.8329 60.2313 34.7668 60.2977 34.7668 60.3764C34.7668 60.4551 34.8304 60.5215 34.9112 60.5215C34.992 60.5215 35.0556 60.4576 35.0556 60.3764C35.0556 60.2953 34.9895 60.2313 34.9112 60.2313Z" fill="#0000FF"/>
<path d="M53.4206 94.158H18.8498C18.5315 94.158 18.2084 94.1358 17.8902 94.094H17.7188C17.1729 94.094 16.6637 93.8112 16.3724 93.3488C16.0811 92.8864 16.0468 92.301 16.2818 91.8067L16.3038 91.7599L24.4288 74.4006C24.6883 73.8423 25.2464 73.4857 25.8584 73.4832H25.8682C26.4778 73.4832 27.0335 73.8325 27.2979 74.3834L35.2955 90.8991H54.2603C55.0926 90.8991 55.7854 91.5435 55.8466 92.3773C55.9078 93.2111 55.3227 93.9538 54.4978 94.0793C54.1403 94.1334 53.7756 94.1604 53.4157 94.1604L53.4206 94.158ZM20.1962 90.9606H31.7924L25.8952 78.7835L20.1962 90.9606Z" fill="#0000FF"/>
<path d="M140.759 32.1164V97.0036C140.759 104.643 134.594 110.836 126.991 110.836H81.0368V125.401H61.3131V110.836H15.359C7.75547 110.836 1.59137 104.643 1.59137 97.0036V32.1164C1.59137 24.4771 7.75547 18.2841 15.359 18.2841H48.0718V22.7653H18.2819C11.5523 22.7653 6.09816 28.2451 6.09816 35.0039V88.0239C6.09816 94.7851 11.5523 100.265 18.2819 100.265H124.068C130.795 100.265 136.252 94.7851 136.252 88.0239V35.0039C136.252 29.9127 133.155 25.547 128.753 23.7048V18.3972C135.525 19.2654 140.759 25.0773 140.759 32.1164Z" fill="#0000FF"/>
<path d="M81.0367 127H61.313C60.4342 127 59.7218 126.284 59.7218 125.401V112.435H15.3589C6.89122 112.435 6.10352e-05 105.511 6.10352e-05 97.0036V32.1164C6.10352e-05 23.6089 6.89122 16.6854 15.3589 16.6854H48.0717C48.9506 16.6854 49.6629 17.4011 49.6629 18.2841V22.7653C49.6629 23.6483 48.9506 24.364 48.0717 24.364H18.2818C12.4409 24.364 7.68927 29.1379 7.68927 35.0039V88.0239C7.68927 93.8923 12.4409 98.6662 18.2818 98.6662H124.068C129.909 98.6662 134.66 93.8923 134.66 88.0239V35.0039C134.66 30.6948 132.102 26.8383 128.141 25.1806C127.549 24.9321 127.162 24.3492 127.162 23.7048V18.3972C127.162 17.9373 127.358 17.5019 127.701 17.1969C128.043 16.8944 128.499 16.7518 128.954 16.8108C136.589 17.7897 142.35 24.3689 142.35 32.1164V97.0036C142.35 105.511 135.458 112.435 126.991 112.435H82.6279V125.401C82.6279 126.284 81.9155 127 81.0367 127ZM62.9042 123.803H79.4455V110.836C79.4455 109.953 80.1578 109.237 81.0367 109.237H126.991C133.706 109.237 139.167 103.75 139.167 97.0036V32.1164C139.167 26.5972 135.483 21.8258 130.345 20.3525V22.6841C134.935 25.0379 137.843 29.7627 137.843 35.0039V88.0239C137.843 95.6558 131.664 101.864 124.068 101.864H18.2818C10.6856 101.864 4.50686 95.6558 4.50686 88.0239V35.0039C4.50686 27.3745 10.6856 21.1666 18.2818 21.1666H46.4805V19.8827H15.3589C8.644 19.8827 3.18248 25.3699 3.18248 32.1164V97.0036C3.18248 103.75 8.644 109.237 15.3589 109.237H61.313C62.1919 109.237 62.9042 109.953 62.9042 110.836V123.803Z" fill="#0000FF"/>
<path d="M118.942 87.4484H58.9751C58.0963 87.4484 57.3839 86.7326 57.3839 85.8497V72.0099C57.3839 71.2819 57.8735 70.6449 58.5761 70.4629C59.2762 70.2809 60.0131 70.5957 60.3656 71.2327C61.3889 73.0823 63.3302 74.2309 65.4305 74.2309H111.392C114.587 74.2309 117.186 71.6189 117.186 68.4092V22.2316C117.186 21.1347 116.88 20.0623 116.298 19.1375C115.23 17.4306 113.397 16.4148 111.392 16.4148H87.7099C86.8311 16.4148 86.1187 15.6991 86.1187 14.8162V11.1736C86.1187 10.2636 85.3819 9.52326 84.4785 9.52326H73.3597C72.4539 9.52326 71.717 10.2636 71.717 11.1736V14.8162C71.717 15.6991 71.0047 16.4148 70.1258 16.4148H65.4305C63.4281 16.4148 61.5945 17.4331 60.5272 19.1375C59.9445 20.0648 59.6385 21.1371 59.6385 22.2341V49.161C59.6385 49.8668 59.1783 50.4866 58.5076 50.6908C57.8368 50.8949 57.1097 50.6318 56.723 50.0439C55.9861 48.9298 54.7523 48.2632 53.4206 48.2632H48.0717C47.1928 48.2632 46.4805 47.5475 46.4805 46.6645V14.6464C46.4805 8.33039 51.5968 3.19244 57.8833 3.19244H118.942C125.228 3.19244 130.345 8.33039 130.345 14.6464V75.9944C130.345 82.3104 125.228 87.4484 118.942 87.4484ZM60.5663 84.251H118.942C123.475 84.251 127.162 80.5469 127.162 75.9944V14.6464C127.162 10.0939 123.475 6.38983 118.942 6.38983H85.2766C87.5581 6.77351 89.3011 8.77064 89.3011 11.1711V13.215H111.392C114.499 13.215 117.338 14.7916 118.991 17.4331C119.892 18.8695 120.369 20.5296 120.369 22.2316V68.4092C120.369 73.3824 116.342 77.4283 111.392 77.4283H65.4305C63.6753 77.4283 61.9935 76.9118 60.5663 75.987V84.251ZM49.6629 45.0658H53.4206C54.4879 45.0658 55.521 45.3044 56.4561 45.7447V22.2316C56.4561 20.5296 56.9335 18.8695 57.8344 17.4331C59.4868 14.794 62.3265 13.215 65.4305 13.215H68.5346V11.1711C68.5346 8.77064 70.2776 6.77351 72.5592 6.38983H57.8833C53.3496 6.38983 49.6629 10.0939 49.6629 14.6464V45.0658Z" fill="#0000FF"/>
<path d="M117.644 18.2841C116.339 16.1984 114.026 14.8137 111.392 14.8137H87.71V21.6168C87.71 22.0226 87.6365 22.4087 87.5019 22.7654C87.0392 23.9951 85.8617 24.8658 84.4786 24.8658H73.3597C71.9766 24.8658 70.7966 23.9951 70.3339 22.7654C70.1993 22.4087 70.1259 22.0226 70.1259 21.6168V14.8137H65.4306C62.799 14.8137 60.4856 16.1984 59.1808 18.2841C58.4635 19.4278 58.0474 20.7805 58.0474 22.2316V49.1585C58.6349 50.0415 58.9752 51.104 58.9752 52.2452V72.01C60.2359 74.2875 62.6545 75.8296 65.4306 75.8296H111.392C115.47 75.8296 118.778 72.5068 118.778 68.4092V22.2316C118.778 20.7805 118.362 19.4278 117.644 18.2841ZM78.4002 35.0974C78.2508 35.9041 77.5434 36.5166 76.6939 36.5166C75.7367 36.5166 74.9607 35.7369 74.9607 34.7752C74.9607 33.8136 75.7367 33.0314 76.6939 33.0314C77.6511 33.0314 78.4295 33.8111 78.4295 34.7752C78.4295 34.8859 78.4197 34.9941 78.4002 35.0974ZM82.5446 62.408C81.5875 62.408 80.8114 61.6259 80.8114 60.6642C80.8114 59.7025 81.5875 58.9204 82.5446 58.9204C82.6524 58.9204 82.7576 58.9302 82.8604 58.9499C83.6683 59.0975 84.2803 59.8107 84.2803 60.6642C84.2803 61.6259 83.5043 62.408 82.5446 62.408ZM88.4125 34.7752C88.2754 34.7752 88.1433 34.7605 88.016 34.7285C87.2497 34.5489 86.6769 33.8554 86.6769 33.0314C86.6769 32.0697 87.4554 31.2876 88.4125 31.2876C89.3697 31.2876 90.1482 32.0697 90.1482 33.0314C90.1482 33.9931 89.3697 34.7752 88.4125 34.7752ZM94.5056 60.0936C93.546 60.0936 92.77 59.3139 92.77 58.3498C92.77 58.2932 92.7724 58.2391 92.7798 58.185C92.8606 57.2996 93.6023 56.6084 94.5056 56.6084C95.4628 56.6084 96.2388 57.3881 96.2388 58.3498C96.2388 59.3114 95.4628 60.0936 94.5056 60.0936Z" stroke="#0000FF" stroke-width="3.14703" stroke-linecap="round" stroke-linejoin="round"/>
<path d="M58.0474 49.1585C57.0535 47.6557 55.3521 46.6646 53.4206 46.6646H18.8498C15.78 46.6646 13.2952 49.1634 13.2952 52.2452V86.9786C13.2952 89.6792 15.2047 91.9321 17.7408 92.4486L25.8707 75.0794L34.3041 92.4953L44.1402 66.8892L48.0742 76.2379L50.8722 82.886L54.8625 92.3699C57.2322 91.7304 58.9752 89.5587 58.9752 86.9786V52.2452C58.9752 51.104 58.6349 50.0415 58.0474 49.1585ZM34.9112 62.1202C33.954 62.1202 33.1756 61.3405 33.1756 60.3764C33.1756 59.4123 33.954 58.6326 34.9112 58.6326C35.8684 58.6326 36.6468 59.4147 36.6468 60.3764C36.6468 61.3381 35.8684 62.1202 34.9112 62.1202Z" stroke="#0000FF" stroke-width="3.14703" stroke-linecap="round" stroke-linejoin="round"/>
<path d="M34.9112 63.7189C33.0776 63.7189 31.5844 62.2186 31.5844 60.3764C31.5844 58.5342 33.0776 57.0339 34.9112 57.0339C36.7448 57.0339 38.2381 58.5342 38.2381 60.3764C38.2381 62.2186 36.7448 63.7189 34.9112 63.7189ZM34.9112 60.2313C34.8329 60.2313 34.7668 60.2977 34.7668 60.3764C34.7668 60.4551 34.8304 60.5215 34.9112 60.5215C34.992 60.5215 35.0556 60.4576 35.0556 60.3764C35.0556 60.2953 34.9895 60.2313 34.9112 60.2313Z" fill="#0000FF"/>
<path d="M53.4206 94.158H18.8497C18.4898 94.158 18.1251 94.1309 17.7652 94.0768C17.7579 94.0768 17.7481 94.0744 17.7408 94.0719C17.6379 94.0547 17.54 94.0375 17.4372 94.0178C16.9549 93.9243 16.5437 93.612 16.3209 93.1717C16.0981 92.7315 16.0908 92.215 16.2989 91.7673L24.4287 74.3982C24.6882 73.8399 25.2464 73.4832 25.8584 73.4808H25.8682C26.4777 73.4808 27.0334 73.83 27.2978 74.381L35.2955 90.8967H54.2602C55.0926 90.8967 55.7853 91.5411 55.8465 92.3748C55.9077 93.2086 55.3227 93.9514 54.4977 94.0768C54.1403 94.1309 53.7755 94.158 53.4157 94.158H53.4206ZM20.1961 90.9606H31.7924L25.8951 78.7835L20.1961 90.9606Z" fill="#0000FF"/>
<path d="M93.5901 59.9485C93.5411 59.9485 93.4921 59.9485 93.4432 59.9411C93.2008 59.9189 91.0221 59.673 88.8336 57.9046C86.8482 56.301 84.481 53.0938 84.481 46.9081C84.481 42.9777 83.2007 40.0091 80.6743 38.0833C78.8285 36.6764 76.9729 36.3542 76.9533 36.3518C76.0843 36.2165 75.4894 35.3999 75.6265 34.5268C75.7612 33.6537 76.5715 33.056 77.443 33.1938C77.5507 33.211 80.0868 33.6242 82.596 35.5352C84.9069 37.2962 87.6634 40.6978 87.6634 46.9081C87.6634 55.9739 93.5019 56.7314 93.7492 56.7585C94.6256 56.8396 95.262 57.6168 95.1813 58.4949C95.1054 59.3237 94.4052 59.946 93.5925 59.946L93.5901 59.9485Z" fill="#0000FF"/>
<path d="M82.5471 62.0292C82.4369 62.0292 82.3243 62.0169 82.2117 61.9923C81.3524 61.8079 80.8041 60.9569 80.9877 60.0936L86.8556 32.5297C87.0392 31.6664 87.8862 31.1155 88.7454 31.2999C89.6047 31.4844 90.1531 32.3354 89.9695 33.1987L84.1016 60.7626C83.9424 61.5127 83.2815 62.0268 82.5471 62.0268V62.0292Z" fill="#0000FF"/>
<path d="M76.6939 38.1153C74.8603 38.1153 73.3694 36.6174 73.3694 34.7752C73.3694 32.933 74.8603 31.4327 76.6939 31.4327C78.5274 31.4327 80.0207 32.933 80.0207 34.7752C80.0207 34.9868 80.0011 35.1958 79.962 35.3975C79.6706 36.9691 78.2949 38.1153 76.6939 38.1153ZM76.6939 34.6301C76.6155 34.6301 76.5519 34.6941 76.5519 34.7752C76.5519 34.8564 76.6155 34.9179 76.6939 34.9179C76.782 34.9179 76.8285 34.849 76.8358 34.8047V34.7752C76.8383 34.6941 76.7746 34.6301 76.6939 34.6301Z" fill="#0000FF"/>
<path d="M34.9112 63.7189C33.0776 63.7189 31.5844 62.2186 31.5844 60.3764C31.5844 58.5342 33.0776 57.0339 34.9112 57.0339C36.7448 57.0339 38.2381 58.5342 38.2381 60.3764C38.2381 62.2186 36.7448 63.7189 34.9112 63.7189ZM34.9112 60.2313C34.8329 60.2313 34.7668 60.2977 34.7668 60.3764C34.7668 60.4551 34.8304 60.5215 34.9112 60.5215C34.992 60.5215 35.0556 60.4576 35.0556 60.3764C35.0556 60.2953 34.9895 60.2313 34.9112 60.2313Z" fill="#0000FF"/>
<path d="M94.5056 61.6922C92.6721 61.6922 91.1788 60.1919 91.1788 58.3497C91.1788 58.2292 91.1861 58.1185 91.1984 58.0079C91.3697 56.296 92.7871 55.0097 94.5056 55.0097C96.3392 55.0097 97.83 56.5076 97.83 58.3497C97.83 60.1919 96.3392 61.6922 94.5056 61.6922ZM94.3612 58.3596C94.3661 58.4383 94.4273 58.4948 94.5056 58.4948C94.584 58.4948 94.6476 58.4309 94.6476 58.3497C94.6476 58.2686 94.584 58.2071 94.5056 58.2071C94.4273 58.2071 94.3685 58.271 94.3636 58.3301C94.3636 58.3399 94.3636 58.3497 94.3612 58.3571V58.3596Z" fill="#0000FF"/>
<path d="M88.4125 36.3739C88.1482 36.3739 87.8887 36.3444 87.6439 36.2829C86.1383 35.9238 85.0857 34.5883 85.0857 33.0314C85.0857 31.1892 86.579 29.6889 88.4125 29.6889C90.2461 29.6889 91.7394 31.1892 91.7394 33.0314C91.7394 34.8736 90.2461 36.3739 88.4125 36.3739ZM88.4125 32.8863C88.3342 32.8863 88.2681 32.9527 88.2681 33.0314C88.2681 33.115 88.3342 33.1618 88.3783 33.1716C88.3856 33.1716 88.393 33.1765 88.4027 33.1765C88.4933 33.1765 88.5594 33.1101 88.5594 33.0314C88.5594 32.9527 88.4933 32.8863 88.415 32.8863H88.4125Z" fill="#0000FF"/>
<path d="M82.5446 64.0066C80.7111 64.0066 79.2202 62.5063 79.2202 60.6641C79.2202 58.822 80.7111 57.3217 82.5446 57.3217C82.7527 57.3217 82.9583 57.3413 83.1591 57.3807C84.7258 57.666 85.8715 59.0482 85.8715 60.6641C85.8715 62.5063 84.3782 64.0066 82.5446 64.0066ZM82.5446 60.519C82.4663 60.519 82.4026 60.583 82.4026 60.6641C82.4026 60.7453 82.4663 60.8093 82.5446 60.8093C82.623 60.8093 82.6891 60.7453 82.6891 60.6641C82.6891 60.5879 82.6303 60.5338 82.5764 60.5215L82.5446 60.5166V60.519Z" fill="#0000FF"/>
<path d="M84.4786 7.92218H73.3597C71.5751 7.92218 70.1259 9.37576 70.1259 11.1712V21.6168C70.1259 22.0226 70.1993 22.4088 70.3339 22.7654C70.7966 23.9952 71.9766 24.8658 73.3597 24.8658H84.4786C85.8617 24.8658 87.0392 23.9952 87.5019 22.7654C87.6365 22.4088 87.7099 22.0226 87.7099 21.6168V11.1712C87.7099 9.37576 86.2632 7.92218 84.4786 7.92218ZM75.6045 21.2356C74.6473 21.2356 73.8713 20.4559 73.8713 19.4942C73.8713 19.022 74.0549 18.5965 74.3585 18.2842C74.6743 17.9546 75.1149 17.7504 75.6045 17.7504C76.0941 17.7504 76.5372 17.9546 76.853 18.2842C77.1566 18.5965 77.3402 19.022 77.3402 19.4942C77.3402 20.4559 76.5641 21.2356 75.6045 21.2356ZM79.0758 14.8138C78.1162 14.8138 77.3402 14.0341 77.3402 13.07C77.3402 12.1058 78.1162 11.3262 79.0758 11.3262C80.0354 11.3262 80.8114 12.1083 80.8114 13.07C80.8114 14.0316 80.033 14.8138 79.0758 14.8138ZM82.5446 21.2356C81.5875 21.2356 80.8114 20.4559 80.8114 19.4942C80.8114 19.022 80.995 18.5965 81.2986 18.2842C81.6144 17.9546 82.055 17.7504 82.5446 17.7504C83.0342 17.7504 83.4773 17.9546 83.7907 18.2842C84.0967 18.5965 84.2803 19.022 84.2803 19.4942C84.2803 20.4559 83.5043 21.2356 82.5446 21.2356Z" stroke="#0000FF" stroke-width="3.14703" stroke-linecap="round" stroke-linejoin="round"/>
<path d="M75.6046 22.8343C73.771 22.8343 72.2802 21.3364 72.2802 19.4942C72.2802 18.6162 72.6131 17.7898 73.2202 17.1675C73.8444 16.5157 74.6939 16.1517 75.6046 16.1517C76.5152 16.1517 77.3769 16.5256 77.9987 17.1749C78.596 17.7898 78.9314 18.6162 78.9314 19.4942C78.9314 21.3364 77.4381 22.8343 75.6046 22.8343ZM75.6046 19.3491C75.5899 19.3491 75.5458 19.3491 75.5042 19.3934C75.4724 19.4254 75.4626 19.4549 75.4626 19.4942C75.4626 19.5729 75.5262 19.6369 75.6046 19.6369C75.6829 19.6369 75.749 19.5729 75.749 19.4942C75.749 19.4549 75.7392 19.4254 75.7147 19.4008C75.6804 19.3639 75.6437 19.3491 75.6046 19.3491Z" fill="#0000FF"/>
<path d="M79.0758 16.4124C77.2423 16.4124 75.749 14.9121 75.749 13.0699C75.749 11.2277 77.2423 9.72742 79.0758 9.72742C80.9094 9.72742 82.4027 11.2277 82.4027 13.0699C82.4027 14.9121 80.9094 16.4124 79.0758 16.4124ZM79.0758 12.9248C78.995 12.9248 78.9314 12.9887 78.9314 13.0699C78.9314 13.1511 78.995 13.215 79.0758 13.215C79.1566 13.215 79.2202 13.1511 79.2202 13.0699C79.2202 12.9887 79.1541 12.9248 79.0758 12.9248Z" fill="#0000FF"/>
<path d="M82.5446 22.8343C80.7111 22.8343 79.2202 21.3364 79.2202 19.4942C79.2202 18.6186 79.5532 17.7922 80.1603 17.1675C80.787 16.5157 81.6364 16.1517 82.5446 16.1517C83.4528 16.1517 84.3194 16.5256 84.9412 17.1798C85.5361 17.7849 85.8715 18.6137 85.8715 19.4942C85.8715 21.3364 84.3782 22.8343 82.5446 22.8343ZM82.5446 19.3491C82.5299 19.3491 82.4859 19.3491 82.4443 19.3934C82.4124 19.4254 82.4026 19.4549 82.4026 19.4942C82.4026 19.5729 82.4663 19.6369 82.5446 19.6369C82.623 19.6369 82.6891 19.5729 82.6891 19.4942C82.6891 19.4549 82.6793 19.4278 82.6572 19.4057C82.6156 19.3614 82.5838 19.3491 82.5446 19.3491Z" fill="#0000FF"/>
<path d="M34.3041 92.4954H17.7188L17.7408 92.4486L25.8707 75.0795L34.3041 92.4954Z" fill="#0000FF"/>
<path d="M34.3041 94.094H17.7188C17.1729 94.094 16.6637 93.8112 16.3724 93.3488C16.0811 92.8864 16.0468 92.301 16.2818 91.8067L16.3038 91.7599L24.4288 74.4006C24.6883 73.8423 25.2464 73.4857 25.8584 73.4832H25.8682C26.4778 73.4832 27.0335 73.8325 27.2979 74.3834L35.7313 91.7993C35.9712 92.2937 35.9394 92.879 35.6505 93.3463C35.3592 93.8136 34.85 94.0965 34.3016 94.0965L34.3041 94.094ZM20.2256 90.8967H31.7606L25.8952 78.7835L20.2256 90.8967Z" fill="#0000FF"/>
<path d="M54.8626 92.3699C54.6667 92.4215 54.4684 92.4634 54.2652 92.4953H34.3041L44.1403 66.8892L48.0742 76.2379L50.8723 82.886L54.8626 92.3699Z" fill="#0000FF"/>
<path d="M54.2652 94.094H34.3041C33.7802 94.094 33.2881 93.8333 32.9919 93.4004C32.6957 92.9676 32.6296 92.4117 32.8206 91.9198L42.6567 66.3137C42.8893 65.7062 43.467 65.3004 44.1157 65.2905C44.7571 65.2807 45.3544 65.6668 45.6066 66.267L56.3289 91.7476C56.5076 92.1756 56.4953 92.6601 56.2921 93.0758C56.0889 93.4914 55.7144 93.7989 55.2689 93.9169C55.0192 93.9833 54.767 94.035 54.5124 94.0768C54.4316 94.0891 54.3484 94.0965 54.2676 94.0965L54.2652 94.094ZM36.6248 90.8966H52.5173L44.2087 71.154L36.6248 90.8966Z" fill="#0000FF"/>
</g>
<defs>
<clipPath id="clip0_41_766">
<rect width="142" height="127" fill="white"/>
</clipPath>
</defs>
</svg>
