<svg width="105" height="84" viewBox="0 0 105 84" fill="none" xmlns="http://www.w3.org/2000/svg">
<g clip-path="url(#clip0_88_108)">
<path d="M42.4221 83.5608C42.3815 83.498 42.3733 83.4887 42.3691 83.478C42.3647 83.4669 42.3636 83.4543 42.3616 83.4424C42.3596 83.4304 42.3578 83.4186 42.3567 83.4064C42.3556 83.3944 42.3554 83.3822 42.3551 83.3699C42.3547 83.3577 42.3544 83.3457 42.3542 83.3335C42.354 83.3213 42.354 83.3093 42.3538 83.2971C42.3538 83.2849 42.3538 83.2729 42.3538 83.2607C42.3538 83.2485 42.3538 83.2364 42.3538 83.2242C42.3538 83.2 42.3538 83.1756 42.3538 83.1514C42.3538 69.8816 42.3538 56.6118 42.3538 43.342C42.3538 43.3178 42.3538 43.2934 42.3536 43.2691C42.3536 43.2569 42.3534 43.2449 42.3533 43.2327C42.3531 43.2205 42.3527 43.2085 42.3522 43.1963C42.3516 43.1841 42.3513 43.1721 42.35 43.1599C42.3487 43.1478 42.3469 43.1358 42.3449 43.124C42.3429 43.1119 42.3401 43.1001 42.3305 43.052C28.2307 28.9553 14.1093 14.8368 0 0.730792C0.0317009 0.632067 0.0870863 0.641721 0.13154 0.640082C0.240671 0.636074 0.349985 0.637714 0.459298 0.637714C11.8984 0.637714 23.3373 0.637167 34.7764 0.638989C35.3915 0.638989 35.1994 0.565582 35.625 0.990902C45.9389 11.3 56.2514 21.6103 66.5627 31.9218C66.9606 32.3197 66.8874 32.1443 66.8874 32.7075C66.8892 41.3274 66.8886 49.9473 66.8886 58.5673V59.0528C66.9803 59.0677 67.0482 59.0856 67.1169 59.0883C67.2503 59.0936 67.384 59.0903 67.5175 59.0903C79.843 59.0903 92.1684 59.0903 104.494 59.0903C104.649 59.0903 104.804 59.0919 105 59.093C104.964 59.1679 104.953 59.2122 104.926 59.2424C104.853 59.3238 104.774 59.3996 104.697 59.4768C96.7458 67.4262 88.7947 75.3756 80.8436 83.325C80.8264 83.3421 80.8068 83.3576 80.7926 83.3769C80.6501 83.5729 80.4575 83.617 80.221 83.616C77.2339 83.6046 74.2469 83.6016 71.2597 83.5969C68.297 83.5922 65.334 83.5874 62.3713 83.5829C60.3313 83.5798 58.2911 83.5765 56.2512 83.5745C53.3611 83.5716 50.4711 83.5698 47.581 83.567C45.9781 83.5656 44.3752 83.563 42.7723 83.561C42.6521 83.561 42.532 83.561 42.4223 83.561L42.4221 83.5608Z" fill="#0000FF"/>
<path d="M32.7102 55.9486C32.7621 56.0861 32.7417 56.2203 32.7421 56.3509C32.7443 57.2249 32.7432 58.099 32.7432 58.973C32.7432 62.554 32.7395 66.1351 32.7448 69.716C32.7474 71.4967 32.4316 73.2145 31.7796 74.8716C30.1147 79.1012 26.4148 82.2739 21.978 83.2803C20.763 83.5559 19.5336 83.6747 18.2905 83.6175C13.0068 83.3745 8.70553 80.281 6.55789 76.0991C5.79579 74.6151 5.31153 73.0451 5.12461 71.3898C4.30148 64.1007 9.11054 57.8666 15.6256 56.3047C16.7299 56.04 17.8481 55.9169 18.9808 55.9163C23.4247 55.914 27.8685 55.9152 32.3125 55.9161C32.4429 55.9161 32.5765 55.9014 32.7104 55.9484L32.7102 55.9486Z" fill="#0000FF"/>
<path d="M73.5912 25.507C67.6832 19.6002 61.8114 13.7297 55.9291 7.84865C56.0105 7.7563 56.0699 7.68144 56.137 7.61423C58.3945 5.35557 60.6536 3.09874 62.9085 0.83771C63.0463 0.69964 63.1851 0.610569 63.3859 0.635888C63.4695 0.646453 63.5557 0.637527 63.6408 0.637527C75.0554 0.637527 86.4701 0.637527 97.8848 0.637527H98.3414C98.392 0.73607 98.333 0.771954 98.2942 0.81312C98.2275 0.883612 98.1575 0.951189 98.0889 1.01986C90.0434 9.06378 81.9978 17.1075 73.9521 25.1512C73.8419 25.2614 73.73 25.3702 73.5912 25.507Z" fill="#0000FF"/>
</g>
<defs>
<clipPath id="clip0_88_108">
<rect width="105" height="83" fill="white" transform="translate(0 0.631714)"/>
</clipPath>
</defs>
</svg>
