<svg width="74" height="74" viewBox="0 0 74 74" fill="none" xmlns="http://www.w3.org/2000/svg">
<path fill-rule="evenodd" clip-rule="evenodd" d="M62.1521 14.2998V54.7056C62.1521 58.5425 57.8065 61.3846 53.652 58.6846C52.5536 57.9741 51.9328 56.7425 51.9328 55.4635V47.1266C51.9328 44.4265 49.6884 42.2002 46.9665 42.2002H46.2502C43.4805 42.2002 41.2838 44.4265 41.2838 47.1266V64.1321C41.2838 66.9268 38.9916 69.1532 36.1742 69.1532C33.3567 69.1532 31.0646 66.8795 31.0646 64.1321V37.1317C31.0646 34.3369 33.0702 32.0632 35.6011 32.0632H47.0142C49.7362 32.0632 51.9806 29.8843 51.9806 27.1368V7.57344C51.9806 5.29973 50.5002 3.26286 48.3036 2.59969C44.8176 1.51021 41.0928 0.894409 37.2248 0.894409C26.2414 0.894409 16.3565 5.67868 9.62322 13.2577C8.52489 14.4893 9.43221 16.4788 11.1036 16.4788H41.6658C44.4833 16.4788 46.7755 18.7525 46.7755 21.5473C46.7755 24.3421 44.4833 26.6158 41.6658 26.6158H31.2556C28.4859 26.6158 26.2892 28.8421 26.2892 31.5422V54.6582C26.2892 57.453 23.997 59.7267 21.1796 59.7267C18.3621 59.7267 16.0699 57.453 16.0699 54.6582V31.5422C16.0699 28.8421 13.8255 26.6158 11.1036 26.6158H5.65968C3.46302 26.6158 1.60064 28.179 1.21861 30.2632C0.788828 32.4895 0.550049 34.8106 0.550049 37.1317C0.550049 57.1214 16.9773 73.369 37.177 73.369C57.4245 73.369 73.8039 57.1688 73.8039 37.1317C73.8039 28.0369 70.4134 19.7473 64.7785 13.3525C63.8712 12.263 62.1521 12.8788 62.1521 14.2998Z" fill="#0000FF"/>
</svg>
