<svg width="154" height="127" viewBox="0 0 154 127" fill="none" xmlns="http://www.w3.org/2000/svg">
<g clip-path="url(#clip0_53_206)">
<path d="M49.2279 35.4442V39.2181H63.2072V35.4442H49.2279Z" fill="#0000FF"/>
<path d="M63.2072 40.5644H49.2279C48.4843 40.5644 47.8816 39.9616 47.8816 39.218V35.4441C47.8816 34.7005 48.4843 34.0978 49.2279 34.0978H63.2072C63.9508 34.0978 64.5535 34.7005 64.5535 35.4441V39.218C64.5535 39.9616 63.9508 40.5644 63.2072 40.5644ZM50.5743 37.8717H61.8608V36.7905H50.5743V37.8717Z" fill="#0000FF"/>
<path d="M107.96 105.831H18.4525C12.0273 105.831 6.79932 100.603 6.79932 94.176V91.3777C6.79932 90.6341 7.40207 90.0313 8.14566 90.0313H43.7369C46.0215 90.0313 47.8816 88.1733 47.8816 85.8887V39.2181C47.8816 38.4745 48.4843 37.8717 49.2279 37.8717H63.2072C63.9508 37.8717 64.5535 38.4745 64.5535 39.2181V88.0656C64.5535 93.8467 69.2554 98.5485 75.0343 98.5485H116.539C117.036 98.5485 117.492 98.8219 117.726 99.261C117.96 99.7002 117.933 100.23 117.658 100.645C115.487 103.892 111.86 105.833 107.96 105.833V105.831ZM9.49201 92.724V94.176C9.49201 99.1181 13.5124 103.139 18.4525 103.139H107.96C109.99 103.139 111.92 102.457 113.476 101.241H75.0343C67.7703 101.241 61.8608 95.3297 61.8608 88.0656V40.5644H50.5743V85.8887C50.5743 89.6585 47.5067 92.724 43.7369 92.724H9.49201Z" fill="#0000FF"/>
<path d="M122.082 99.8949V101.74C122.082 108.172 116.866 113.387 110.435 113.387H71.5504V125.654H54.8619V113.387H15.9793C9.54587 113.387 4.33032 108.172 4.33032 101.74V90.5616C5.16713 91.0795 6.151 91.3777 7.20736 91.3777H8.14567V94.1761C8.14567 99.8701 12.7605 104.485 18.4525 104.485H107.96C111.539 104.485 114.689 102.662 116.539 99.8949H122.082Z" fill="#0000FF"/>
<path d="M71.5504 127H54.8619C54.1183 127 53.5155 126.397 53.5155 125.654V114.734H15.9793C8.8147 114.734 2.98398 108.905 2.98398 101.74V90.5616C2.98398 90.0727 3.24911 89.6233 3.67579 89.3851C4.10248 89.1469 4.62445 89.1593 5.03871 89.4161C5.6891 89.818 6.43892 90.0313 7.20737 90.0313H8.14567C8.88927 90.0313 9.49202 90.6341 9.49202 91.3777V94.176C9.49202 99.1181 13.5124 103.139 18.4525 103.139H107.96C110.961 103.139 113.749 101.647 115.421 99.1471C115.671 98.7743 116.09 98.5485 116.539 98.5485H122.082C122.826 98.5485 123.428 99.1513 123.428 99.8949V101.74C123.428 108.905 117.6 114.734 110.435 114.734H72.8967V125.654C72.8967 126.397 72.294 127 71.5504 127ZM56.2082 124.307H70.204V113.387C70.204 112.644 70.8068 112.041 71.5504 112.041H110.435C116.115 112.041 120.736 107.42 120.736 101.74V101.241H117.231C115.029 104.129 111.616 105.831 107.96 105.831H18.4525C12.0273 105.831 6.79932 100.603 6.79932 94.176V92.7116C6.42027 92.6888 6.04537 92.6349 5.67668 92.55V101.74C5.67668 107.42 10.2978 112.041 15.9793 112.041H54.8619C55.6055 112.041 56.2082 112.644 56.2082 113.387V124.307Z" fill="#0000FF"/>
<path d="M136.026 17.6019V1.34631H75.0343C68.5014 1.34631 63.2072 6.64264 63.2072 13.1755V88.0656C63.2072 94.5985 68.5014 99.8949 75.0343 99.8949H140.378C146.909 99.8949 152.205 94.5985 152.205 88.0656V17.6019H136.026ZM84.5375 23.0992L89.693 8.51924L94.8505 23.0992H84.5375Z" stroke="#0000FF" stroke-width="2.6927" stroke-linecap="round" stroke-linejoin="round"/>
<path d="M94.8505 24.4456H84.5375C84.1004 24.4456 83.6903 24.2343 83.4376 23.876C83.1849 23.5197 83.1228 23.062 83.2678 22.6498L88.4232 8.06985C88.6138 7.53131 89.1213 7.17297 89.693 7.17297C90.2646 7.17297 90.7721 7.53338 90.9627 8.06985L96.1202 22.6498C96.2652 23.062 96.2031 23.5197 95.9504 23.876C95.6977 24.2322 95.2875 24.4456 94.8505 24.4456ZM86.441 21.7529H92.9449L89.6909 12.5563L86.4389 21.7529H86.441Z" fill="#0000FF"/>
<path d="M152.205 17.5253V17.6019H136.026V1.34631L152.205 17.5253Z" fill="#0000FF"/>
<path d="M152.205 18.9483H136.026C135.282 18.9483 134.68 18.3455 134.68 17.6019V1.34632C134.68 0.801572 135.007 0.310672 135.51 0.101471C136.014 -0.10566 136.591 0.00826193 136.977 0.393525L153.156 16.5725C153.408 16.8252 153.549 17.167 153.549 17.5253V17.6019C153.549 18.3455 152.946 18.9483 152.203 18.9483H152.205ZM137.372 16.2556H149.032L137.372 4.5962V16.2556Z" fill="#0000FF"/>
<path d="M152.282 18.9483H152.205C151.461 18.9483 150.859 18.3455 150.859 17.6019V17.5253C150.859 16.9805 151.186 16.4896 151.689 16.2804C152.193 16.0733 152.77 16.1872 153.156 16.5725L153.232 16.6491C153.618 17.0344 153.734 17.6123 153.524 18.1156C153.315 18.6189 152.824 18.9462 152.282 18.9462V18.9483Z" fill="#0000FF"/>
<path d="M140.705 24.4455H104.623C103.879 24.4455 103.277 23.8428 103.277 23.0992C103.277 22.3556 103.879 21.7528 104.623 21.7528H140.705C141.449 21.7528 142.051 22.3556 142.051 23.0992C142.051 23.8428 141.449 24.4455 140.705 24.4455Z" fill="#0000FF"/>
<path d="M140.705 33.3791H104.623C103.879 33.3791 103.277 32.7763 103.277 32.0327C103.277 31.2892 103.879 30.6864 104.623 30.6864H140.705C141.449 30.6864 142.051 31.2892 142.051 32.0327C142.051 32.7763 141.449 33.3791 140.705 33.3791Z" fill="#0000FF"/>
<path d="M140.705 42.3146H120.342C119.598 42.3146 118.996 41.7119 118.996 40.9683C118.996 40.2247 119.598 39.6219 120.342 39.6219H140.705C141.449 39.6219 142.051 40.2247 142.051 40.9683C142.051 41.7119 141.449 42.3146 140.705 42.3146Z" fill="#0000FF"/>
<path d="M113.708 42.3146H78.3319C77.5883 42.3146 76.9855 41.7119 76.9855 40.9683C76.9855 40.2247 77.5883 39.6219 78.3319 39.6219H113.708C114.451 39.6219 115.054 40.2247 115.054 40.9683C115.054 41.7119 114.451 42.3146 113.708 42.3146Z" fill="#0000FF"/>
<path d="M126.334 51.2503H122.082C121.338 51.2503 120.736 50.6476 120.736 49.904C120.736 49.1604 121.338 48.5576 122.082 48.5576H126.334C127.078 48.5576 127.681 49.1604 127.681 49.904C127.681 50.6476 127.078 51.2503 126.334 51.2503Z" fill="#0000FF"/>
<path d="M118.269 51.2503H78.3319C77.5883 51.2503 76.9855 50.6476 76.9855 49.904C76.9855 49.1604 77.5883 48.5576 78.3319 48.5576H118.269C119.012 48.5576 119.615 49.1604 119.615 49.904C119.615 50.6476 119.012 51.2503 118.269 51.2503Z" fill="#0000FF"/>
<path d="M140.167 60.1839H122.082C121.338 60.1839 120.736 59.5812 120.736 58.8376C120.736 58.094 121.338 57.4912 122.082 57.4912H140.167C140.91 57.4912 141.513 58.094 141.513 58.8376C141.513 59.5812 140.91 60.1839 140.167 60.1839Z" fill="#0000FF"/>
<path d="M118.269 60.1839H78.3319C77.5883 60.1839 76.9855 59.5812 76.9855 58.8376C76.9855 58.094 77.5883 57.4912 78.3319 57.4912H118.269C119.012 57.4912 119.615 58.094 119.615 58.8376C119.615 59.5812 119.012 60.1839 118.269 60.1839Z" fill="#0000FF"/>
<path d="M130.168 69.1195H122.082C121.338 69.1195 120.736 68.5167 120.736 67.7731C120.736 67.0295 121.338 66.4268 122.082 66.4268H130.168C130.912 66.4268 131.515 67.0295 131.515 67.7731C131.515 68.5167 130.912 69.1195 130.168 69.1195Z" fill="#0000FF"/>
<path d="M118.269 69.1195H78.3319C77.5883 69.1195 76.9855 68.5167 76.9855 67.7731C76.9855 67.0295 77.5883 66.4268 78.3319 66.4268H118.269C119.012 66.4268 119.615 67.0295 119.615 67.7731C119.615 68.5167 119.012 69.1195 118.269 69.1195Z" fill="#0000FF"/>
<path d="M137.975 78.0529H122.082C121.338 78.0529 120.736 77.4502 120.736 76.7066C120.736 75.963 121.338 75.3602 122.082 75.3602H137.975C138.719 75.3602 139.321 75.963 139.321 76.7066C139.321 77.4502 138.719 78.0529 137.975 78.0529Z" fill="#0000FF"/>
<path d="M118.269 78.0529H78.3319C77.5883 78.0529 76.9855 77.4502 76.9855 76.7066C76.9855 75.963 77.5883 75.3602 78.3319 75.3602H118.269C119.012 75.3602 119.615 75.963 119.615 76.7066C119.615 77.4502 119.012 78.0529 118.269 78.0529Z" fill="#0000FF"/>
<path d="M40.5388 73.8214H5.99152C5.24792 73.8214 4.64517 73.2186 4.64517 72.475C4.64517 71.7314 5.24792 71.1287 5.99152 71.1287H40.5388C41.2824 71.1287 41.8852 71.7314 41.8852 72.475C41.8852 73.2186 41.2824 73.8214 40.5388 73.8214Z" fill="#0000FF"/>
<path d="M29.4118 79.681H5.99152C5.24792 79.681 4.64517 79.0782 4.64517 78.3346C4.64517 77.591 5.24792 76.9883 5.99152 76.9883H29.4118C30.1554 76.9883 30.7581 77.591 30.7581 78.3346C30.7581 79.0782 30.1554 79.681 29.4118 79.681Z" fill="#0000FF"/>
<path d="M35.8142 85.5407H5.99152C5.24792 85.5407 4.64517 84.938 4.64517 84.1944C4.64517 83.4508 5.24792 82.848 5.99152 82.848H35.8142C36.5578 82.848 37.1605 83.4508 37.1605 84.1944C37.1605 84.938 36.5578 85.5407 35.8142 85.5407Z" fill="#0000FF"/>
<path d="M128.799 86.9886H122.082C121.338 86.9886 120.736 86.3858 120.736 85.6422C120.736 84.8986 121.338 84.2959 122.082 84.2959H128.799C129.543 84.2959 130.146 84.8986 130.146 85.6422C130.146 86.3858 129.543 86.9886 128.799 86.9886Z" fill="#0000FF"/>
<path d="M118.269 86.9886H78.3319C77.5883 86.9886 76.9855 86.3858 76.9855 85.6422C76.9855 84.8986 77.5883 84.2959 78.3319 84.2959H118.269C119.012 84.2959 119.615 84.8986 119.615 85.6422C119.615 86.3858 119.012 86.9886 118.269 86.9886Z" fill="#0000FF"/>
<path d="M98.0092 33.379C97.4541 33.379 96.9363 33.0331 96.7395 32.4822L93.5808 23.5486C93.3322 22.8485 93.7009 22.078 94.401 21.8294C95.1032 21.583 95.8716 21.9496 96.1181 22.6497L99.2769 31.5832C99.5254 32.2833 99.1567 33.0539 98.4566 33.3024C98.3075 33.3542 98.1563 33.379 98.0072 33.379H98.0092Z" fill="#0000FF"/>
<path d="M81.3767 33.3791C81.2275 33.3791 81.0763 33.3543 80.9272 33.3025C80.2271 33.0539 79.8584 32.2855 80.107 31.5833L83.2678 22.6498C83.5163 21.9497 84.2848 21.581 84.987 21.8295C85.6871 22.0781 86.0558 22.8465 85.8072 23.5487L82.6464 32.4823C82.4517 33.0353 81.9318 33.3791 81.3767 33.3791Z" fill="#0000FF"/>
<path d="M43.7369 29.0873H7.20737C4.17498 29.0873 1.71841 31.5459 1.71841 34.5762V85.8887C1.71841 87.8647 2.76235 89.5984 4.33033 90.5615C5.16714 91.0794 6.15101 91.3776 7.20737 91.3776H43.7369C46.7693 91.3776 49.2279 88.9211 49.2279 85.8887V34.5762C49.2279 31.5459 46.7693 29.0873 43.7369 29.0873ZM44.9528 58.0503C44.9528 61.0827 42.4962 63.5414 39.4638 63.5414H11.4825C10.2273 63.5414 9.06948 63.1188 8.14567 62.4104C6.83661 61.4079 5.99152 59.8275 5.99152 58.0503V38.7354C5.99152 35.703 8.45016 33.2444 11.4825 33.2444H39.4638C41.2617 33.2444 42.8566 34.1081 43.857 35.4441C44.5447 36.3617 44.9528 37.5009 44.9528 38.7354V58.0503Z" stroke="#0000FF" stroke-width="2.6927" stroke-linecap="round" stroke-linejoin="round"/>
<path d="M39.4638 64.8877H11.4826C9.96636 64.8877 8.52887 64.401 7.32544 63.4793C5.62076 62.1743 4.64517 60.1962 4.64517 58.0504V38.7354C4.64517 34.9657 7.71278 31.8981 11.4826 31.8981H39.4638C41.6366 31.8981 43.6313 32.8964 44.9341 34.6363C45.8269 35.8273 46.2991 37.2441 46.2991 38.7354V58.0504C46.2991 61.8201 43.2336 64.8877 39.4638 64.8877ZM11.4826 34.5908C9.1979 34.5908 7.33787 36.4508 7.33787 38.7354V58.0504C7.33787 59.3512 7.93026 60.5504 8.96384 61.3417C9.69294 61.9009 10.5629 62.195 11.4826 62.195H39.4638C41.7485 62.195 43.6064 60.335 43.6064 58.0504V38.7354C43.6064 37.8324 43.3206 36.9728 42.78 36.252C41.9908 35.1977 40.7812 34.5908 39.4638 34.5908H11.4826ZM35.6982 59.9353H14.0903C13.6036 59.9353 13.152 59.6722 12.9159 59.2455C12.6777 58.8188 12.688 58.2989 12.9449 57.8826L17.2656 50.8588C17.4893 50.4942 17.8746 50.2581 18.2992 50.2229C18.7259 50.1856 19.1443 50.3555 19.4239 50.6786L22.8084 54.5457L28.8111 42.0682C29.0472 41.5794 29.5547 41.2769 30.0953 41.308C30.638 41.337 31.1102 41.6891 31.2925 42.2007L36.9658 58.1374C37.1129 58.5496 37.0507 59.0073 36.798 59.3656C36.5453 59.724 36.1352 59.9353 35.6982 59.9353ZM24.4986 57.2426H33.7884L29.8385 46.1445L24.4986 57.2426ZM16.4993 57.2426H21.5905L18.6016 53.827L16.4993 57.2426ZM16.6194 46.5298C14.4818 46.5298 12.744 44.7899 12.744 42.6523C12.744 40.5147 14.4818 38.7769 16.6194 38.7769C18.757 38.7769 20.4948 40.5147 20.4948 42.6523C20.4948 44.7899 18.757 46.5298 16.6194 46.5298ZM16.6194 41.4696C15.9669 41.4696 15.4367 41.9998 15.4367 42.6523C15.4367 43.3047 15.9669 43.8371 16.6194 43.8371C17.2718 43.8371 17.8021 43.3047 17.8021 42.6523C17.8021 41.9998 17.2718 41.4696 16.6194 41.4696Z" fill="#0000FF"/>
<path d="M35.6982 58.589H14.0903L18.4111 51.5652L23.1378 56.9671L30.0249 42.6523L35.6982 58.589Z" fill="#0000FF"/>
<path d="M35.6982 59.9353H14.0903C13.6036 59.9353 13.152 59.6723 12.9159 59.2456C12.6777 58.8189 12.6881 58.299 12.9449 57.8827L17.2656 50.8589C17.4893 50.4943 17.8746 50.2582 18.2992 50.223C18.7259 50.1857 19.1443 50.3556 19.4239 50.6787L22.8084 54.5458L28.8111 42.0683C29.0472 41.5794 29.5547 41.277 30.0953 41.3081C30.638 41.3371 31.1102 41.6892 31.2925 42.2008L36.9658 58.1374C37.1129 58.5496 37.0507 59.0074 36.798 59.3657C36.5453 59.7241 36.1352 59.9353 35.6982 59.9353ZM24.4986 57.2426H33.7884L29.8385 46.1446L24.4986 57.2426ZM16.4993 57.2426H21.5905L18.6016 53.8271L16.4993 57.2426Z" fill="#0000FF"/>
<path d="M19.1484 42.6524C19.1484 44.0505 18.0154 45.1835 16.6194 45.1835C15.2233 45.1835 14.0903 44.0505 14.0903 42.6524C14.0903 41.2542 15.2212 40.1233 16.6194 40.1233C18.0175 40.1233 19.1484 41.2563 19.1484 42.6524Z" fill="#0000FF"/>
<path d="M16.6194 46.5297C14.4818 46.5297 12.744 44.7899 12.744 42.6523C12.744 40.5147 14.4818 38.7769 16.6194 38.7769C18.757 38.7769 20.4948 40.5147 20.4948 42.6523C20.4948 44.7899 18.757 46.5297 16.6194 46.5297ZM16.6194 41.4696C15.9669 41.4696 15.4367 41.9998 15.4367 42.6523C15.4367 43.3047 15.9669 43.8371 16.6194 43.8371C17.2718 43.8371 17.8021 43.3047 17.8021 42.6523C17.8021 41.9998 17.2718 41.4696 16.6194 41.4696Z" fill="#0000FF"/>
</g>
<defs>
<clipPath id="clip0_53_206">
<rect width="153.256" height="127" fill="white" transform="translate(0.37207)"/>
</clipPath>
</defs>
</svg>
