<svg width="714" height="584" viewBox="0 0 714 584" fill="none" xmlns="http://www.w3.org/2000/svg">
<g clip-path="url(#clip0_10_24)">
<path d="M400.799 578.443C527.51 578.443 630.231 572.911 630.231 566.086C630.231 559.262 527.51 553.73 400.799 553.73C274.087 553.73 171.367 559.262 171.367 566.086C171.367 572.911 274.087 578.443 400.799 578.443Z" fill="#0000FF" stroke="#0000FF" stroke-width="4.00055" stroke-linecap="round" stroke-linejoin="round"/>
<path d="M502.132 360.842C502.088 360.772 501.714 360.146 501.328 359.166C501.91 360.096 502.114 360.775 502.132 360.842Z" stroke="#0000FF" stroke-width="4.00055" stroke-linecap="round" stroke-linejoin="round"/>
<path d="M519.668 384.339C519.045 384.599 518.419 384.857 517.79 385.111C517.544 383.213 517.173 381.952 517.141 381.838C517.214 381.961 518.021 383.312 519.668 384.339Z" stroke="#0000FF" stroke-width="4.00055" stroke-linecap="round" stroke-linejoin="round"/>
<path d="M350.643 149.98C350.643 149.98 350.783 149.456 351.061 148.573C350.818 149.015 350.672 149.485 350.643 149.98Z" stroke="#0000FF" stroke-width="4.00055" stroke-linecap="round" stroke-linejoin="round"/>
<path d="M450.449 6.39916C344.294 1.83668 256.726 17.817 250.038 42.3784C249.81 43.2178 249.675 44.0688 249.637 44.9287C248.523 70.926 336.617 95.8237 446.404 100.538C556.192 105.256 646.099 88.0032 647.213 62.0087C647.213 61.9853 647.216 61.9649 647.216 61.9415C648.178 35.9675 560.143 11.1108 450.449 6.39916ZM635.591 58.2418C634.655 80.0364 550.162 94.1069 446.872 89.6702C343.58 85.2335 260.604 63.9683 261.543 42.1737C262.479 20.3791 346.97 6.30849 450.262 10.7452C553.551 15.1819 636.527 36.4472 635.591 58.2418Z" stroke="#0000FF" stroke-width="4.00055" stroke-linecap="round" stroke-linejoin="round"/>
<path d="M635.591 58.2418C634.655 80.0364 550.162 94.107 446.872 89.6702C343.58 85.2335 260.604 63.9683 261.543 42.1737C262.479 20.3791 346.97 6.30852 450.262 10.7452C553.551 15.182 636.527 36.4472 635.591 58.2418Z" stroke="#0000FF" stroke-width="4.00055" stroke-linecap="round" stroke-linejoin="round"/>
<path d="M403.984 263.46C395.038 271.558 383.152 277.021 367.313 276.91C364.9 276.893 362.663 276.776 360.589 276.568C360.633 274.085 361.373 256.584 373.601 256.584L375.838 260.687L377.402 253.074C377.402 253.074 394.947 241.592 403.984 263.46Z" stroke="#0000FF" stroke-width="4.00055" stroke-linecap="round" stroke-linejoin="round"/>
<path d="M289.227 204.963C290.104 226.606 315.548 231.87 331.048 217.247" stroke="#0000FF" stroke-width="4.00055" stroke-linecap="round" stroke-linejoin="round"/>
<path d="M308.746 184.596C315.495 182.841 321.397 182.736 321.397 182.736" stroke="#0000FF" stroke-width="4.00055" stroke-linecap="round" stroke-linejoin="round"/>
<path d="M351.058 148.573C350.78 149.456 350.64 149.98 350.64 149.98C350.669 149.485 350.815 149.015 351.058 148.573Z" stroke="#0000FF" stroke-width="4.00055" stroke-linecap="round" stroke-linejoin="round"/>
<path d="M351.061 148.573C352.204 146.499 355.553 145.028 359.77 144.397C355.316 150.313 351.582 160.038 349.923 171.339C347.785 185.921 349.716 198.983 354.296 205.095C358.074 204.393 362.648 204.153 367.88 205.001C373.2 199.55 377.829 188.664 379.73 175.708C381.412 164.235 380.576 153.7 377.911 146.754C381.374 148.374 384.231 150.772 385.737 154.074C385.737 154.074 385.737 129.8 369.067 128.045C358.685 126.951 352.64 143.563 351.061 148.573ZM351.061 148.573C350.783 149.456 350.643 149.98 350.643 149.98C350.672 149.485 350.818 149.015 351.061 148.573ZM647.216 61.9415C647.216 61.9649 647.213 61.9853 647.213 62.0087C646.099 88.0032 556.192 105.256 446.404 100.538C336.617 95.8237 248.523 70.926 249.637 44.9287C249.675 44.0688 249.81 43.2178 250.038 42.3784C249.839 42.1678 249.746 42.0596 249.746 42.0596C249.746 42.0596 226.925 124.772 235.485 210.161C235.576 211.07 235.67 211.983 235.769 212.895C235.962 214.679 236.17 216.466 236.389 218.253C236.5 219.148 236.614 220.043 236.734 220.938C236.734 220.944 236.737 220.953 236.737 220.958C236.781 221.301 236.828 221.64 236.875 221.982C236.927 222.374 236.98 222.763 237.035 223.155C237.126 223.807 237.217 224.462 237.313 225.114C237.381 225.576 237.448 226.039 237.518 226.501C237.541 226.664 237.565 226.828 237.591 226.992C237.638 227.308 237.688 227.624 237.734 227.937C237.805 228.39 237.875 228.843 237.948 229.294C238.018 229.747 238.094 230.197 238.167 230.651C238.24 231.113 238.316 231.572 238.395 232.034C249.392 297.564 281.661 360.638 359.805 384.915C362.356 385.711 364.956 386.462 367.605 387.17C373.893 388.852 380.032 390.326 386.024 391.604C402.554 395.131 417.981 397.17 432.372 397.936C430.825 392.066 430.483 388.34 430.483 388.34C430.483 388.34 432.469 381.739 435.095 376.694C435.124 376.632 435.154 376.577 435.186 376.521C435.218 376.46 435.253 376.396 435.285 376.334C435.487 375.957 435.692 375.588 435.899 375.237C436.072 374.942 436.247 374.658 436.426 374.386C436.815 373.784 437.213 373.24 437.616 372.772C437.724 372.646 437.836 372.523 437.944 372.409C438.055 372.292 438.166 372.181 438.277 372.082C438.35 372.011 438.423 371.947 438.494 371.889C438.532 371.857 438.57 371.824 438.608 371.795C438.684 371.734 438.757 371.678 438.83 371.628C438.868 371.599 438.903 371.576 438.941 371.552C438.979 371.526 439.014 371.503 439.052 371.479C439.099 371.45 439.149 371.421 439.198 371.394C439.26 371.359 439.321 371.327 439.386 371.298C439.435 371.272 439.485 371.251 439.538 371.231C439.584 371.21 439.631 371.193 439.678 371.178C439.698 371.169 439.719 371.16 439.742 371.158C439.783 371.143 439.824 371.131 439.865 371.12C439.932 371.102 440.003 371.087 440.073 371.079C440.12 371.07 440.166 371.064 440.213 371.061C440.272 371.055 440.327 371.052 440.383 371.052C442.734 371.052 444.96 375.375 446.349 388.34C446.723 391.835 447.492 395.146 448.586 398.272C453.815 398.205 458.895 397.962 463.829 397.556C464.086 396.965 464.37 396.391 464.683 395.839C461.908 397.184 453.637 400.173 453.88 387.755C453.973 383.023 455.977 379.405 458.673 376.671C451.56 359.003 471.199 353.533 485.465 352.951C495.677 352.533 499.801 356.724 501.325 359.163C500.126 356.125 498.824 349.714 507.107 346.225C509.399 345.26 511.856 345.388 514.316 346.269C517.837 329.788 526.994 309.374 526.994 309.374C490.729 268.429 509.022 235.921 509.022 235.921C512.985 222.716 529.014 249.91 529.014 249.91C529.69 250.866 530.345 251.834 530.971 252.808C531.132 253.051 531.287 253.294 531.439 253.539C531.62 253.823 531.796 254.107 531.971 254.393C532.123 254.639 532.272 254.882 532.419 255.127C532.539 255.326 532.656 255.525 532.772 255.724C532.907 255.949 533.039 256.177 533.17 256.405C533.299 256.628 533.428 256.85 533.553 257.075C533.612 257.177 533.67 257.28 533.726 257.382C533.866 257.628 534.001 257.874 534.135 258.122C534.156 258.154 534.173 258.189 534.191 258.222C534.331 258.479 534.469 258.736 534.606 258.994C534.638 259.055 534.671 259.114 534.703 259.175C534.852 259.456 535.001 259.737 535.144 260.02C535.153 260.041 535.165 260.058 535.174 260.076C535.282 260.283 535.387 260.491 535.489 260.699C535.589 260.898 535.688 261.097 535.788 261.295C535.925 261.57 536.057 261.842 536.188 262.117C536.908 263.612 537.58 265.115 538.209 266.627C538.335 266.931 538.458 267.232 538.581 267.537C538.823 268.145 539.063 268.753 539.294 269.362C539.522 269.97 539.745 270.578 539.961 271.19C539.961 271.192 539.964 271.192 539.964 271.192C540.18 271.801 540.388 272.412 540.59 273.026C540.795 273.643 540.993 274.258 541.184 274.875C541.271 275.158 541.359 275.439 541.441 275.723C541.461 275.784 541.479 275.846 541.496 275.907C541.578 276.176 541.654 276.445 541.73 276.714C541.912 277.34 542.087 277.966 542.254 278.592C542.415 279.2 542.57 279.806 542.719 280.414C542.774 280.633 542.827 280.856 542.88 281.075C542.976 281.473 543.07 281.867 543.158 282.265C543.228 282.564 543.295 282.865 543.359 283.163C543.43 283.482 543.497 283.801 543.561 284.117C543.626 284.427 543.69 284.737 543.751 285.044C543.81 285.333 543.865 285.623 543.918 285.912C543.988 286.263 544.053 286.611 544.114 286.959C544.167 287.246 544.216 287.533 544.263 287.819C544.319 288.126 544.368 288.436 544.418 288.743C544.471 289.05 544.518 289.358 544.564 289.665C544.623 290.036 544.678 290.408 544.731 290.779C544.763 290.995 544.792 291.215 544.822 291.434C544.942 292.273 545.047 293.11 545.14 293.946C545.173 294.224 545.205 294.502 545.234 294.78C545.26 295.014 545.284 295.245 545.307 295.479C545.348 295.874 545.386 296.269 545.421 296.663C545.45 296.976 545.477 297.289 545.503 297.602C545.559 298.228 545.605 298.851 545.643 299.474C545.646 299.494 545.646 299.515 545.646 299.535C545.652 299.6 545.658 299.661 545.661 299.725C545.667 299.796 545.67 299.863 545.673 299.933C545.69 300.167 545.705 300.398 545.717 300.629C545.731 300.863 545.746 301.097 545.755 301.334C545.76 301.401 545.763 301.469 545.766 301.539C545.766 301.565 545.766 301.589 545.769 301.615C545.769 301.644 545.769 301.67 545.772 301.7C545.778 301.767 545.781 301.834 545.784 301.901C545.793 302.077 545.801 302.252 545.807 302.428C545.81 302.56 545.816 302.688 545.822 302.817C545.845 303.305 545.86 303.794 545.875 304.282C545.889 304.835 545.901 305.388 545.91 305.938C545.918 306.546 545.921 307.151 545.921 307.757C545.921 308.52 545.915 309.277 545.898 310.032C545.898 310.105 545.895 310.178 545.895 310.251C545.895 310.319 545.895 310.383 545.895 310.45C545.892 310.658 545.886 310.866 545.877 311.073C545.875 311.31 545.869 311.547 545.86 311.784C545.857 311.921 545.854 312.059 545.845 312.196C545.831 312.641 545.813 313.08 545.793 313.518C545.778 313.884 545.76 314.246 545.74 314.609C545.72 314.983 545.699 315.355 545.676 315.723C545.673 315.791 545.667 315.858 545.661 315.925V315.949C545.661 315.966 545.661 315.984 545.658 316.004C545.643 316.262 545.626 316.519 545.605 316.773C545.597 316.943 545.582 317.11 545.57 317.276C545.541 317.66 545.512 318.043 545.48 318.423C545.404 319.353 545.316 320.274 545.222 321.184C545.187 321.511 545.152 321.842 545.114 322.166C545.088 322.418 545.059 322.67 545.029 322.918C545.012 323.067 544.994 323.213 544.974 323.363C544.962 323.465 544.95 323.564 544.939 323.664C544.936 323.67 544.936 323.673 544.936 323.676C544.936 323.69 544.933 323.708 544.933 323.722C544.904 323.956 544.874 324.19 544.842 324.424C544.839 324.436 544.839 324.445 544.839 324.456C544.816 324.632 544.792 324.807 544.769 324.983C544.763 325.009 544.76 325.036 544.757 325.065C544.754 325.1 544.749 325.132 544.746 325.164C544.713 325.413 544.678 325.658 544.64 325.904C544.608 326.138 544.576 326.372 544.541 326.603C544.538 326.612 544.538 326.624 544.535 326.635C544.503 326.878 544.465 327.121 544.427 327.361C544.424 327.381 544.421 327.399 544.418 327.419C544.415 327.44 544.412 327.46 544.409 327.483C544.363 327.782 544.316 328.08 544.266 328.378C544.053 329.709 543.821 331.008 543.576 332.271C543.561 332.35 543.547 332.429 543.532 332.508C543.485 332.748 543.435 332.991 543.389 333.228C543.371 333.307 543.356 333.385 543.339 333.467C543.316 333.593 543.289 333.716 543.263 333.842C543.158 334.348 543.052 334.848 542.941 335.339C542.871 335.646 542.804 335.953 542.734 336.255C542.543 337.085 542.345 337.898 542.143 338.691C542.093 338.89 542.04 339.086 541.991 339.282C541.847 339.828 541.704 340.364 541.561 340.89C541.532 340.984 541.505 341.077 541.482 341.171C541.388 341.493 541.298 341.811 541.207 342.127C540.403 344.876 539.552 347.333 538.695 349.442C536.571 354.668 533.629 358.845 530.488 361.793C532.372 364.984 533.565 367.946 533.723 369.915C533.726 369.955 533.729 369.993 533.732 370.034C533.752 370.318 533.773 370.596 533.787 370.874C533.802 371.149 533.814 371.424 533.822 371.693C533.834 372.035 533.84 372.374 533.84 372.711C533.84 374.582 533.664 376.337 533.255 377.914C566.908 360.053 588.45 333.327 601.388 309.766C608.589 296.658 613.128 284.532 615.611 275.448C617.301 269.262 619.196 261.769 621.196 253.288C621.205 253.247 621.217 253.206 621.226 253.162C628.789 221.061 637.846 174.886 643.084 132.052C643.09 132.002 643.096 131.952 643.101 131.902C644.865 117.46 646.193 103.402 646.883 90.3926C647.424 80.1475 647.57 70.5546 647.219 61.9415H647.216ZM289.751 199.673C289.338 201.278 289.148 203.039 289.227 204.963C276.534 204.963 274.604 175.424 274.604 175.424C274.604 175.424 276.096 174.6 278.573 173.69C278.582 170.069 278.862 166.226 279.441 162.272C280.404 155.709 282.068 149.678 284.165 144.616C282.673 143.692 281.231 142.569 279.868 141.206C279.868 141.206 286.01 122.488 298.293 122.488C310.576 122.488 314.963 144.715 314.963 144.715C314.963 144.715 312.875 145.695 309.585 146.634C310.369 152.474 310.313 159.371 309.249 166.642C308.74 170.116 308.032 173.444 307.169 176.556C308.172 177.314 309.161 178.171 310.129 179.139C310.129 179.139 309.731 181.405 308.746 184.596C307.087 185.026 305.376 185.558 303.689 186.21C297.448 188.632 291.532 192.73 289.751 199.673ZM428.728 215.785C425.292 230.259 418.498 250.325 403.984 263.46C395.038 271.558 383.152 277.021 367.313 276.91C364.9 276.893 362.663 276.776 360.589 276.568C343.957 274.913 337.763 267.548 335.754 260.52C333.698 253.332 336.02 246.494 336.02 246.494C336.02 246.494 385.749 239.594 408.83 196.157C410.514 197.722 412.755 199.015 415.714 199.845C419.806 200.995 423.292 200.875 426.228 200.041C429.065 203.118 430.574 208.017 428.728 215.785Z" stroke="#0000FF" stroke-width="4.00055" stroke-linecap="round" stroke-linejoin="round"/>
<path d="M385.737 154.074C384.231 150.772 381.374 148.374 377.911 146.754C372.387 144.165 365.324 143.557 359.77 144.397C355.553 145.028 352.204 146.499 351.061 148.573C352.64 143.563 358.685 126.951 369.067 128.045C385.737 129.8 385.737 154.074 385.737 154.074Z" stroke="#0000FF" stroke-width="4.00055" stroke-linecap="round" stroke-linejoin="round"/>
<path d="M314.963 144.715C314.963 144.715 312.875 145.695 309.585 146.634C309.33 146.707 309.067 146.78 308.798 146.85C307.187 147.28 305.33 147.684 303.318 147.956C300.718 148.313 297.86 148.453 294.936 148.149C293.573 148.011 292.198 147.777 290.827 147.424C288.563 146.842 286.311 145.941 284.165 144.616C282.673 143.692 281.231 142.569 279.868 141.206C279.868 141.206 286.01 122.488 298.293 122.488C310.576 122.488 314.963 144.715 314.963 144.715Z" stroke="#0000FF" stroke-width="4.00055" stroke-linecap="round" stroke-linejoin="round"/>
<path d="M286.06 159.745C285.229 164.159 285.182 168.352 285.782 171.786C282.951 172.245 280.471 172.994 278.57 173.69C278.579 170.069 278.859 166.226 279.439 162.272C280.401 155.709 282.065 149.678 284.162 144.616C286.308 145.941 288.56 146.842 290.824 147.424C288.727 150.5 286.987 154.817 286.06 159.745Z" stroke="#0000FF" stroke-width="4.00055" stroke-linecap="round" stroke-linejoin="round"/>
<path d="M310.129 179.139C310.129 179.139 309.731 181.405 308.746 184.596C307.087 185.026 305.376 185.558 303.689 186.21C297.448 188.632 291.532 192.73 289.751 199.673C289.338 201.278 289.148 203.039 289.227 204.963C276.534 204.963 274.604 175.424 274.604 175.424C274.604 175.424 276.096 174.6 278.573 173.69C280.474 172.994 282.954 172.245 285.785 171.786C290.151 171.069 295.351 171.04 300.53 172.93C302.771 173.746 305.005 174.921 307.169 176.556C308.172 177.314 309.161 178.171 310.129 179.139Z" stroke="#0000FF" stroke-width="4.00055" stroke-linecap="round" stroke-linejoin="round"/>
<path d="M303.821 163.088C303.122 166.808 301.961 170.177 300.53 172.93C295.351 171.04 290.151 171.069 285.785 171.786C285.185 168.352 285.232 164.159 286.063 159.745C286.99 154.817 288.73 150.5 290.827 147.424C292.198 147.777 293.573 148.011 294.936 148.149C294.93 148.222 294.93 148.295 294.93 148.371C294.93 152.246 298.074 155.39 301.949 155.39C302.844 155.39 303.701 155.224 304.487 154.914C304.569 157.446 304.362 160.222 303.821 163.088Z" fill="#0000FF"/>
<path d="M377.911 146.754C372.387 144.165 365.324 143.557 359.77 144.397C355.316 150.313 351.582 160.038 349.923 171.339C347.785 185.921 349.716 198.982 354.296 205.095C358.074 204.393 362.648 204.153 367.88 205.001C373.2 199.55 377.829 188.664 379.73 175.708C381.412 164.235 380.576 153.7 377.911 146.754ZM374.595 173.032C372.641 183.417 367.079 191.083 362.174 190.162C357.273 189.237 354.88 180.072 356.837 169.689C358.428 161.222 362.423 154.56 366.503 152.887C365.459 154.112 364.827 155.703 364.827 157.438C364.827 161.313 367.971 164.457 371.846 164.457C373.059 164.457 374.2 164.15 375.194 163.606C375.405 166.463 375.227 169.686 374.595 173.032Z" stroke="#0000FF" stroke-width="4.00055" stroke-linecap="round" stroke-linejoin="round"/>
<path d="M374.595 173.032C372.641 183.417 367.079 191.083 362.174 190.162C357.273 189.238 354.88 180.072 356.837 169.689C358.428 161.222 362.423 154.56 366.503 152.887C365.459 154.112 364.827 155.703 364.827 157.438C364.827 161.313 367.971 164.457 371.846 164.457C373.059 164.457 374.2 164.15 375.194 163.606C375.405 166.463 375.227 169.686 374.595 173.032Z" fill="#0000FF"/>
<path d="M309.246 166.642C308.737 170.116 308.029 173.444 307.166 176.556C305.002 174.921 302.768 173.746 300.528 172.93C301.958 170.177 303.119 166.808 303.818 163.088C304.359 160.222 304.566 157.446 304.484 154.914C303.698 155.224 302.841 155.39 301.946 155.39C298.071 155.39 294.927 152.246 294.927 148.371C294.927 148.295 294.927 148.222 294.933 148.149C297.857 148.453 300.715 148.313 303.315 147.956C305.327 147.684 307.184 147.28 308.795 146.85C309.064 146.78 309.328 146.707 309.582 146.634C310.366 152.474 310.31 159.371 309.246 166.642Z" stroke="#0000FF" stroke-width="4.00055" stroke-linecap="round" stroke-linejoin="round"/>
<path d="M400.615 220.175C401.015 238.46 380.619 239.328 380.619 239.328C374.478 257.169 358.1 250.149 358.1 250.149C355.117 262.076 338.208 260.772 335.754 260.52C333.698 253.332 336.02 246.494 336.02 246.494C336.02 246.494 385.749 239.594 408.83 196.157C410.514 197.722 412.754 199.015 415.714 199.845C418.054 213.591 400.615 220.175 400.615 220.175Z" stroke="#0000FF" stroke-width="4.00055" stroke-linecap="round" stroke-linejoin="round"/>
<path d="M428.728 215.785C425.292 230.259 418.498 250.325 403.984 263.46C394.947 241.592 377.402 253.074 377.402 253.074L375.838 260.687L373.601 256.584C361.373 256.584 360.633 274.085 360.589 276.568C343.957 274.913 337.763 267.548 335.754 260.52C338.208 260.772 355.117 262.076 358.1 250.149C358.1 250.149 374.478 257.169 380.619 239.328C380.619 239.328 401.015 238.46 400.615 220.175C400.615 220.175 418.054 213.591 415.714 199.845C419.806 200.995 423.292 200.875 426.228 200.041C429.065 203.118 430.574 208.017 428.728 215.785Z" fill="#0000FF" stroke="#0000FF" stroke-width="4.00055" stroke-linecap="round" stroke-linejoin="round"/>
<path d="M426.228 200.041C435.253 197.476 439.043 188.15 439.043 188.15" stroke="#0000FF" stroke-width="4.00055" stroke-linecap="round" stroke-linejoin="round"/>
<path d="M408.83 196.157C401.033 188.919 405.186 175.863 405.186 175.863" stroke="#0000FF" stroke-width="4.00055" stroke-linecap="round" stroke-linejoin="round"/>
<path d="M382.33 209.789C377.107 207.18 372.261 205.709 367.88 205.001" stroke="#0000FF" stroke-width="4.00055" stroke-linecap="round" stroke-linejoin="round"/>
<path d="M354.295 205.095C346.683 206.511 342.308 209.789 342.308 209.789" stroke="#0000FF" stroke-width="4.00055" stroke-linecap="round" stroke-linejoin="round"/>
<path d="M386.024 391.604L380.891 401.767L371.758 419.847C367.871 417.94 362.262 416.118 354.445 414.369C351.704 413.755 349.151 413.972 346.782 414.823L352.497 401.697L359.805 384.915C362.356 385.711 364.956 386.462 367.605 387.17C373.893 388.852 380.032 390.326 386.024 391.604Z" stroke="#0000FF" stroke-width="4.00055" stroke-linecap="round" stroke-linejoin="round"/>
<path d="M378.718 431.333C377.005 436.047 359.282 465.086 349.926 480.283C348.841 477.595 347.37 474.816 345.428 471.971C343.674 469.394 341.533 466.759 338.945 464.089C335.312 460.339 331.893 457.85 328.697 456.356C326.811 455.473 325.003 454.935 323.275 454.686C325.837 444.558 333.411 419.613 346.782 414.823C349.151 413.972 351.704 413.755 354.445 414.369C362.262 416.118 367.871 417.94 371.758 419.847C378.926 423.36 380.236 427.162 378.718 431.333Z" stroke="#0000FF" stroke-width="4.00055" stroke-linecap="round" stroke-linejoin="round"/>
<path d="M344.975 514.966C344.539 518.017 343.407 521.427 341.284 525.214C337.456 532.043 333.92 539.735 329.837 546.652C329.609 533.675 320.988 522.275 312.416 513.223C303.92 504.247 291.298 497.178 285.542 486.032C277.57 470.593 274.955 452.861 267.966 436.986C260.71 420.491 244.385 418.443 228.121 418.066C231.634 416.478 235.14 415.261 238.334 414.018C254.717 407.643 285.718 410.412 296.831 435.351C302.607 448.313 302.487 457.698 303.043 466.189C307.52 459.792 314.346 453.393 323.275 454.686C325.003 454.935 326.811 455.473 328.697 456.356C331.893 457.85 335.312 460.339 338.945 464.089C341.533 466.759 343.674 469.394 345.428 471.971C347.37 474.816 348.841 477.595 349.926 480.283C357.179 498.22 347.277 512.094 344.975 514.966Z" stroke="#0000FF" stroke-width="4.00055" stroke-linecap="round" stroke-linejoin="round"/>
<path d="M319.414 560.184C313.612 565.417 306.438 568.321 296.831 566.835C271.68 562.942 213.847 543.964 205.62 485.015C204.067 473.889 203.684 464.665 204.193 456.973C206.933 442.598 216.485 427.802 232.318 426.916C242.472 426.349 252.495 432.207 257.393 441.042C263.275 451.653 269.185 461.813 272.961 473.509C275.827 482.38 277.5 491.929 282.243 500.077C287.037 508.31 294.831 514.504 301.75 520.859C311.585 529.9 326.653 545.731 319.414 560.184Z" fill="#0000FF" stroke="#0000FF" stroke-width="4.00055" stroke-linecap="round" stroke-linejoin="round"/>
<path d="M329.837 546.652C326.787 551.826 323.43 556.561 319.414 560.184C326.653 545.731 311.585 529.9 301.75 520.859C294.831 514.504 287.037 508.31 282.243 500.077C277.5 491.929 275.827 482.38 272.961 473.509C269.185 461.813 263.275 451.653 257.393 441.042C252.495 432.207 242.472 426.349 232.318 426.916C216.485 427.802 206.933 442.598 204.193 456.973C205.848 431.85 217.02 423.094 228.121 418.066C244.385 418.444 260.71 420.491 267.966 436.986C274.955 452.861 277.57 470.593 285.542 486.033C291.298 497.178 303.92 504.247 312.416 513.223C320.988 522.275 329.609 533.675 329.837 546.652Z" stroke="#0000FF" stroke-width="4.00055" stroke-linecap="round" stroke-linejoin="round"/>
<path d="M303.043 466.189C303.557 474.03 304.651 481.107 311.506 489.533" stroke="#0000FF" stroke-width="4.00055" stroke-linecap="round" stroke-linejoin="round"/>
<path d="M494.437 439.621C494.373 439.829 494.309 440.036 494.241 440.247C493.899 441.309 493.51 442.402 493.075 443.511C492.96 443.8 492.846 444.087 492.726 444.379C492.694 444.455 492.662 444.534 492.63 444.613C492.513 444.891 492.396 445.172 492.273 445.453C492.259 445.491 492.241 445.529 492.223 445.567C492.086 445.883 491.946 446.201 491.799 446.52C491.659 446.827 491.516 447.137 491.369 447.444C491.358 447.471 491.343 447.497 491.331 447.523C490.79 448.652 490.211 449.775 489.6 450.869C487.837 454.019 485.798 456.944 483.616 459.187C477.683 456.403 472.407 453.247 467.719 449.851C444.618 433.125 435.703 410.564 432.369 397.936C430.822 392.066 430.48 388.34 430.48 388.34C430.48 388.34 432.466 381.739 435.092 376.694C435.121 376.632 435.151 376.577 435.183 376.521C435.215 376.46 435.25 376.396 435.282 376.334C435.484 375.957 435.689 375.588 435.896 375.237C436.069 374.942 436.245 374.658 436.423 374.386C436.812 373.784 437.21 373.24 437.613 372.772C437.721 372.646 437.833 372.523 437.941 372.409C438.052 372.292 438.163 372.181 438.274 372.082C438.347 372.014 438.417 371.95 438.491 371.889C438.529 371.857 438.567 371.824 438.605 371.795C438.681 371.737 438.754 371.681 438.827 371.628C438.865 371.602 438.903 371.576 438.938 371.552C438.976 371.526 439.011 371.503 439.049 371.479C439.096 371.45 439.146 371.421 439.195 371.394C439.257 371.359 439.318 371.327 439.383 371.298C439.432 371.272 439.482 371.251 439.535 371.231C439.581 371.21 439.628 371.193 439.675 371.178C439.695 371.169 439.716 371.16 439.739 371.158C439.78 371.143 439.821 371.131 439.862 371.12C439.929 371.102 440 371.087 440.07 371.079C440.117 371.07 440.163 371.064 440.21 371.061C440.269 371.055 440.324 371.052 440.38 371.052C442.731 371.052 444.957 375.375 446.346 388.34C446.72 391.835 447.489 395.146 448.583 398.272C454.078 414.042 467.739 425.205 480.069 432.435C485.351 435.535 490.39 437.913 494.437 439.621Z" stroke="#0000FF" stroke-width="4.00055" stroke-linecap="round" stroke-linejoin="round"/>
<path d="M494.437 439.621C490.39 437.913 485.351 435.535 480.069 432.435C483.742 426.811 488.094 427.238 494.236 428.7C494.236 428.7 494.238 428.7 494.241 428.703C494.279 428.727 494.525 428.864 494.961 429.101C496.344 430.435 495.973 434.614 494.437 439.621Z" fill="#0000FF" stroke="#0000FF" stroke-width="4.00055" stroke-linecap="round" stroke-linejoin="round"/>
<path d="M494.964 429.101C494.762 428.905 494.522 428.77 494.244 428.703" stroke="#0000FF" stroke-width="4.00055" stroke-linecap="round" stroke-linejoin="round"/>
<path d="M483.616 459.187C480.949 461.922 478.072 463.638 475.226 463.504C462.943 462.919 467.719 449.851 467.719 449.851C472.407 453.247 477.683 456.403 483.616 459.187Z" fill="#0000FF" stroke="#0000FF" stroke-width="4.00055" stroke-linecap="round" stroke-linejoin="round"/>
<path d="M559.272 455.037C559.272 455.037 559.263 455.052 559.263 455.057C559.12 455.353 559.023 455.572 558.979 455.68C558.965 455.715 558.953 455.739 558.95 455.748C558.947 455.751 558.947 455.753 558.947 455.753C558.836 455.996 558.719 456.239 558.599 456.482C558.5 456.683 558.397 456.888 558.292 457.093C557.754 458.137 557.152 459.196 556.514 460.234C556.286 460.614 556.049 460.989 555.812 461.363C551.814 467.628 545.082 471.623 537.668 472.155C535.966 472.278 534.109 472.392 532.135 472.491C514.769 473.36 488.185 472.895 475.229 463.504C478.074 463.638 480.952 461.922 483.619 459.187C486.559 456.166 489.24 451.905 491.334 447.523C491.346 447.497 491.361 447.471 491.372 447.444C491.519 447.137 491.662 446.827 491.802 446.52C491.949 446.201 492.089 445.883 492.226 445.567C492.244 445.529 492.262 445.491 492.276 445.453C492.399 445.172 492.516 444.891 492.633 444.613C492.665 444.534 492.697 444.455 492.729 444.379C492.849 444.09 492.966 443.8 493.077 443.511C493.513 442.402 493.902 441.309 494.244 440.247C494.312 440.036 494.376 439.829 494.44 439.621C495.976 434.614 496.347 430.435 494.964 429.101C498.473 430.999 514.362 439.203 534.091 443.294C540.862 444.698 548.088 445.619 555.42 445.634C561.536 445.646 561.468 449.963 559.272 455.037Z" stroke="#0000FF" stroke-width="4.00055" stroke-linecap="round" stroke-linejoin="round"/>
<path d="M572.201 455.753C571.909 457.842 571.426 459.965 570.742 462.085C566.759 474.439 557.184 482.818 547.79 483.079C545.331 481.976 542.549 481.219 539.4 480.914C536.264 479.054 533.799 476.115 532.138 472.491C534.112 472.392 535.969 472.278 537.671 472.155C545.085 471.623 551.817 467.628 555.815 461.363C556.988 459.526 558.096 457.602 558.95 455.753C558.95 455.753 558.95 455.751 558.953 455.748C558.956 455.739 558.968 455.715 558.982 455.68C559.082 455.473 559.175 455.262 559.266 455.057C559.266 455.052 559.269 455.043 559.275 455.037C560.623 452.226 566.028 442.73 572.204 455.753H572.201Z" stroke="#0000FF" stroke-width="4.00055" stroke-linecap="round" stroke-linejoin="round"/>
<path d="M558.979 455.68C559.023 455.572 559.12 455.353 559.263 455.057C559.172 455.262 559.079 455.473 558.979 455.68Z" stroke="#0000FF" stroke-width="4.00055" stroke-linecap="round" stroke-linejoin="round"/>
<path d="M572.201 455.753C566.025 442.73 560.62 452.226 559.272 455.037C561.468 449.963 561.535 445.646 555.42 445.634C548.088 445.619 540.862 444.698 534.091 443.294C539.935 432.333 550.466 426.194 559.699 429.171C562.322 430.019 564.597 431.523 566.475 433.526C571.239 438.603 573.438 446.88 572.201 455.753Z" fill="#0000FF" stroke="#0000FF" stroke-width="4.00055" stroke-linecap="round" stroke-linejoin="round"/>
<path d="M488.682 538.961C488.682 538.961 488.673 538.931 488.656 538.87" stroke="#0000FF" stroke-width="4.00055" stroke-linecap="round" stroke-linejoin="round"/>
<path d="M547.79 483.079C566.773 491.575 566.475 520.535 566.475 520.535" stroke="#0000FF" stroke-width="4.00055" stroke-linecap="round" stroke-linejoin="round"/>
<path d="M595.273 442.443C590.436 498.474 574.085 538.96 574.085 538.96C555.081 546.857 505.352 539.838 495.821 538.96C492.811 538.682 490.466 538.492 488.656 538.869C488.106 536.887 479.206 502.773 514.125 486.024C524.452 481.631 532.74 480.265 539.397 480.914C542.546 481.218 545.328 481.976 547.787 483.079C557.181 482.818 566.756 474.439 570.739 462.085C571.423 459.965 571.906 457.842 572.198 455.753C572.198 455.753 581.797 433.623 595.27 442.443H595.273Z" stroke="#0000FF" stroke-width="4.00055" stroke-linecap="round" stroke-linejoin="round"/>
<path d="M612.736 470.763C609.258 492.666 603.781 520.339 596.595 534.573C581.387 564.697 581.387 560.31 562.963 561.188C544.538 562.065 482.83 570.254 483.122 554.168C483.321 543.163 484.731 539.685 488.653 538.869C490.463 538.492 492.808 538.682 495.818 538.96C505.349 539.838 555.078 546.857 574.082 538.96C574.082 538.96 590.433 498.474 595.27 442.443C600.605 445.935 606.544 454.279 612.736 470.763Z" stroke="#0000FF" stroke-width="4.00055" stroke-linecap="round" stroke-linejoin="round"/>
<path d="M615.932 448.418C615.204 454.11 614.131 461.971 612.736 470.763C606.544 454.279 600.605 445.935 595.27 442.443C581.797 433.622 572.198 455.753 572.198 455.753C573.436 446.88 571.236 438.603 566.472 433.526C566.472 433.526 578.463 417.002 606.831 432.21L609.484 434.029C614.163 437.237 616.655 442.791 615.932 448.418Z" fill="#0000FF" stroke="#0000FF" stroke-width="4.00055" stroke-linecap="round" stroke-linejoin="round"/>
<path d="M543.889 330.569C543.786 331.142 543.681 331.71 543.573 332.271C543.558 332.35 543.544 332.429 543.529 332.508C543.278 333.795 543.011 335.044 542.731 336.255C542.541 337.085 542.342 337.898 542.14 338.691C542.09 338.89 542.038 339.086 541.988 339.282C541.847 339.828 541.701 340.364 541.558 340.89C541.529 340.984 541.502 341.077 541.479 341.171C541.388 341.493 541.295 341.811 541.204 342.127C540.4 344.876 539.549 347.333 538.692 349.442C536.569 354.668 533.627 358.845 530.486 361.793C530.041 361.035 529.556 360.266 529.038 359.497C528.965 359.386 528.892 359.278 528.816 359.166C528.655 358.935 528.494 358.701 528.327 358.47C528.245 358.35 528.158 358.23 528.07 358.108C527.736 357.646 527.391 357.183 527.035 356.727C526.926 356.584 526.815 356.444 526.704 356.303C526.333 355.835 525.95 355.376 525.561 354.92C525.435 354.771 525.309 354.624 525.177 354.478C521.949 350.802 518.129 347.634 514.316 346.269C517.837 329.788 526.994 309.374 526.994 309.374C490.729 268.429 509.022 235.921 509.022 235.921C512.985 222.716 529.015 249.91 529.015 249.91C546.81 275.085 547.884 306.25 544.225 328.618C544.225 328.63 544.222 328.645 544.219 328.659C544.123 329.253 544.02 329.841 543.918 330.423C543.909 330.472 543.901 330.519 543.892 330.569H543.889Z" stroke="#0000FF" stroke-width="4.00055" stroke-linecap="round" stroke-linejoin="round"/>
<path d="M502.135 360.849C502.135 360.849 502.135 360.845 502.132 360.842" stroke="#0000FF" stroke-width="4.00055" stroke-linecap="round" stroke-linejoin="round"/>
<path d="M517.144 381.839L517.141 381.83" stroke="#0000FF" stroke-width="4.00055" stroke-linecap="round" stroke-linejoin="round"/>
<path d="M458.673 376.67C464.469 370.783 473.462 368.987 473.462 368.987" stroke="#0000FF" stroke-width="4.00055" stroke-linecap="round" stroke-linejoin="round"/>
<path d="M533.819 371.693C533.811 371.424 533.799 371.149 533.784 370.874C533.77 370.596 533.749 370.318 533.729 370.037C533.726 369.993 533.723 369.955 533.72 369.915C533.562 367.946 532.369 364.984 530.485 361.793C530.041 361.035 529.555 360.266 529.038 359.497C528.962 359.386 528.889 359.278 528.816 359.166C528.655 358.935 528.494 358.701 528.327 358.47C528.242 358.35 528.158 358.228 528.07 358.108C527.736 357.646 527.391 357.183 527.035 356.727C526.923 356.584 526.815 356.444 526.704 356.303C526.333 355.835 525.95 355.376 525.561 354.92C525.435 354.774 525.306 354.624 525.177 354.478C521.949 350.802 518.129 347.634 514.316 346.269C511.856 345.388 509.399 345.26 507.107 346.225C498.824 349.714 500.126 356.125 501.325 359.163C499.801 356.724 495.677 352.533 485.465 352.951C471.199 353.534 451.56 359.003 458.673 376.671C455.977 379.405 453.973 383.023 453.88 387.755C453.637 400.173 461.908 397.184 464.683 395.839C464.37 396.392 464.086 396.965 463.829 397.556C462.247 401.176 461.735 405.499 463.668 410.366C463.671 410.377 463.677 410.386 463.683 410.398C463.756 410.582 463.835 410.763 463.914 410.942C463.993 411.117 464.078 411.293 464.162 411.462C464.25 411.635 464.338 411.802 464.431 411.965C464.519 412.12 464.607 412.272 464.7 412.422C464.739 412.486 464.779 412.55 464.826 412.615C464.984 412.869 465.157 413.115 465.335 413.349C465.446 413.492 465.557 413.632 465.671 413.77C465.786 413.907 465.9 414.042 466.019 414.173C466.136 414.305 466.259 414.431 466.382 414.557C466.505 414.679 466.631 414.802 466.759 414.919C466.888 415.039 467.017 415.153 467.148 415.264C467.414 415.49 467.686 415.7 467.967 415.902C468.108 416.001 468.251 416.098 468.394 416.192C469.397 416.847 470.488 417.356 471.635 417.736C471.757 417.78 471.883 417.818 472.009 417.856C472.263 417.932 472.518 418.002 472.775 418.066C473.068 418.142 473.366 418.207 473.664 418.265C473.887 418.309 474.109 418.347 474.331 418.382C474.586 418.423 474.84 418.455 475.094 418.484C484.435 419.546 494.99 413.673 491.367 406.95C494.984 407.35 499.883 407.052 506.229 405.011C518.211 401.159 518.501 390.533 517.793 385.111C517.547 383.213 517.176 381.952 517.144 381.838C517.217 381.961 518.024 383.312 519.67 384.339C521.182 385.278 523.402 385.942 526.409 385.123C530.272 384.067 532.343 381.435 533.252 377.914C533.662 376.337 533.837 374.582 533.837 372.711C533.837 372.374 533.831 372.035 533.819 371.693ZM502.132 360.842C502.088 360.772 501.714 360.146 501.328 359.166C501.91 360.096 502.114 360.775 502.132 360.842Z" stroke="#0000FF" stroke-width="4.00055" stroke-linecap="round" stroke-linejoin="round"/>
<path d="M491.367 406.95C491.344 406.903 491.317 406.856 491.291 406.809" stroke="#0000FF" stroke-width="4.00055" stroke-linecap="round" stroke-linejoin="round"/>
<path d="M475.229 385.398C475.229 385.398 468.356 389.249 464.683 395.839" stroke="#0000FF" stroke-width="4.00055" stroke-linecap="round" stroke-linejoin="round"/>
<path d="M703.929 196.774C690.769 253.22 647.412 304.598 601.386 309.766C608.586 296.658 613.125 284.532 615.608 275.448C617.298 269.262 619.193 261.769 621.194 253.288C621.202 253.247 621.214 253.206 621.223 253.162C625.2 251.588 664.498 234.93 670.882 188.293C677.585 139.337 671.476 118.367 643.099 131.902C644.862 117.46 646.19 103.402 646.88 90.3926C649.822 89.1584 670.613 80.984 683.688 90.5418C697.788 100.845 717.09 140.328 703.929 196.774Z" stroke="#0000FF" stroke-width="4.00055" stroke-linecap="round" stroke-linejoin="round"/>
<path d="M238.392 232.034C225.413 231.236 197.092 228.065 171.949 215.492C171.432 215.232 170.914 214.972 170.396 214.708C157.058 207.891 144.491 199.567 134.223 192.042C132.164 190.533 130.201 189.056 128.341 187.632C132.015 183.561 135.764 178.261 138.361 173.003C156.701 186.784 196.153 212.199 235.482 210.161C235.839 213.755 236.257 217.352 236.731 220.95C236.734 220.953 236.734 220.956 236.734 220.958C236.854 221.883 236.983 222.807 237.111 223.731C237.176 224.193 237.243 224.655 237.31 225.114C237.378 225.576 237.445 226.039 237.515 226.501C237.565 226.828 237.612 227.156 237.664 227.483C237.685 227.635 237.708 227.788 237.731 227.937C237.872 228.843 238.015 229.747 238.164 230.651C238.237 231.113 238.313 231.572 238.392 232.034Z" stroke="#0000FF" stroke-width="4.00055" stroke-linecap="round" stroke-linejoin="round"/>
<path d="M138.364 173.003C135.767 178.261 132.017 183.561 128.344 187.632C125.121 191.206 121.96 193.832 119.69 194.663C119.623 194.689 119.556 194.712 119.492 194.733C119.433 194.753 119.378 194.771 119.322 194.789C118.866 194.92 118.448 194.97 118.082 194.932C110.829 194.142 107.671 189.17 108.665 182.736C108.665 182.736 108.639 182.765 108.583 182.824C107.633 183.83 98.2242 193.121 79.8346 187.07C79.8434 187.064 79.8551 187.062 79.8638 187.056C81.5923 186.219 82.6802 184.786 82.7533 182.736C82.8966 178.758 82.338 176.179 81.7297 174.582C81.3378 173.558 80.9284 172.938 80.6623 172.605C84.3501 171.192 86.0405 167.39 83.6248 161.868C79.624 161.602 75.0968 159.748 70.944 155.39C68.9465 152.223 67.5719 149.485 66.7121 147.125C62.9277 136.766 69.005 133.637 75.5531 132.985C78.0009 137.877 78.074 143.545 78.074 143.545C80.1212 149.395 87.5116 147.122 87.5116 147.122C87.5116 147.122 87.2922 140.375 85.1573 133.353C86.6137 133.569 87.5291 133.771 87.5291 133.771C78.1267 121.362 78.6589 111.83 81.3232 105.548C82.6685 102.375 87.3069 102.969 87.8771 106.37C88.8744 112.336 92.3897 119.16 102.933 120.733C120.913 123.418 125.455 148.222 126.081 152.29C128.727 150.998 132.401 150.866 137.443 153.489C143.648 156.718 142.405 164.814 138.364 173.003Z" stroke="#0000FF" stroke-width="4.00055" stroke-linecap="round" stroke-linejoin="round"/>
<path d="M119.723 161.418C119.723 161.418 121.05 154.75 126.081 152.29" stroke="#0000FF" stroke-width="4.00055" stroke-linecap="round" stroke-linejoin="round"/>
<path d="M93.8988 151.392C97.8528 156.279 91.8457 162.418 83.6248 161.868" stroke="#0000FF" stroke-width="4.00055" stroke-linecap="round" stroke-linejoin="round"/>
<path d="M82.6831 182.692C82.6042 184.754 81.5016 186.19 79.7556 187.021C79.7907 187.032 79.8288 187.044 79.8639 187.056C79.8551 187.062 79.8434 187.064 79.8346 187.07C74.0264 189.837 61.0619 185.871 54.97 175.717C47.0737 162.556 58.9591 161.904 58.9591 161.904C59.6639 163.167 60.6905 164.507 62.1059 165.919C68.7096 172.505 76.1701 174.33 80.6623 172.605C80.9284 172.938 81.3378 173.558 81.7297 174.582C81.7122 174.567 81.6917 174.553 81.6742 174.535C82.2825 176.135 82.8323 178.712 82.6831 182.692Z" stroke="#0000FF" stroke-width="4.00055" stroke-linecap="round" stroke-linejoin="round"/>
<path d="M87.5116 147.122C87.5116 147.122 80.1212 149.395 78.074 143.545C78.074 143.545 78.0009 137.877 75.553 132.984C73.3742 128.624 69.3179 124.874 61.755 126.287C66.1886 124.003 68.9757 121.049 69.2711 117.805C78.267 117.808 82.8381 125.743 85.1573 133.353C87.2922 140.375 87.5116 147.122 87.5116 147.122Z" fill="#0000FF" stroke="#0000FF" stroke-width="4.00055" stroke-linecap="round" stroke-linejoin="round"/>
<path d="M69.3004 117.223C69.3004 117.419 69.2916 117.612 69.2711 117.805C68.9757 121.049 66.1886 124.003 61.755 126.287C56.1808 129.156 48.0008 130.969 38.885 130.969C22.0863 130.969 8.46957 124.816 8.46957 117.223C8.46957 109.631 22.0863 103.478 38.885 103.478C55.6836 103.478 69.3004 109.631 69.3004 117.223Z" stroke="#0000FF" stroke-width="4.00055" stroke-linecap="round" stroke-linejoin="round"/>
<path d="M80.6622 172.605C76.1701 174.33 68.7096 172.505 62.1059 165.919C60.6904 164.507 59.6639 163.167 58.9591 161.904C53.651 152.384 66.5454 147.19 66.7121 147.125C67.5719 149.485 68.9465 152.223 70.9439 155.39C75.0968 159.748 79.624 161.602 83.6248 161.868C86.0405 167.39 84.3501 171.192 80.6622 172.605Z" stroke="#0000FF" stroke-width="4.00055" stroke-linecap="round" stroke-linejoin="round"/>
<path d="M66.7121 147.125C66.5454 147.19 53.651 152.384 58.9591 161.904C58.9591 161.904 47.0737 162.556 54.97 175.717C54.97 175.717 35.9604 186.538 16.9507 171.622C-2.05888 156.706 8.46953 117.223 8.46953 117.223C8.46953 124.816 22.0863 130.969 38.8849 130.969C48.0008 130.969 56.1808 129.156 61.755 126.287C69.3179 124.874 73.3742 128.624 75.553 132.985C69.0049 133.637 62.9277 136.766 66.7121 147.125Z" stroke="#0000FF" stroke-width="4.00055" stroke-linecap="round" stroke-linejoin="round"/>
<path d="M559.272 455.037C559.272 455.037 559.263 455.052 559.263 455.057C559.12 455.353 559.023 455.572 558.979 455.68C558.965 455.715 558.953 455.739 558.95 455.748C558.947 455.751 558.947 455.753 558.947 455.753C558.836 455.996 558.719 456.239 558.599 456.482C535.685 456.376 511.859 458.035 491.334 447.523C491.346 447.497 491.361 447.471 491.372 447.444C491.519 447.137 491.662 446.827 491.802 446.52C491.949 446.201 492.089 445.883 492.226 445.567C492.244 445.529 492.262 445.491 492.276 445.453C492.399 445.172 492.516 444.891 492.633 444.613C492.665 444.534 492.697 444.455 492.729 444.379C492.849 444.09 492.966 443.8 493.077 443.511C493.513 442.402 493.902 441.309 494.244 440.247C494.312 440.036 494.376 439.829 494.44 439.621C495.976 434.614 496.347 430.435 494.964 429.101C498.473 430.999 514.362 439.203 534.091 443.294C540.862 444.698 548.088 445.619 555.42 445.634C561.536 445.646 561.468 449.963 559.272 455.037Z" fill="#0000FF" stroke="#0000FF" stroke-width="4.00055" stroke-linecap="round" stroke-linejoin="round"/>
<path d="M386.024 391.604L380.891 401.767C371.758 400.504 361.92 401.51 352.497 401.697L359.805 384.915C362.356 385.711 364.956 386.462 367.605 387.17C373.893 388.852 380.032 390.326 386.024 391.604Z" fill="#0000FF" stroke="#0000FF" stroke-width="4.00055" stroke-linecap="round" stroke-linejoin="round"/>
<path d="M494.437 439.621C494.373 439.829 494.309 440.036 494.241 440.247C493.899 441.309 493.51 442.402 493.075 443.511C492.96 443.8 492.846 444.087 492.727 444.379C492.694 444.455 492.662 444.534 492.63 444.613C492.513 444.891 492.396 445.172 492.273 445.453C492.259 445.491 492.241 445.529 492.223 445.567C492.086 445.883 491.946 446.201 491.799 446.52C491.659 446.827 491.516 447.137 491.37 447.444C491.358 447.471 491.343 447.497 491.331 447.523C490.79 448.652 490.211 449.775 489.6 450.869C460.741 436.69 436.277 409.38 435.092 376.694C435.121 376.632 435.151 376.577 435.183 376.521C435.215 376.46 435.25 376.396 435.282 376.334C435.484 375.957 435.689 375.588 435.896 375.237C436.069 374.942 436.245 374.658 436.423 374.386C436.812 373.784 437.21 373.24 437.613 372.772C437.721 372.646 437.833 372.523 437.941 372.409C438.052 372.292 438.163 372.181 438.274 372.082C438.347 372.014 438.417 371.95 438.491 371.889C438.529 371.857 438.567 371.824 438.605 371.795C438.681 371.737 438.754 371.681 438.827 371.628C438.865 371.602 438.903 371.576 438.938 371.552C438.976 371.526 439.011 371.503 439.049 371.479C439.096 371.45 439.146 371.421 439.195 371.394C439.257 371.359 439.318 371.327 439.383 371.298C439.432 371.272 439.482 371.251 439.535 371.231C439.581 371.21 439.628 371.193 439.675 371.178C439.695 371.169 439.716 371.16 439.739 371.158C439.78 371.143 439.821 371.131 439.862 371.12C439.929 371.102 440 371.087 440.07 371.079C440.117 371.07 440.163 371.064 440.21 371.061C440.269 371.055 440.324 371.052 440.38 371.052C442.731 371.052 444.957 375.375 446.346 388.34C446.72 391.835 447.489 395.146 448.583 398.272C454.078 414.042 467.739 425.205 480.069 432.435C485.351 435.535 490.39 437.913 494.437 439.621Z" fill="#0000FF" stroke="#0000FF" stroke-width="4.00055" stroke-linecap="round" stroke-linejoin="round"/>
<path d="M543.57 332.271C543.555 332.35 543.541 332.429 543.526 332.508C543.272 333.795 543.006 335.044 542.728 336.255C542.535 337.085 542.339 337.898 542.137 338.691C542.087 338.89 542.035 339.086 541.985 339.282C541.842 339.828 541.698 340.364 541.555 340.89C541.526 340.984 541.499 341.077 541.476 341.171C541.382 341.493 541.292 341.811 541.201 342.127C540.397 344.876 539.546 347.333 538.689 349.442C536.566 354.668 533.624 358.845 530.483 361.793C530.038 361.035 529.553 360.266 529.035 359.497C528.959 359.386 528.886 359.278 528.813 359.166C528.652 358.935 528.491 358.701 528.324 358.47C528.239 358.35 528.155 358.228 528.067 358.108C527.733 357.646 527.388 357.183 527.032 356.727C526.92 356.584 526.812 356.444 526.701 356.303C526.33 355.835 525.947 355.376 525.558 354.92C525.432 354.774 525.303 354.624 525.174 354.478C534.434 343.136 536.574 327.545 539.566 312.591C540.514 307.853 542.573 303.288 545.643 299.535C546.445 311.48 545.404 322.819 543.57 332.271Z" fill="#0000FF" stroke="#0000FF" stroke-width="4.00055" stroke-linecap="round" stroke-linejoin="round"/>
<path d="M533.834 372.711C533.834 374.582 533.659 376.337 533.249 377.914C532.34 381.435 530.269 384.067 526.406 385.123C523.399 385.942 521.18 385.278 519.668 384.339C518.021 383.312 517.214 381.961 517.141 381.838C517.173 381.952 517.544 383.213 517.79 385.111C518.498 390.533 518.208 401.159 506.226 405.011C499.88 407.052 494.981 407.35 491.364 406.95C494.987 413.673 484.432 419.546 475.091 418.484C474.834 418.455 474.583 418.423 474.328 418.382C474.106 418.347 473.884 418.309 473.661 418.265C473.363 418.207 473.065 418.142 472.772 418.066C472.515 418.002 472.26 417.932 472.006 417.856C471.88 417.818 471.755 417.78 471.632 417.736C470.485 417.356 469.394 416.847 468.391 416.192C468.248 416.098 468.105 416.001 467.964 415.902C467.684 415.7 467.412 415.49 467.145 415.264C467.014 415.153 466.885 415.039 466.756 414.919C466.628 414.802 466.502 414.679 466.379 414.557C466.256 414.431 466.133 414.305 466.016 414.174C465.897 414.042 465.783 413.907 465.668 413.77C465.554 413.632 465.443 413.492 465.332 413.349C465.154 413.115 464.984 412.869 464.823 412.615C464.776 412.55 464.736 412.486 464.698 412.422C464.604 412.272 464.516 412.12 464.428 411.965C464.335 411.802 464.247 411.635 464.159 411.462C464.075 411.293 463.99 411.117 463.911 410.942C463.832 410.763 463.753 410.582 463.68 410.398C468.33 413.823 474.161 415.095 480.198 414.369C485.754 413.492 488.386 407.35 486.047 402.671C496.868 402.963 508.858 397.991 515 388.34C516.755 385.708 516.462 382.491 516.755 379.273C522.019 381.028 527.868 380.151 531.67 375.764C533.001 374.032 533.483 372.061 533.726 370.037C533.746 370.318 533.767 370.596 533.781 370.874C533.796 371.149 533.808 371.424 533.817 371.693C533.828 372.035 533.834 372.374 533.834 372.711Z" fill="#0000FF" stroke="#0000FF" stroke-width="4.00055" stroke-linecap="round" stroke-linejoin="round"/>
<path d="M517.632 36.5027C452.894 52.1672 388.013 67.6153 321.687 73.646C321.187 73.6635 320.684 73.6752 320.184 73.6899C353.269 81.6508 397.775 87.5615 446.869 89.6702C543.146 93.8057 623.089 81.8614 634.26 62.5703C615.178 48.8945 595.15 38.6114 571.444 34.4555C553.019 31.2383 535.764 32.1157 517.632 36.5027Z" fill="#0000FF" stroke="#0000FF" stroke-width="4.00055" stroke-linecap="round" stroke-linejoin="round"/>
<path d="M374.25 421.225C364.47 437.439 354.342 453.405 342.618 468.212C343.647 469.476 344.583 470.731 345.428 471.968C347.37 474.813 348.841 477.592 349.926 480.28C359.282 465.083 377.005 436.044 378.718 431.33C380.04 427.697 379.216 424.348 374.25 421.222V421.225Z" fill="#0000FF" stroke="#0000FF" stroke-width="4.00055" stroke-linecap="round" stroke-linejoin="round"/>
<path d="M349.926 480.283C349.277 478.674 348.484 477.033 347.543 475.363C347.537 485.483 345.522 496.26 333.68 496.26C338.36 500.062 338.067 506.789 336.605 512.053C334.239 519.151 330.922 526.013 326.027 531.789C328.29 536.454 329.747 541.426 329.837 546.652C333.92 539.735 337.456 532.043 341.284 525.214C343.407 521.427 344.539 518.017 344.975 514.969C347.277 512.094 357.179 498.22 349.926 480.283Z" fill="#0000FF" stroke="#0000FF" stroke-width="4.00055" stroke-linecap="round" stroke-linejoin="round"/>
<path d="M325.135 530.049C323.886 534.216 321.494 538.018 318.563 541.423C321.511 547.497 322.523 553.967 319.411 560.182C323.427 556.558 326.784 551.823 329.835 546.652C329.732 540.768 327.898 535.211 325.135 530.049Z" fill="#0000FF" stroke="#0000FF" stroke-width="4.00055" stroke-linecap="round" stroke-linejoin="round"/>
<path d="M190.064 212.035C168.978 206.452 148.892 197.084 131.099 184.459C130.277 185.523 129.459 186.591 128.637 187.655C141.952 198.45 156.622 207.827 171.949 215.492C197.092 228.065 225.413 231.236 238.392 232.034C237.772 228.349 237.223 224.655 236.734 220.958C236.351 218.063 221.19 217.338 219.064 217.08C209.524 215.919 200.198 214.673 190.865 212.246C190.599 212.176 190.33 212.105 190.064 212.035Z" fill="#0000FF" stroke="#0000FF" stroke-width="4.00055" stroke-linecap="round" stroke-linejoin="round"/>
<path d="M134.442 179.721C132.509 182.619 130.374 185.354 128.262 187.685C125.08 191.203 121.954 193.8 119.69 194.663C119.623 194.689 119.556 194.712 119.492 194.733C118.927 194.929 118.421 195.008 117.985 194.961C110.762 194.16 107.612 189.217 108.583 182.824C108.586 182.797 108.592 182.774 108.595 182.748C108.595 182.748 99.201 193.411 79.8639 187.056C79.8288 187.044 79.7907 187.032 79.7556 187.021C81.5016 186.19 82.6042 184.754 82.6831 182.692C82.8323 178.712 82.2825 176.135 81.6742 174.535C81.6917 174.553 81.7122 174.567 81.7297 174.582C88.5147 180.551 99.1133 181.23 108.13 180.99C115.798 189.159 126.639 185.836 134.442 179.721Z" fill="#0000FF" stroke="#0000FF" stroke-width="4.00055" stroke-linecap="round" stroke-linejoin="round"/>
<path d="M75.553 132.985C74.3569 130.589 72.5905 128.381 69.9905 127.109C57.4617 133.49 47.9072 145.148 44.4416 158.754C42.7336 165.583 42.874 172.412 43.2601 179.241C50.2936 178.378 54.97 175.717 54.97 175.717C47.0737 162.556 58.9591 161.904 58.9591 161.904C53.651 152.384 66.5454 147.19 66.7121 147.125C62.9277 136.766 69.0049 133.637 75.553 132.985Z" fill="#0000FF" stroke="#0000FF" stroke-width="4.00055" stroke-linecap="round" stroke-linejoin="round"/>
<path d="M64.5713 109.859C62.3808 112.638 59.5966 114.971 56.4323 116.639C50.8756 119.563 44.4416 118.978 38.0076 118.101C28.4852 117.013 17.9539 115.928 9.4668 120.724C12.8944 126.62 24.7652 130.969 38.8849 130.969C48.0008 130.969 56.1808 129.156 61.755 126.287C66.1886 124.003 68.9757 121.049 69.2711 117.805C69.2915 117.612 69.3003 117.419 69.3003 117.223C69.3003 114.515 67.5661 111.988 64.5713 109.859Z" fill="#0000FF" stroke="#0000FF" stroke-width="4.00055" stroke-linecap="round" stroke-linejoin="round"/>
<path d="M606.463 456.531C606.471 462.343 606.53 468.136 605.661 474.033C604.784 481.344 604.199 488.363 603.029 495.675C598.935 515.563 593.378 533.111 581.387 550.366C581.095 550.951 581.387 551.829 581.387 551.829C548.805 552.934 515.178 559.509 483.219 551.133C483.175 552.074 483.143 553.083 483.122 554.168C482.83 570.254 544.538 562.065 562.963 561.188C581.387 560.31 581.387 564.697 596.595 534.573C603.781 520.339 609.258 492.666 612.736 470.763C610.61 465.104 608.513 460.404 606.463 456.531Z" fill="#0000FF" stroke="#0000FF" stroke-width="4.00055" stroke-linecap="round" stroke-linejoin="round"/>
<path d="M641.051 245.909C641.604 243.806 642.198 241.788 642.692 239.79C632.479 248.468 623.062 252.434 621.22 253.162C621.211 253.206 621.199 253.247 621.191 253.288C619.19 261.769 617.295 269.262 615.605 275.448C613.122 284.532 608.583 296.658 601.383 309.766C621.933 307.458 641.952 295.938 658.991 278.867C655.888 278.244 652.954 276.989 650.407 274.57C642.511 267.259 638.709 256.73 641.048 245.909H641.051Z" fill="#0000FF" stroke="#0000FF" stroke-width="4.00055" stroke-linecap="round" stroke-linejoin="round"/>
<path d="M690.479 97.3913C688.183 94.4374 685.873 92.1357 683.688 90.5388C670.613 80.981 649.822 89.1555 646.88 90.3897C646.19 103.399 644.862 117.457 643.099 131.899C656.262 125.62 664.632 126.772 669.156 134.695C671.315 134.426 673.4 133.8 675.269 132.429C686.204 123.886 690.748 110.652 690.479 97.3913Z" fill="#0000FF" stroke="#0000FF" stroke-width="4.00055" stroke-linecap="round" stroke-linejoin="round"/>
<path d="M647.216 61.9415C647.216 61.9649 647.213 61.9853 647.213 62.0087C646.605 76.2197 619.456 87.8189 577.03 94.6422C577.653 95.1861 578.244 95.7711 578.758 96.4584C583.783 103.156 590.018 110.099 593.744 117.612C597.449 125.085 599.128 134.441 600.836 142.557C604.427 159.608 605.752 177.126 604.889 194.525C603.921 214.065 600.189 233.47 593.785 251.957C587.394 270.394 577.287 286.863 568.973 304.335C561.547 319.941 552.466 337.617 551.267 354.999C550.975 359.049 550.715 363.147 550.58 367.256C574.521 350.349 590.822 329.004 601.386 309.766C608.586 296.658 613.125 284.532 615.608 275.448C617.298 269.262 619.193 261.769 621.194 253.288C621.202 253.247 621.214 253.206 621.223 253.162C628.786 221.061 637.843 174.886 643.081 132.052C643.087 132.002 643.093 131.952 643.099 131.902C644.862 117.46 646.19 103.402 646.88 90.3926C647.421 80.1475 647.567 70.5546 647.216 61.9415Z" fill="#0000FF" stroke="#0000FF" stroke-width="4.00055" stroke-linecap="round" stroke-linejoin="round"/>
</g>
<defs>
<clipPath id="clip0_10_24">
<rect width="713.893" height="584" fill="white"/>
</clipPath>
</defs>
</svg>
