<svg width="57" height="59" viewBox="0 0 57 59" fill="none" xmlns="http://www.w3.org/2000/svg">
<g clip-path="url(#clip0_88_284)">
<path d="M57 29.6776C57 13.5608 44.2391 0.496338 28.5 0.496338C12.7537 0.499963 -0.00712585 13.5608 -0.00712585 29.6812C-0.00712585 44.2428 10.4167 56.3141 24.0397 58.5036V38.113H16.8079V29.6812H24.0469V23.2468C24.0469 15.9352 28.3041 11.897 34.8127 11.897C37.9335 11.897 41.1932 12.4661 41.1932 12.4661V19.6436H37.5986C34.0611 19.6436 32.9567 21.8947 32.9567 24.2038V29.6776H40.8583L39.5972 38.1093H32.9531V58.5C46.5761 56.3105 57 44.2392 57 29.6776Z" fill="#0000FF"/>
</g>
<defs>
<clipPath id="clip0_88_284">
<rect width="57" height="58" fill="white" transform="translate(0 0.5)"/>
</clipPath>
</defs>
</svg>
