<svg width="57" height="59" viewBox="0 0 57 59" fill="none" xmlns="http://www.w3.org/2000/svg">
<g clip-path="url(#clip0_88_288)">
<path d="M28.5 0.5C20.7658 0.5 19.7933 0.53625 16.7544 0.674C13.7156 0.819 11.6458 1.30475 9.8325 2.0225C7.93046 2.75047 6.20763 3.89237 4.78444 5.36838C3.33477 6.81727 2.21269 8.57012 1.49625 10.505C0.790875 12.3465 0.309938 14.4562 0.171 17.5375C0.035625 20.6369 0 21.6229 0 29.5036C0 37.3771 0.035625 38.3631 0.171 41.4552C0.3135 44.5438 0.790875 46.6499 1.49625 48.495C2.22656 50.4017 3.19913 52.0185 4.78444 53.6316C6.36619 55.2447 7.95506 56.238 9.82894 56.9775C11.6458 57.6953 13.7121 58.1846 16.7473 58.326C19.7897 58.4637 20.7587 58.5 28.5 58.5C36.2413 58.5 37.2068 58.4637 40.2491 58.326C43.2808 58.181 45.3577 57.6953 47.1711 56.9775C49.0719 56.2492 50.7935 55.1073 52.2156 53.6316C53.8009 52.0185 54.7734 50.4017 55.5037 48.495C56.2056 46.6499 56.6865 44.5438 56.829 41.4552C56.9644 38.3631 57 37.3771 57 29.5C57 21.6229 56.9644 20.6369 56.829 17.5411C56.6865 14.4563 56.2056 12.3465 55.5037 10.505C54.7874 8.57007 53.6653 6.8172 52.2156 5.36838C50.7928 3.89182 49.0699 2.74984 47.1675 2.0225C45.3506 1.30475 43.2772 0.815375 40.2456 0.674C37.2032 0.53625 36.2378 0.5 28.4929 0.5H28.5036H28.5ZM25.9457 5.72725H28.5036C36.1131 5.72725 37.0144 5.75262 40.0176 5.894C42.7963 6.02087 44.3068 6.49575 45.3114 6.89087C46.6403 7.4165 47.5914 8.04725 48.5889 9.06225C49.5864 10.0772 50.2028 11.0415 50.7193 12.3973C51.1112 13.4159 51.5743 14.9529 51.699 17.7804C51.8379 20.8363 51.8664 21.7534 51.8664 29.4928C51.8664 37.2321 51.8379 38.1529 51.699 41.2087C51.5743 44.0362 51.1076 45.5696 50.7193 46.5919C50.2624 47.8511 49.5331 48.9896 48.5854 49.9232C47.5879 50.9382 46.6403 51.5654 45.3079 52.091C44.3104 52.4897 42.7999 52.961 40.0176 53.0915C37.0144 53.2293 36.1131 53.2619 28.5036 53.2619C20.8941 53.2619 19.9892 53.2293 16.986 53.0915C14.2073 52.961 12.7003 52.4897 11.6957 52.091C10.4577 51.6267 9.33776 50.886 8.41819 49.9232C7.46967 48.9881 6.73926 47.8485 6.28069 46.5882C5.89237 45.5696 5.42569 44.0326 5.301 41.2051C5.16563 38.1493 5.13713 37.2321 5.13713 29.4855C5.13713 21.7425 5.16563 20.829 5.301 17.7731C5.42925 14.9456 5.89237 13.4086 6.28425 12.3864C6.80081 11.0343 7.42069 10.0664 8.41819 9.05137C9.41569 8.03638 10.3633 7.40925 11.6957 6.88363C12.7003 6.48488 14.2073 6.01363 16.986 5.88312C19.6151 5.75987 20.634 5.72363 25.9457 5.72V5.72725ZM43.7154 10.5413C43.2663 10.5413 42.8216 10.6313 42.4067 10.8061C41.9917 10.981 41.6147 11.2374 41.2971 11.5605C40.9796 11.8837 40.7276 12.2673 40.5558 12.6895C40.3839 13.1117 40.2954 13.5642 40.2954 14.0212C40.2954 14.4783 40.3839 14.9308 40.5558 15.353C40.7276 15.7752 40.9796 16.1588 41.2971 16.482C41.6147 16.8051 41.9917 17.0615 42.4067 17.2364C42.8216 17.4112 43.2663 17.5012 43.7154 17.5012C44.6225 17.5012 45.4924 17.1346 46.1337 16.482C46.7751 15.8294 47.1354 14.9442 47.1354 14.0212C47.1354 13.0983 46.7751 12.2131 46.1337 11.5605C45.4924 10.9079 44.6225 10.5413 43.7154 10.5413ZM28.5036 14.6085C26.5623 14.5777 24.6343 14.9401 22.832 15.6748C21.0297 16.4094 19.389 17.5015 18.0054 18.8875C16.6219 20.2736 15.5231 21.9258 14.7731 23.7481C14.0231 25.5703 13.6369 27.5262 13.6369 29.5018C13.6369 31.4774 14.0231 33.4333 14.7731 35.2556C15.5231 37.0778 16.6219 38.7301 18.0054 40.1161C19.389 41.5021 21.0297 42.5942 22.832 43.3289C24.6343 44.0635 26.5623 44.4259 28.5036 44.3951C32.3459 44.3341 36.0105 42.7382 38.7065 39.9518C41.4025 37.1654 42.9135 33.412 42.9135 29.5018C42.9135 25.5916 41.4025 21.8382 38.7065 19.0518C36.0105 16.2654 32.3459 14.6695 28.5036 14.6085ZM28.5036 19.8321C31.0234 19.8321 33.4401 20.8507 35.2219 22.6638C37.0037 24.4769 38.0047 26.9359 38.0047 29.5C38.0047 32.0641 37.0037 34.5231 35.2219 36.3362C33.4401 38.1493 31.0234 39.1679 28.5036 39.1679C25.9837 39.1679 23.567 38.1493 21.7852 36.3362C20.0034 34.5231 19.0024 32.0641 19.0024 29.5C19.0024 26.9359 20.0034 24.4769 21.7852 22.6638C23.567 20.8507 25.9837 19.8321 28.5036 19.8321Z" fill="#0000FF"/>
</g>
<defs>
<clipPath id="clip0_88_288">
<rect width="57" height="58" fill="white" transform="translate(0 0.5)"/>
</clipPath>
</defs>
</svg>
