<svg width="93" height="107" viewBox="0 0 93 107" fill="none" xmlns="http://www.w3.org/2000/svg">
<path d="M47.0055 5.35442C34.8002 6.38004 26.0055 8.60101 14.4447 19.3213C-4.80304 37.1733 11.8914 64.9578 12.0085 65.1302C11.302 67.5436 11.4291 70.847 12.9688 75.2617C16.3152 84.85 22.6714 86.1766 27.2514 85.6879C34.2189 98.335 47.1707 99.9892 54.5073 99.9549C60.709 99.925 66.8194 98.3119 72.1487 95.1394C79.9945 90.4662 84.6468 83.502 86.3457 74.0013C88.7094 60.7826 84.0653 41.1196 84.0653 41.1196C78.8103 10.3525 59.2097 4.33027 47.0059 5.35695L47.0055 5.35442ZM54.0241 48.9209C52.8287 49.831 51.1021 50.3423 49.7813 49.431C49.2592 49.0712 48.8505 48.561 48.5199 48.0263C48.4333 47.888 47.6225 46.409 47.7349 46.3396C49.8758 45.0365 51.5054 44.459 52.6059 44.2073C53.7266 43.9509 54.2967 44.0329 54.2967 44.0329C54.31 44.066 54.3233 44.099 54.3357 44.1347C54.9551 45.7105 55.6011 47.7159 54.0251 48.9195L54.0241 48.9209ZM74.1919 41.8823C72.9965 42.7923 71.27 43.3037 69.9492 42.3924C69.4271 42.0325 69.0184 41.5224 68.6878 40.9876C68.6012 40.8493 67.7904 39.3703 67.9004 39.3026C71.8612 36.8914 74.0773 36.9616 74.4183 36.9902C74.4299 36.9895 74.442 36.9915 74.4515 36.9938C74.4595 36.9951 74.4636 36.9957 74.4636 36.9957C75.0946 38.5865 75.8028 40.6534 74.1922 41.8835L74.1919 41.8823Z" fill="white" stroke="#0000FF" stroke-width="2.34365" stroke-linecap="round" stroke-linejoin="round"/>
<path d="M40.6103 51.4259C40.6103 51.4259 49.5657 41.659 56.9045 44.7165" stroke="#0000FF" stroke-width="2.41182" stroke-linecap="round" stroke-linejoin="round"/>
<path d="M37.8774 41.7872C37.8774 41.7872 48.1927 33.4688 54.991 37.5893" stroke="#0000FF" stroke-width="2.41182" stroke-linecap="round" stroke-linejoin="round"/>
<path d="M64.1055 34.7459C66.9388 31.853 71.1445 28.7521 75.5179 29.7705" stroke="#0000FF" stroke-width="2.41182" stroke-linecap="round" stroke-linejoin="round"/>
<path d="M54.0241 48.9209C52.8287 49.831 51.1021 50.3423 49.7813 49.431C49.2592 49.0712 48.8505 48.561 48.5199 48.0262C48.4333 47.888 47.6225 46.409 47.7349 46.3396C49.8758 45.0365 51.5054 44.459 52.6059 44.2072C53.7265 43.9509 54.2967 44.0329 54.2967 44.0329C54.31 44.0659 54.3233 44.099 54.3357 44.1347C54.9551 45.7104 55.6011 47.7159 54.0251 48.9194L54.0241 48.9209Z" fill="#0000FF" stroke="#0000FF" stroke-width="2.06323" stroke-linecap="round" stroke-linejoin="round"/>
<path d="M77.0712 37.6781C76.1839 37.3093 75.3124 37.0918 74.4636 36.9957" stroke="#0000FF" stroke-width="2.41182" stroke-linecap="round" stroke-linejoin="round"/>
<path d="M63.3693 41.9708C63.3693 41.9708 68.265 36.3172 74.4185 36.9914" stroke="#0000FF" stroke-width="2.41182" stroke-linecap="round" stroke-linejoin="round"/>
<path d="M74.1922 41.8835C72.9968 42.7936 71.2702 43.3049 69.9494 42.3936C69.4273 42.0338 69.0186 41.5236 68.688 40.9888C68.6014 40.8506 67.7906 39.3716 67.9007 39.3039C71.8614 36.8926 74.0775 36.9629 74.4185 36.9914C74.4333 36.9942 74.4437 36.9938 74.4517 36.9951C74.4598 36.9964 74.4638 36.997 74.4638 36.997C75.0948 38.5878 75.803 40.6547 74.1924 41.8848L74.1922 41.8835Z" fill="#0000FF" stroke="#0000FF" stroke-width="2.06323" stroke-linecap="round" stroke-linejoin="round"/>
<path d="M62.5732 45.5254C62.5732 45.5254 64.8683 51.685 68.2572 56.001C71.253 59.8146 70.1814 64.8694 64.2641 63.9516C58.5351 62.6338 58.2865 66.046 58.2865 66.046" stroke="#0000FF" stroke-width="2.41182" stroke-linecap="round" stroke-linejoin="round"/>
<path d="M12.0085 65.1302C13.8745 58.7646 21.5498 58.6106 24.4104 60.654" stroke="#0000FF" stroke-width="2.41182" stroke-linecap="round" stroke-linejoin="round"/>
<path d="M27.2526 85.6876C30.3451 85.3567 32.6277 84.2009 32.6277 84.2009" stroke="#0000FF" stroke-width="2.41182" stroke-linecap="round" stroke-linejoin="round"/>
<path d="M18.7139 74.8103C18.7139 74.8103 15.9018 67.6656 23.376 67.2723" stroke="#0000FF" stroke-width="2.41182" stroke-linecap="round" stroke-linejoin="round"/>
<path d="M70.1548 71.2591C56.6602 77.8539 48.0597 68.8888 48.0597 68.8888C48.0597 68.8888 44.98 76.449 53.513 80.5665C62.0462 84.6853 69.5774 79.9779 71.5949 75.3864" stroke="#0000FF" stroke-width="2.41182" stroke-linecap="round" stroke-linejoin="round"/>
<path d="M41.5276 68.8362C41.5276 68.8362 43.1849 62.8179 49.8669 63.1704" stroke="#0000FF" stroke-width="2.41182" stroke-linecap="round" stroke-linejoin="round"/>
<path d="M27.2529 85.6889L27.2524 85.6864" stroke="#0000FF" stroke-width="2.41182" stroke-linecap="round" stroke-linejoin="round"/>
</svg>
