<svg width="176" height="127" viewBox="0 0 176 127" fill="none" xmlns="http://www.w3.org/2000/svg">
<g clip-path="url(#clip0_53_248)">
<path d="M75.9039 56.0564C75.9039 57.6405 75.1862 59.058 74.0584 59.9987C73.1663 60.7446 72.0206 61.1932 70.7671 61.1932C70.0802 61.1932 69.424 61.0573 68.8241 60.8112C66.9504 60.0474 65.6303 58.2069 65.6303 56.0564C65.6303 53.9058 66.9504 52.0679 68.8241 51.3015C69.424 51.0554 70.0802 50.9196 70.7671 50.9196C72.0206 50.9196 73.1663 51.3681 74.0584 52.114C75.1862 53.0548 75.9039 54.4723 75.9039 56.0564Z" fill="#0000FF"/>
<path d="M70.7671 62.8592C69.8777 62.8592 69.0113 62.6874 68.191 62.3516C65.6252 61.3058 63.9642 58.8323 63.9642 56.0562C63.9642 53.2802 65.6252 50.8092 68.1936 49.7583C69.0113 49.4225 69.8777 49.2533 70.7671 49.2533C72.3589 49.2533 73.9071 49.8147 75.1272 50.8348C76.678 52.1293 77.57 54.0338 77.57 56.0562C77.57 58.0787 76.678 59.9832 75.1247 61.2776C73.9071 62.2978 72.3589 62.8592 70.7671 62.8592ZM70.7671 52.5856C70.3134 52.5856 69.8725 52.6727 69.4573 52.8419C68.1449 53.3776 67.2964 54.6387 67.2964 56.0562C67.2964 57.4737 68.1423 58.7348 69.4522 59.268C69.8725 59.4398 70.3134 59.5269 70.7671 59.5269C71.5899 59.5269 72.3589 59.2475 72.9895 58.7195C73.7841 58.0581 74.2378 57.0867 74.2378 56.0562C74.2378 55.0258 73.7841 54.0543 72.992 53.393C72.3589 52.865 71.5925 52.5856 70.7671 52.5856Z" fill="#0000FF"/>
<path d="M58.2353 115.809H15.5593C10.2508 115.809 5.93421 111.492 5.93421 106.184V14.403C5.93421 9.09451 10.2508 4.77539 15.5593 4.77539H28.8499C29.7701 4.77539 30.516 5.5213 30.516 6.44152C30.516 8.96634 32.5692 11.0195 35.0915 11.0195H41.333C42.5532 11.0195 43.7041 10.5428 44.5679 9.67637C45.4317 8.81511 45.9085 7.6642 45.9085 6.44152C45.9085 5.5213 46.6544 4.77539 47.5746 4.77539H60.8652C66.1737 4.77539 70.4903 9.09451 70.4903 14.403V44.6112C70.4903 45.4059 69.9289 46.0902 69.1497 46.244C67.381 46.5978 65.6893 47.3745 64.259 48.4869C63.7566 48.8765 63.0747 48.9483 62.5031 48.6689C61.9315 48.3895 61.5675 47.8076 61.5675 47.1719V24.8151C61.5675 22.5133 59.6938 20.6395 57.3919 20.6395H18.5737C16.2719 20.6395 14.3981 22.5133 14.3981 24.8151V63.6333C14.3981 65.9351 16.2719 67.8089 18.5737 67.8089H57.3945C57.5483 67.8089 57.7021 67.7986 57.8508 67.7832C58.325 67.7268 58.7966 67.8755 59.1529 68.1934C59.5092 68.5086 59.7117 68.9623 59.7117 69.4391V73.3635C59.7117 74.2837 58.9658 75.0296 58.0456 75.0296H17.4561C15.7695 75.0296 14.3981 76.401 14.3981 78.0876V101.667C14.3981 103.354 15.7695 104.725 17.4561 104.725H58.0481C58.9684 104.725 59.7143 105.471 59.7143 106.391V111.913C59.7143 112.569 59.7681 113.228 59.8783 113.866C59.9603 114.35 59.8245 114.845 59.5092 115.219C59.1939 115.593 58.7274 115.811 58.2353 115.811V115.809ZM15.5593 8.10765C12.0886 8.10765 9.26647 10.9324 9.26647 14.403V106.184C9.26647 109.654 12.0886 112.476 15.5593 112.476H56.3923C56.3846 112.287 56.382 112.1 56.382 111.91V108.055H17.4561C13.9316 108.055 11.0659 105.189 11.0659 101.665V78.085C11.0659 74.5605 13.9316 71.6948 17.4561 71.6948H56.382V71.1411H18.5737C14.434 71.1411 11.0659 67.773 11.0659 63.6333V24.8151C11.0659 20.6754 14.434 17.3072 18.5737 17.3072H57.3945C61.5342 17.3072 64.9023 20.6754 64.9023 24.8151V44.1883C65.6303 43.8346 66.3839 43.5424 67.158 43.3117V14.403C67.158 10.9324 64.3359 8.10765 60.8652 8.10765H49.0664C48.7511 9.58666 48.018 10.9426 46.9235 12.0346C45.4291 13.529 43.4426 14.3518 41.333 14.3518H35.0915C31.3029 14.3518 28.127 11.6732 27.3606 8.10765H15.5593Z" fill="#0000FF"/>
<path d="M60.6627 121.535H11.3889C5.49589 121.535 0.700005 116.739 0.700005 110.846V10.6889C0.700005 4.79589 5.49589 0 11.3889 0H65.0356C70.9286 0 75.7245 4.79589 75.7245 10.6889V44.3498C75.7245 45.27 74.9786 46.0159 74.0584 46.0159H71.472C70.6902 46.0159 69.9084 46.0928 69.1522 46.244C68.6627 46.3414 68.1551 46.2158 67.7681 45.898C67.381 45.5827 67.158 45.1085 67.158 44.6087V14.403C67.158 10.9324 64.3359 8.10764 60.8652 8.10764H49.0664C48.7511 9.58665 48.0181 10.9426 46.9235 12.0346C45.4291 13.529 43.4426 14.3518 41.333 14.3518H35.0915C31.3029 14.3518 28.127 11.6732 27.3606 8.10764H15.5593C12.0886 8.10764 9.26647 10.9324 9.26647 14.403V106.184C9.26647 109.654 12.0886 112.476 15.5593 112.476H58.2353C59.0504 112.476 59.745 113.066 59.8783 113.868C60.1782 115.673 60.9139 117.406 62.0033 118.88C62.3775 119.385 62.4339 120.059 62.1519 120.62C61.8674 121.181 61.2933 121.535 60.6652 121.535H60.6627ZM11.3889 3.33226C7.3312 3.33226 4.03226 6.63375 4.03226 10.6889V110.846C4.03226 114.904 7.33376 118.203 11.3889 118.203H57.7559C57.4022 117.431 57.1125 116.629 56.8921 115.809H15.5593C10.2508 115.809 5.93421 111.492 5.93421 106.184V14.403C5.93421 9.0945 10.2508 4.77538 15.5593 4.77538H28.8499C29.7701 4.77538 30.516 5.52129 30.516 6.44151C30.516 8.96633 32.5692 11.0195 35.0915 11.0195H41.333C42.5532 11.0195 43.7041 10.5427 44.5679 9.67636C45.4317 8.8151 45.9085 7.66419 45.9085 6.44151C45.9085 5.52129 46.6544 4.77538 47.5746 4.77538H60.8652C66.1737 4.77538 70.4903 9.0945 70.4903 14.403V42.7144C70.8158 42.6939 71.1439 42.6836 71.472 42.6836H72.3922V10.6889C72.3922 6.63119 69.0907 3.33226 65.0356 3.33226H11.3889Z" fill="#0000FF"/>
<path d="M151.946 46.016H102.49C101.57 46.016 100.824 45.2701 100.824 44.3499C100.824 40.7767 102.216 37.4162 104.743 34.8863C107.276 32.3563 110.639 30.9645 114.212 30.9645H140.224C147.606 30.9645 153.612 36.9702 153.612 44.3499C153.612 45.2701 152.866 46.016 151.946 46.016ZM104.292 42.6838H150.141C149.344 37.9315 145.202 34.2967 140.224 34.2967H114.212C111.528 34.2967 109.001 35.3425 107.099 37.2419C105.599 38.7414 104.633 40.6331 104.292 42.6838Z" fill="#0000FF"/>
<path d="M57.3945 18.9734H18.5737C15.3491 18.9734 12.732 21.5879 12.732 24.8151V63.6333C12.732 66.8605 15.3491 69.475 18.5737 69.475H57.3945C57.6149 69.475 57.8328 69.4622 58.0481 69.4366V57.7737C58.0481 53.4648 60.0783 49.6302 63.2362 47.1745V24.8151C63.2362 21.5879 60.6191 18.9734 57.3945 18.9734ZM22.5981 29.9442C25.1921 29.9442 27.294 32.0461 27.294 34.6401C27.294 37.2342 25.1921 39.336 22.5981 39.336C20.004 39.336 17.9021 37.2342 17.9021 34.6401C17.9021 32.0461 20.004 29.9442 22.5981 29.9442ZM17.9021 61.4238L25.9252 48.387L34.6993 58.4145L47.4849 31.841L58.0148 61.4238H17.9021Z" stroke="#0000FF" stroke-width="3.27978" stroke-linecap="round" stroke-linejoin="round"/>
<path d="M58.0481 108.055H17.4561C13.9316 108.055 11.0659 105.189 11.0659 101.665V78.0851C11.0659 74.5606 13.9316 71.6948 17.4561 71.6948H58.0481C58.9684 71.6948 59.7143 72.4407 59.7143 73.361V106.389C59.7143 107.309 58.9684 108.055 58.0481 108.055ZM17.4561 75.0271C15.7695 75.0271 14.3981 76.3984 14.3981 78.0851V101.665C14.3981 103.351 15.7695 104.723 17.4561 104.723H56.382V75.0271H17.4561Z" fill="#0000FF"/>
<path d="M56.5281 82.8015H17.9021C16.9819 82.8015 16.236 82.0556 16.236 81.1354C16.236 80.2152 16.9819 79.4692 17.9021 79.4692H56.5281C57.4483 79.4692 58.1943 80.2152 58.1943 81.1354C58.1943 82.0556 57.4483 82.8015 56.5281 82.8015Z" fill="#0000FF"/>
<path d="M56.5281 88.4201H17.9021C16.9819 88.4201 16.236 87.6742 16.236 86.754C16.236 85.8338 16.9819 85.0879 17.9021 85.0879H56.5281C57.4483 85.0879 58.1943 85.8338 58.1943 86.754C58.1943 87.6742 57.4483 88.4201 56.5281 88.4201Z" fill="#0000FF"/>
<path d="M56.5281 94.0389H17.9021C16.9819 94.0389 16.236 93.293 16.236 92.3728C16.236 91.4526 16.9819 90.7067 17.9021 90.7067H56.5281C57.4483 90.7067 58.1943 91.4526 58.1943 92.3728C58.1943 93.293 57.4483 94.0389 56.5281 94.0389Z" fill="#0000FF"/>
<path d="M56.5281 99.655H17.9021C16.9819 99.655 16.236 98.9091 16.236 97.9889C16.236 97.0687 16.9819 96.3228 17.9021 96.3228H56.5281C57.4483 96.3228 58.1943 97.0687 58.1943 97.9889C58.1943 98.9091 57.4483 99.655 56.5281 99.655Z" fill="#0000FF"/>
<path d="M29.1882 84.7214C28.268 84.7214 27.5221 83.9755 27.5221 83.0553V78.6824C27.5221 77.7621 28.268 77.0162 29.1882 77.0162C30.1085 77.0162 30.8544 77.7621 30.8544 78.6824V83.0553C30.8544 83.9755 30.1085 84.7214 29.1882 84.7214Z" fill="#0000FF"/>
<path d="M37.9828 90.6067C37.0626 90.6067 36.3167 89.8608 36.3167 88.9406V84.5676C36.3167 83.6474 37.0626 82.9015 37.9828 82.9015C38.9031 82.9015 39.649 83.6474 39.649 84.5676V88.9406C39.649 89.8608 38.9031 90.6067 37.9828 90.6067Z" fill="#0000FF"/>
<path d="M23.162 96.2253C22.2418 96.2253 21.4958 95.4794 21.4958 94.5592V90.1863C21.4958 89.2661 22.2418 88.5201 23.162 88.5201C24.0822 88.5201 24.8281 89.2661 24.8281 90.1863V94.5592C24.8281 95.4794 24.0822 96.2253 23.162 96.2253Z" fill="#0000FF"/>
<path d="M47.0338 101.841C46.1135 101.841 45.3676 101.096 45.3676 100.175V95.8024C45.3676 94.8821 46.1135 94.1362 47.0338 94.1362C47.954 94.1362 48.6999 94.8821 48.6999 95.8024V100.175C48.6999 101.096 47.954 101.841 47.0338 101.841Z" fill="#0000FF"/>
<path d="M58.0148 61.4237H17.9021L25.9252 48.3869L34.6993 58.4144L47.4849 31.8409L58.0148 61.4237Z" fill="#0000FF"/>
<path d="M58.0148 63.0898H17.9021C17.2998 63.0898 16.741 62.7643 16.4488 62.2363C16.154 61.7082 16.1668 61.0648 16.4847 60.5496L24.5077 47.5128C24.7845 47.0617 25.2613 46.7695 25.7868 46.7259C26.3122 46.6823 26.8326 46.8899 27.1786 47.2898L34.2917 55.4179L45.9828 31.1181C46.275 30.5132 46.903 30.1389 47.572 30.1774C48.2436 30.2133 48.828 30.649 49.0536 31.2822L59.5835 60.8649C59.7655 61.375 59.6886 61.9415 59.3759 62.3849C59.0632 62.8284 58.5557 63.0898 58.0148 63.0898ZM35.6861 59.7576H55.654L47.2542 36.1626L36.2014 59.1373C36.0809 59.3859 35.9015 59.5987 35.6861 59.7576ZM20.8858 59.7576H33.715C33.6176 59.6858 33.5279 59.6038 33.4484 59.5115L26.1636 51.186L20.8884 59.7576H20.8858Z" fill="#0000FF"/>
<path d="M27.294 34.6401C27.294 37.2342 25.1921 39.3361 22.5981 39.3361C20.004 39.3361 17.9021 37.2342 17.9021 34.6401C17.9021 32.0461 20.004 29.9442 22.5981 29.9442C25.1921 29.9442 27.294 32.0461 27.294 34.6401Z" fill="#0000FF"/>
<path d="M22.5981 41.0022C19.0889 41.0022 16.236 38.1492 16.236 34.6401C16.236 31.131 19.0889 28.2781 22.5981 28.2781C26.1072 28.2781 28.9601 31.131 28.9601 34.6401C28.9601 38.1492 26.1072 41.0022 22.5981 41.0022ZM22.5981 31.6103C20.9268 31.6103 19.5683 32.9689 19.5683 34.6401C19.5683 36.3114 20.9268 37.6699 22.5981 37.6699C24.2693 37.6699 25.6279 36.3114 25.6279 34.6401C25.6279 32.9689 24.2693 31.6103 22.5981 31.6103Z" fill="#0000FF"/>
<path d="M160.21 44.3499H71.472C70.5646 44.3499 69.6803 44.4396 68.8241 44.6113C66.7479 45.0266 64.8459 45.9211 63.2362 47.1746C60.0783 49.6302 58.0481 53.4649 58.0481 57.7737V111.91C58.0481 112.671 58.1122 113.417 58.2353 114.143C58.589 116.263 59.4374 118.211 60.6627 119.869C63.108 123.183 67.0375 125.334 71.472 125.334H160.21C167.623 125.334 173.634 119.323 173.634 111.91V57.7737C173.634 50.3607 167.623 44.3499 160.21 44.3499ZM74.0584 59.9986C73.1663 60.7446 72.0206 61.1931 70.7671 61.1931C70.0802 61.1931 69.424 61.0573 68.8241 60.8112C66.9504 60.0473 65.6303 58.2069 65.6303 56.0563C65.6303 53.9057 66.9504 52.0679 68.8241 51.3015C69.424 51.0554 70.0802 50.9195 70.7671 50.9195C72.0206 50.9195 73.1663 51.3681 74.0584 52.114C75.1862 53.0547 75.9039 54.4722 75.9039 56.0563C75.9039 57.6404 75.1862 59.0579 74.0584 59.9986ZM115.842 124.78C93.7853 124.78 75.9039 106.899 75.9039 84.8419C75.9039 62.7849 93.7853 44.9035 115.842 44.9035C137.899 44.9035 155.778 62.7849 155.778 84.8419C155.778 106.899 137.899 124.78 115.842 124.78Z" stroke="#0000FF" stroke-width="3.27978" stroke-linecap="round" stroke-linejoin="round"/>
<path d="M115.842 44.9034C93.7853 44.9034 75.9039 62.7848 75.9039 84.8418C75.9039 106.899 93.7853 124.78 115.842 124.78C137.899 124.78 155.778 106.899 155.778 84.8418C155.778 62.7848 137.899 44.9034 115.842 44.9034ZM115.842 116.498C98.3582 116.498 84.1833 102.326 84.1833 84.8418C84.1833 67.3577 98.3582 53.1854 115.842 53.1854C133.326 53.1854 147.499 67.3577 147.499 84.8418C147.499 102.326 133.326 116.498 115.842 116.498Z" stroke="#0000FF" stroke-width="3.27978" stroke-linecap="round" stroke-linejoin="round"/>
<path d="M115.842 53.1854C98.3582 53.1854 84.1833 67.3578 84.1833 84.8419C84.1833 102.326 98.3582 116.498 115.842 116.498C133.326 116.498 147.499 102.326 147.499 84.8419C147.499 67.3578 133.326 53.1854 115.842 53.1854ZM115.842 95.1155C110.167 95.1155 105.569 90.5144 105.569 84.8419C105.569 79.1693 110.167 74.5708 115.842 74.5708C121.517 74.5708 126.113 79.1693 126.113 84.8419C126.113 90.5144 121.515 95.1155 115.842 95.1155Z" fill="#0000FF" stroke="#0000FF" stroke-width="3.27978" stroke-linecap="round" stroke-linejoin="round"/>
<path d="M115.842 96.7817C109.26 96.7817 103.903 91.4244 103.903 84.8419C103.903 78.2595 109.26 72.9048 115.842 72.9048C122.425 72.9048 127.779 78.2595 127.779 84.8419C127.779 91.4244 122.425 96.7817 115.842 96.7817ZM115.842 76.237C111.095 76.237 107.235 80.0973 107.235 84.8419C107.235 89.5866 111.095 93.4494 115.842 93.4494C120.589 93.4494 124.447 89.5891 124.447 84.8419C124.447 80.0948 120.587 76.237 115.842 76.237Z" fill="#0000FF"/>
</g>
<defs>
<clipPath id="clip0_53_248">
<rect width="174.6" height="127" fill="white" transform="translate(0.700005)"/>
</clipPath>
</defs>
</svg>
