<svg width="174" height="127" viewBox="0 0 174 127" fill="none" xmlns="http://www.w3.org/2000/svg">
<g clip-path="url(#clip0_53_82)">
<path d="M41.8816 127C40.6958 127 39.7346 126.039 39.7346 124.853V72.638C39.7346 71.4522 40.6958 70.491 41.8816 70.491C43.0674 70.491 44.0286 71.4522 44.0286 72.638V124.853C44.0286 126.039 43.0674 127 41.8816 127Z" fill="#0000FF"/>
<path d="M48.1872 127H35.5727C34.3869 127 33.4257 126.039 33.4257 124.853C33.4257 123.667 34.3869 122.706 35.5727 122.706H48.1872C49.373 122.706 50.3342 123.667 50.3342 124.853C50.3342 126.039 49.373 127 48.1872 127Z" fill="#0000FF"/>
<path d="M141.403 127H128.789C127.603 127 126.642 126.039 126.642 124.853C126.642 123.667 127.603 122.706 128.789 122.706H132.951V72.638C132.951 71.4522 133.912 70.491 135.098 70.491C136.284 70.491 137.245 71.4522 137.245 72.638V122.706H141.407C142.592 122.706 143.554 123.667 143.554 124.853C143.554 126.039 142.592 127 141.407 127H141.403Z" fill="#0000FF"/>
<path d="M135.098 109.127H128.789C127.603 109.127 126.642 108.166 126.642 106.98C126.642 105.794 127.603 104.833 128.789 104.833H135.098C136.284 104.833 137.245 105.794 137.245 106.98C137.245 108.166 136.284 109.127 135.098 109.127Z" fill="#0000FF"/>
<path d="M82.1197 109.127H41.8816C40.6958 109.127 39.7346 108.166 39.7346 106.98C39.7346 105.794 40.6958 104.833 41.8816 104.833H82.1197C83.3055 104.833 84.2667 105.794 84.2667 106.98C84.2667 108.166 83.3055 109.127 82.1197 109.127Z" fill="#0000FF"/>
<path d="M48.6199 74.785H23.3084C22.1226 74.785 21.1614 73.8238 21.1614 72.638V34.4412C21.1614 33.8698 21.3893 33.3247 21.7923 32.9218C22.1953 32.5188 22.7403 32.2942 23.3084 32.2942H23.315L29.974 32.3107C30.5421 32.3107 31.0872 32.5386 31.4868 32.9383L42.4729 43.9243C47.8205 49.272 50.7669 56.3835 50.7669 63.9476V72.638C50.7669 73.8238 49.8057 74.785 48.6199 74.785ZM25.4554 70.491H46.4729V63.9476C46.4729 57.533 43.9725 51.5016 39.434 46.9632L29.0756 36.6047L25.4554 36.5948V70.491Z" fill="#0000FF"/>
<path d="M143.157 74.785H127.286C126.348 74.785 125.519 74.1772 125.238 73.2821C122.569 64.7766 120.323 63.0359 119.867 63.0359C118.681 63.0359 117.72 62.0747 117.72 60.8889C117.72 59.7692 118.579 58.8476 119.672 58.7518C118.926 57.4471 117.519 56.5619 115.91 56.5619H76.1873C75.0313 56.5619 73.9446 57.0111 73.1287 57.8303C72.8512 58.1077 72.62 58.4149 72.4284 58.7419H75.2096C75.7414 58.7419 76.2534 58.9401 76.6465 59.2935C76.8513 59.4785 81.6903 63.9145 83.5499 72.1656C83.6919 72.8031 83.54 73.4703 83.1337 73.979C82.7274 74.4877 82.1098 74.785 81.4558 74.785H62.2054C61.0196 74.785 60.0584 73.8238 60.0584 72.638V62.8576C60.0584 57.5 57.885 52.258 54.0964 48.4694L41.6438 36.0135C41.0294 35.3991 40.8444 34.4742 41.178 33.6716C41.5116 32.8722 42.2945 32.3503 43.1599 32.3503H43.1665L124.323 32.5584C124.891 32.5584 125.433 32.7863 125.836 33.186L135.659 43.0094C138.097 45.4503 140.128 48.2381 141.687 51.3001C144.052 55.9178 145.301 61.1003 145.301 66.2861V72.638C145.301 73.8238 144.34 74.785 143.154 74.785H143.157ZM128.845 70.491H141.01V66.2861C141.01 61.7774 139.924 57.2688 137.866 53.2522C136.508 50.5866 134.744 48.1622 132.624 46.0416L123.428 36.8458L48.3589 36.6543L57.1352 45.4305C61.7232 50.0185 64.3524 56.3703 64.3524 62.8576V70.491H78.6118C77.2642 66.6297 75.2526 64.0929 74.3013 63.0359H69.7133C68.5275 63.0359 67.5663 62.0747 67.5663 60.8889C67.5663 58.5867 68.4615 56.4199 70.0899 54.7914C71.7183 53.163 73.8818 52.2679 76.1873 52.2679H115.91C120.667 52.2679 124.534 56.1358 124.534 60.8889C124.534 61.0706 124.511 61.2457 124.468 61.4141C126.008 63.3464 127.451 66.3489 128.845 70.491Z" fill="#0000FF"/>
<path d="M62.2054 62.8576V72.638H48.6199V63.9476C48.6199 57.0078 45.8618 50.3521 40.9534 45.4437L29.9674 34.4577L43.1632 34.494L55.6158 46.9499C59.8338 51.168 62.2054 56.8922 62.2054 62.8576Z" fill="#0000FF"/>
<path d="M62.2054 74.785H48.6199C47.4341 74.785 46.4729 73.8238 46.4729 72.638V63.9476C46.4729 57.533 43.9724 51.5016 39.434 46.9632L28.448 35.9771C27.8336 35.3628 27.6486 34.4379 27.9823 33.6353C28.3159 32.8359 29.0987 32.314 29.9641 32.314H29.9707L43.1665 32.3504C43.7346 32.3504 44.2763 32.5783 44.6793 32.9779L57.1319 45.4338C61.7199 50.0218 64.3491 56.3736 64.3491 62.8609V72.6413C64.3491 73.8271 63.3879 74.7883 62.2021 74.7883L62.2054 74.785ZM50.7669 70.491H60.0584V62.8576C60.0584 57.5 57.885 52.258 54.0964 48.4694L42.2714 36.6411L35.1664 36.6212L42.4728 43.9276C47.8205 49.2753 50.7669 56.3869 50.7669 63.9509V70.4943V70.491Z" fill="#0000FF"/>
<path d="M122.387 63.0359H69.7133C68.5275 63.0359 67.5663 62.0747 67.5663 60.8889C67.5663 58.5867 68.4615 56.4199 70.0899 54.7914C71.7183 53.163 73.8818 52.2679 76.1873 52.2679H115.91C120.667 52.2679 124.534 56.1358 124.534 60.8889C124.534 62.0747 123.573 63.0359 122.387 63.0359ZM72.4284 58.7419H119.669C118.923 57.4405 117.515 56.5619 115.91 56.5619H76.1873C75.0313 56.5619 73.9446 57.0111 73.1287 57.8303C72.8512 58.1077 72.62 58.4149 72.4284 58.7419Z" fill="#0000FF"/>
<path d="M62.2054 74.785H48.6199C47.4341 74.785 46.4729 73.8238 46.4729 72.638C46.4729 71.4522 47.4341 70.491 48.6199 70.491H62.2054C63.3912 70.491 64.3524 71.4522 64.3524 72.638C64.3524 73.8238 63.3912 74.785 62.2054 74.785Z" fill="#0000FF"/>
<path d="M43.1599 36.641C42.6116 36.641 42.0633 36.433 41.6438 36.0135C40.8048 35.1712 40.8048 33.8136 41.6438 32.9746C42.4828 32.1357 43.8403 32.1357 44.6793 32.9746C45.5183 33.8136 45.5183 35.1745 44.6793 36.0135C44.2598 36.433 43.7082 36.6444 43.1599 36.6444V36.641Z" fill="#0000FF"/>
<path d="M121.37 48.7633H62.8661C61.6803 48.7633 60.7191 47.8021 60.7191 46.6163C60.7191 45.4305 61.6803 44.4693 62.8661 44.4693H121.37C122.556 44.4693 123.517 45.4305 123.517 46.6163C123.517 47.8021 122.556 48.7633 121.37 48.7633Z" fill="#0000FF"/>
<path d="M115.851 42.9004H57.3466C56.1608 42.9004 55.1996 41.9392 55.1996 40.7534C55.1996 39.5676 56.1608 38.6064 57.3466 38.6064H115.851C117.037 38.6064 117.998 39.5676 117.998 40.7534C117.998 41.9392 117.037 42.9004 115.851 42.9004Z" fill="#0000FF"/>
<path d="M122.387 63.0359H69.7133C68.5275 63.0359 67.5663 62.0747 67.5663 60.8889C67.5663 58.5867 68.4615 56.4199 70.0899 54.7914C71.7183 53.163 73.8818 52.2679 76.1873 52.2679H115.91C120.667 52.2679 124.534 56.1358 124.534 60.8889C124.534 62.0747 123.573 63.0359 122.387 63.0359ZM72.4284 58.7419H119.669C118.923 57.4405 117.515 56.5619 115.91 56.5619H76.1873C75.0313 56.5619 73.9446 57.0111 73.1287 57.8303C72.8512 58.1077 72.62 58.4149 72.4284 58.7419Z" fill="#0000FF"/>
<path d="M127.798 74.3291C127.643 73.7973 127.474 73.2292 127.286 72.638C125.704 67.5975 123.005 60.8889 119.867 60.8889H75.2097C75.2097 60.8889 79.725 64.9583 81.4558 72.638C81.8654 74.458 82.1197 76.4827 82.1197 78.7024V112.239H128.789V81.3151C128.789 78.9501 128.455 76.5984 127.798 74.3291ZM89.6012 101.821V76.998L97.6673 81.9625L91.4608 87.3928L107.91 95.3037L89.6012 101.821ZM111.943 83.6702C109.714 83.6702 107.91 81.8635 107.91 79.6339C107.91 77.4043 109.714 75.6008 111.943 75.6008C114.173 75.6008 115.976 77.4076 115.976 79.6339C115.976 81.8602 114.169 83.6702 111.943 83.6702Z" stroke="#0000FF" stroke-width="4.294" stroke-linecap="round" stroke-linejoin="round"/>
<path d="M107.91 95.3037L89.6012 101.821V76.998L97.6673 81.9626L91.4608 87.3928L107.91 95.3037Z" fill="#0000FF"/>
<path d="M89.6012 103.968C89.1619 103.968 88.7292 103.836 88.3625 103.575C87.7911 103.172 87.4542 102.518 87.4542 101.821V76.998C87.4542 76.2218 87.8736 75.5017 88.5541 75.1252C89.2345 74.7453 90.0636 74.7619 90.7275 75.1714L98.7936 80.136C99.375 80.4927 99.7515 81.1071 99.8077 81.7842C99.8638 82.4646 99.5963 83.1285 99.081 83.5778L95.3221 86.8676L108.842 93.3681C109.621 93.7446 110.1 94.5506 110.054 95.416C110.008 96.2814 109.446 97.0345 108.63 97.3252L90.3212 103.842C90.0867 103.925 89.8423 103.968 89.6012 103.968ZM91.7482 89.9131V98.7785L102.341 95.0097L91.7482 89.9164V89.9131ZM91.7482 80.8395V84.2879L94.0603 82.2631L91.7482 80.8395Z" fill="#0000FF"/>
<path d="M115.976 79.6339C115.976 81.8635 114.169 83.6702 111.943 83.6702C109.717 83.6702 107.91 81.8635 107.91 79.6339C107.91 77.4043 109.714 75.6008 111.943 75.6008C114.173 75.6008 115.976 77.4076 115.976 79.6339Z" fill="#0000FF"/>
<path d="M111.943 85.8173C108.534 85.8173 105.763 83.0427 105.763 79.6339C105.763 76.2251 108.534 73.4539 111.943 73.4539C115.352 73.4539 118.123 76.2251 118.123 79.6339C118.123 83.0427 115.352 85.8173 111.943 85.8173ZM111.943 77.7479C110.903 77.7479 110.057 78.5934 110.057 79.6339C110.057 80.6744 110.903 81.5233 111.943 81.5233C112.984 81.5233 113.829 80.6744 113.829 79.6339C113.829 78.5934 112.984 77.7479 111.943 77.7479Z" fill="#0000FF"/>
<path d="M171.399 73.031H143.157C141.971 73.031 141.01 72.0698 141.01 70.884V66.2862C141.01 61.7775 139.924 57.2688 137.866 53.2522C137.525 52.585 137.555 51.7923 137.945 51.1548C138.335 50.5173 139.028 50.1275 139.775 50.1275H162.89C163.511 50.1275 164.102 50.3984 164.512 50.8674L168.059 54.95C171.597 59.0194 173.542 64.2316 173.542 69.6223V70.884C173.542 72.0698 172.581 73.031 171.395 73.031H171.399ZM145.304 68.737H169.228C169.03 64.6974 167.481 60.8295 164.819 57.7642L161.912 54.4215H143.085C144.541 58.1969 145.301 62.2399 145.301 66.2862V68.737H145.304Z" fill="#0000FF"/>
<path d="M162.893 54.4215C162.292 54.4215 161.697 54.1704 161.271 53.6816L153.529 44.7732H132.241C131.055 44.7732 130.094 43.812 130.094 42.6262C130.094 41.4404 131.055 40.4792 132.241 40.4792H154.507C155.128 40.4792 155.719 40.75 156.128 41.2191L164.512 50.8674C165.288 51.7625 165.195 53.1168 164.3 53.8963C163.894 54.2497 163.392 54.4215 162.893 54.4215Z" fill="#0000FF"/>
<path d="M160.409 60.8724H148.122C146.936 60.8724 145.975 59.9112 145.975 58.7254C145.975 57.5396 146.936 56.5784 148.122 56.5784H160.409C161.595 56.5784 162.556 57.5396 162.556 58.7254C162.556 59.9112 161.595 60.8724 160.409 60.8724Z" fill="#0000FF"/>
<path d="M164.307 66.2498H152.019C150.834 66.2498 149.872 65.2886 149.872 64.1028C149.872 62.917 150.834 61.9558 152.019 61.9558H164.307C165.493 61.9558 166.454 62.917 166.454 64.1028C166.454 65.2886 165.493 66.2498 164.307 66.2498Z" fill="#0000FF"/>
<path d="M28.7717 127H2.60141C1.4156 127 0.454407 126.039 0.454407 124.853V40.7533C0.454407 40.0002 0.850776 39.3 1.50148 38.9102C2.14889 38.5238 2.95484 38.5039 3.61875 38.8607C3.665 38.8838 8.70549 41.5196 15.6882 41.5196C18.0532 41.5196 20.4413 41.2224 22.7865 40.6344C23.4273 40.4726 24.1077 40.6179 24.6296 41.0242C25.1515 41.4305 25.4554 42.0547 25.4554 42.7154V70.4909H28.7717C29.9575 70.4909 30.9187 71.4521 30.9187 72.6379V124.853C30.9187 126.039 29.9575 127 28.7717 127ZM4.74841 122.706H26.6247V74.7849H23.3084C22.1226 74.7849 21.1614 73.8237 21.1614 72.6379V45.3545C19.3414 45.6584 17.5115 45.8136 15.6882 45.8136C11.0936 45.8136 7.25544 44.8392 4.74841 43.9705V122.706Z" fill="#0000FF"/>
<path d="M23.3084 38.3784V42.7154C21.2142 43.2406 18.6147 43.6666 15.6882 43.6666C8.02176 43.6666 2.60141 40.7533 2.60141 40.7533C2.60141 40.7533 7.27526 37.3644 15.6882 37.3644C18.7336 37.3644 21.2869 37.8103 23.3084 38.3784Z" fill="#0000FF"/>
<path d="M15.6882 45.8137C7.57585 45.8137 1.82519 42.7748 1.58407 42.646C0.933362 42.2959 0.507265 41.6353 0.457719 40.8987C0.408172 40.1621 0.741783 39.452 1.33964 39.0159C1.55434 38.8607 6.68072 35.2174 15.6882 35.2174C18.5487 35.2174 21.3067 35.584 23.8897 36.3107C24.8146 36.5717 25.4554 37.414 25.4554 38.3785V42.7154C25.4554 43.6997 24.7849 44.5585 23.8303 44.7963C21.1449 45.4702 18.4033 45.8137 15.6882 45.8137ZM8.28931 40.5519C10.291 41.0771 12.8277 41.5197 15.6882 41.5197C17.5082 41.5197 19.3414 41.3413 21.1614 40.9945V40.063C19.4141 39.6964 17.5809 39.5114 15.6882 39.5114C12.6791 39.5114 10.1952 39.9837 8.28931 40.5519Z" fill="#0000FF"/>
<path d="M74.5325 17.3874H64.478V34.4577H74.5325V17.3874Z" fill="#0000FF"/>
<path d="M74.5325 36.6047H64.4779C63.2921 36.6047 62.3309 35.6435 62.3309 34.4577V17.3874C62.3309 16.2016 63.2921 15.2404 64.4779 15.2404H74.5325C75.7183 15.2404 76.6795 16.2016 76.6795 17.3874V34.4577C76.6795 35.6435 75.7183 36.6047 74.5325 36.6047ZM66.6249 32.3107H72.3855V19.5344H66.6249V32.3107Z" fill="#0000FF"/>
<path d="M47.2194 36.6047C46.0336 36.6047 45.0724 35.6435 45.0724 34.4577V17.3874C45.0724 16.2016 46.0336 15.2404 47.2194 15.2404H64.4779C65.6638 15.2404 66.6249 16.2016 66.6249 17.3874C66.6249 18.5732 65.6638 19.5344 64.4779 19.5344H49.3664V34.4577C49.3664 35.6435 48.4052 36.6047 47.2194 36.6047Z" fill="#0000FF"/>
<path d="M53.0658 19.5377C52.3358 19.5377 51.6224 19.1645 51.2227 18.4939L43.3184 5.28493C42.7107 4.26758 43.041 2.94965 44.0583 2.33858C45.0757 1.73082 46.3936 2.06113 47.0047 3.07847L54.9089 16.2875C55.5167 17.3048 55.1864 18.6228 54.169 19.2338C53.8255 19.4419 53.4424 19.5377 53.0691 19.5377H53.0658Z" fill="#0000FF"/>
<path d="M60.8776 19.5377C60.6893 19.5377 60.501 19.5146 60.3128 19.4617C59.1699 19.1512 58.4961 17.9687 58.8066 16.8259L62.9651 1.58546C63.2756 0.442595 64.4581 -0.234536 65.601 0.0792562C66.7439 0.389745 67.4177 1.57225 67.1072 2.71511L62.9486 17.9555C62.6877 18.9101 61.8223 19.5377 60.8776 19.5377Z" fill="#0000FF"/>
<path d="M69.7133 19.5344C69.1089 19.5344 68.511 19.2834 68.0882 18.7912L55.7215 4.45257C54.9486 3.55413 55.0477 2.19987 55.9461 1.42365C56.8445 0.647424 58.1988 0.749819 58.975 1.64826L71.3417 15.9869C72.1147 16.8854 72.0156 18.2396 71.1171 19.0158C70.7109 19.366 70.2121 19.5377 69.7166 19.5377L69.7133 19.5344Z" fill="#0000FF"/>
</g>
<defs>
<clipPath id="clip0_53_82">
<rect width="173.091" height="127" fill="white" transform="translate(0.454407)"/>
</clipPath>
</defs>
</svg>
