<?xml version="1.0" standalone="no"?>
<!DOCTYPE svg PUBLIC "-//W3C//DTD SVG 20010904//EN"
 "http://www.w3.org/TR/2001/REC-SVG-20010904/DTD/svg10.dtd">
<svg version="1.0" xmlns="http://www.w3.org/2000/svg"
 width="856.000000pt" height="856.000000pt" viewBox="0 0 856.000000 856.000000"
 preserveAspectRatio="xMidYMid meet">
<metadata>
Created by potrace 1.14, written by Peter Selinger 2001-2017
</metadata>
<g transform="translate(0.000000,856.000000) scale(0.100000,-0.100000)"
fill="#000000" stroke="none">
<path d="M4426 8233 c-1 -2 -43 -5 -94 -8 -50 -2 -110 -7 -134 -10 -24 -2 -68
-7 -98 -10 -83 -7 -206 -24 -310 -41 -25 -4 -58 -8 -75 -10 -16 -1 -32 -3 -35
-4 -3 -1 -9 -3 -15 -4 -9 -2 -54 -11 -110 -23 -11 -2 -31 -6 -45 -9 -14 -3
-33 -7 -42 -10 -10 -3 -30 -7 -45 -10 -16 -3 -82 -21 -148 -40 -66 -19 -124
-36 -130 -38 -93 -22 -474 -190 -615 -272 -119 -69 -342 -214 -360 -234 -3 -3
-17 -13 -32 -22 -32 -21 -256 -199 -317 -254 -130 -114 -185 -166 -275 -258
-54 -55 -117 -125 -140 -155 -92 -120 -126 -167 -133 -181 -4 -8 -13 -21 -20
-28 -7 -7 -13 -20 -13 -28 0 -8 -4 -14 -8 -14 -14 0 -186 -344 -197 -394 -1
-6 -7 -24 -13 -39 -7 -16 -12 -34 -12 -41 0 -7 -3 -16 -7 -20 -4 -3 -8 -12 -9
-19 -1 -7 -14 -55 -28 -107 -14 -52 -32 -131 -40 -175 -14 -74 -19 -107 -31
-205 -2 -19 -6 -97 -9 -173 -4 -75 -7 -141 -7 -145 -1 -4 -1 -9 0 -12 1 -3 4
-45 6 -95 3 -84 7 -137 21 -260 10 -88 11 -99 22 -160 6 -33 14 -76 17 -95 5
-27 36 -162 59 -255 31 -124 127 -415 171 -520 22 -51 33 -78 51 -120 10 -22
18 -42 19 -45 13 -39 121 -258 135 -275 7 -8 9 -15 5 -15 -5 0 0 -9 10 -20 20
-22 22 -49 10 -135 -15 -109 -8 -287 16 -410 14 -76 17 -85 34 -150 9 -33 18
-64 19 -70 2 -5 5 -17 8 -25 3 -8 18 -51 33 -95 15 -44 37 -100 48 -125 12
-25 22 -47 22 -50 4 -14 49 -100 71 -135 13 -22 27 -47 31 -55 4 -8 31 -46 60
-85 120 -156 257 -271 410 -342 42 -19 81 -36 87 -37 6 -1 16 -4 21 -8 6 -3
26 -9 45 -14 19 -4 40 -9 45 -10 64 -16 146 -26 232 -28 l104 -2 34 -55 c19
-29 38 -61 42 -69 4 -8 12 -20 17 -26 6 -6 18 -22 26 -35 30 -46 175 -215 231
-269 51 -50 77 -74 179 -160 31 -26 141 -102 225 -155 17 -11 33 -18 38 -17 4
1 7 -2 7 -6 0 -12 258 -134 345 -163 39 -13 73 -28 77 -34 4 -5 8 -7 8 -2 0 4
17 0 38 -8 20 -9 38 -15 40 -15 5 3 67 -12 77 -18 5 -3 16 -7 25 -8 8 -1 47
-9 85 -18 39 -10 84 -19 100 -22 17 -2 41 -6 55 -9 14 -3 43 -8 65 -11 41 -5
66 -8 190 -21 147 -15 599 -7 705 13 14 3 41 7 60 9 19 3 46 7 60 10 14 3 40
8 59 11 32 5 48 9 89 18 96 23 120 29 137 36 11 4 43 14 70 21 28 6 56 16 63
22 6 5 12 6 12 2 0 -4 7 -1 17 6 9 8 18 13 20 11 12 -11 372 153 483 220 204
123 363 247 520 407 113 116 139 145 212 245 21 28 41 56 46 62 26 31 141 231
177 309 70 150 94 205 90 205 -2 0 4 20 15 44 27 63 101 326 95 336 -3 5 0 12
6 15 5 4 8 13 5 20 -2 7 -2 16 2 19 3 4 7 12 8 19 2 16 13 75 18 107 11 59 18
108 22 155 3 28 7 68 9 90 24 234 24 654 0 940 -3 33 -7 89 -9 125 -2 36 -7
76 -10 90 -3 14 -8 57 -11 95 -6 74 -9 98 -21 185 -4 30 -8 64 -9 75 -1 11 -5
40 -9 65 -4 25 -10 59 -12 75 -11 75 -26 172 -31 195 -3 14 -7 39 -9 55 -4 29
-19 115 -29 165 -3 14 -8 39 -10 55 -9 47 -33 164 -49 235 -8 36 -17 79 -19
95 -11 68 -59 293 -78 368 -11 45 -22 89 -24 97 -2 8 -8 26 -13 40 -5 14 -10
27 -10 30 0 19 -85 290 -109 350 -4 8 -7 17 -8 20 -1 3 -5 14 -10 25 -4 11
-24 58 -43 105 -19 47 -39 94 -45 105 -6 11 -10 24 -9 29 2 4 -1 13 -6 20 -6
6 -44 77 -85 159 -42 81 -89 168 -106 193 -17 25 -31 47 -31 50 0 9 -63 99
-72 102 -4 2 -8 9 -8 15 0 9 -122 178 -155 213 -5 6 -37 42 -70 79 -160 181
-331 330 -530 462 -97 65 -249 150 -305 173 -19 7 -39 17 -45 20 -15 11 -213
90 -233 93 -9 2 -27 9 -39 15 -13 7 -23 11 -23 8 0 -3 -25 4 -55 14 -30 10
-67 21 -82 24 -15 3 -73 15 -128 26 -55 12 -116 23 -135 25 -19 2 -51 7 -70 9
-70 11 -407 26 -414 19z"/>
</g>
</svg>
