<svg width="238" height="127" viewBox="0 0 238 127" fill="none" xmlns="http://www.w3.org/2000/svg">
<g clip-path="url(#clip0_41_730)">
<path d="M205.86 58.81C205.22 58.81 204.6 58.4692 204.276 57.8653C200.298 50.5103 192.638 45.9421 184.283 45.9421C177.185 45.9421 170.628 49.1667 166.29 54.7903C165.819 55.3998 165.013 55.6436 164.284 55.3942C163.556 55.1449 163.065 54.4606 163.065 53.6905V40.7506C163.065 40.1605 163.353 39.6093 163.835 39.2741C169.852 35.0799 176.925 32.8609 184.285 32.8609C197.447 32.8609 209.523 40.058 215.794 51.6461C216.022 52.0671 216.074 52.5602 215.936 53.0173C215.8 53.4744 215.487 53.8595 215.066 54.0867L206.719 58.5939C206.448 58.7407 206.154 58.81 205.866 58.81H205.86ZM184.28 42.3407C193.355 42.3407 201.724 46.9948 206.531 54.5992L211.717 51.7984C205.869 42.2936 195.513 36.4622 184.277 36.4622C177.969 36.4622 171.897 38.274 166.658 41.7064V49.0974C171.451 44.7592 177.662 42.3407 184.277 42.3407H184.28Z" fill="#0000FF"/>
<path d="M184.28 104.464C176.77 104.464 169.584 102.165 163.497 97.8153C162.918 97.4025 162.639 96.685 162.78 95.9869C162.966 95.0866 163.06 94.153 163.06 93.2166V83.6371C163.06 82.8669 163.55 82.1827 164.279 81.9334C165.007 81.684 165.813 81.9278 166.284 82.5373C170.625 88.1609 177.185 91.3855 184.277 91.3855C196.807 91.3855 206.999 81.1937 206.999 68.6638C206.999 64.8935 206.057 61.1592 204.273 57.8681C204.046 57.447 203.993 56.9539 204.132 56.4968C204.27 56.0397 204.58 55.6546 205.001 55.4275L213.348 50.9203C214.224 50.4465 215.315 50.7734 215.786 51.6488C218.595 56.8403 220.08 62.7244 220.08 68.6666C220.08 88.4075 204.018 104.467 184.277 104.467L184.28 104.464ZM166.509 95.5187C171.78 99.0203 177.9 100.863 184.28 100.863C202.037 100.863 216.481 86.4184 216.481 68.6638C216.481 63.9239 215.432 59.2227 213.431 54.9648L208.243 57.7656C209.789 61.1675 210.6 64.899 210.6 68.6638C210.6 83.1772 198.791 94.9868 184.277 94.9868C177.665 94.9868 171.454 92.5684 166.658 88.2302V93.2166C166.658 93.9895 166.608 94.7597 166.506 95.5187H166.509Z" fill="#0000FF"/>
<path d="M184.28 74.3428C181.15 74.3428 178.601 71.7942 178.601 68.6638C178.601 65.5334 181.15 62.982 184.28 62.982C186.369 62.982 188.286 64.1233 189.28 65.9628C189.726 66.7883 189.962 67.7219 189.962 68.6638C189.962 71.7942 187.413 74.3428 184.28 74.3428ZM184.28 66.5833C183.133 66.5833 182.202 67.5169 182.202 68.6638C182.202 69.8107 183.133 70.7415 184.28 70.7415C185.427 70.7415 186.36 69.8107 186.36 68.6638C186.36 68.312 186.277 67.9795 186.111 67.6748C185.748 67.0016 185.045 66.5833 184.28 66.5833Z" fill="#0000FF"/>
<path d="M205.858 57.0093C201.713 49.3467 193.605 44.1414 184.28 44.1414C176.376 44.1414 169.343 47.8813 164.86 53.6905V83.6371C169.345 89.4463 176.376 93.1862 184.28 93.1862C197.824 93.1862 208.802 82.2049 208.802 68.6638C208.802 64.4475 207.736 60.4749 205.858 57.0093ZM184.28 83.8809C175.878 83.8809 169.063 77.066 169.063 68.6638C169.063 60.2616 175.878 53.4467 184.28 53.4467C190.067 53.4467 195.098 56.6741 197.671 61.4306C198.835 63.5804 199.497 66.0459 199.497 68.6638C199.497 77.066 192.685 83.8809 184.28 83.8809Z" stroke="#0000FF" stroke-width="3.6136" stroke-linecap="round" stroke-linejoin="round"/>
<path d="M184.28 74.3428C181.15 74.3428 178.601 71.7942 178.601 68.6638C178.601 65.5334 181.15 62.982 184.28 62.982C186.369 62.982 188.286 64.1233 189.28 65.9628C189.726 66.7883 189.962 67.7219 189.962 68.6638C189.962 71.7942 187.413 74.3428 184.28 74.3428ZM184.28 66.5833C183.133 66.5833 182.202 67.5169 182.202 68.6638C182.202 69.8107 183.133 70.7415 184.28 70.7415C185.427 70.7415 186.36 69.8107 186.36 68.6638C186.36 68.312 186.277 67.9795 186.111 67.6748C185.748 67.0016 185.045 66.5833 184.28 66.5833Z" fill="#0000FF"/>
<path d="M184.28 85.6815C174.897 85.6815 167.262 78.0467 167.262 68.6638C167.262 59.2809 174.897 51.6461 184.28 51.6461C190.538 51.6461 196.275 55.0673 199.256 60.5746C200.591 63.0429 201.298 65.8409 201.298 68.6638C201.298 78.0467 193.663 85.6815 184.28 85.6815ZM184.28 55.2474C176.883 55.2474 170.864 61.2672 170.864 68.6638C170.864 76.0604 176.883 82.0802 184.28 82.0802C191.677 82.0802 197.696 76.0604 197.696 68.6638C197.696 66.4365 197.139 64.2314 196.087 62.2866C193.738 57.9429 189.214 55.2474 184.28 55.2474ZM184.28 74.3428C181.15 74.3428 178.601 71.7942 178.601 68.6638C178.601 65.5334 181.15 62.982 184.28 62.982C186.369 62.982 188.286 64.1233 189.28 65.9628C189.726 66.7883 189.962 67.7219 189.962 68.6638C189.962 71.7942 187.413 74.3428 184.28 74.3428ZM184.28 66.5833C183.133 66.5833 182.202 67.5169 182.202 68.6638C182.202 69.8107 183.133 70.7415 184.28 70.7415C185.427 70.7415 186.36 69.8107 186.36 68.6638C186.36 68.312 186.277 67.9795 186.111 67.6748C185.748 67.0016 185.045 66.5833 184.28 66.5833Z" fill="#0000FF"/>
<path d="M184.28 74.3428C181.15 74.3428 178.601 71.7942 178.601 68.6638C178.601 65.5334 181.15 62.982 184.28 62.982C186.369 62.982 188.286 64.1233 189.28 65.9628C189.726 66.7883 189.962 67.7219 189.962 68.6638C189.962 71.7942 187.413 74.3428 184.28 74.3428ZM184.28 66.5833C183.133 66.5833 182.202 67.5169 182.202 68.6638C182.202 69.8107 183.133 70.7415 184.28 70.7415C185.427 70.7415 186.36 69.8107 186.36 68.6638C186.36 68.312 186.277 67.9795 186.111 67.6748C185.748 67.0016 185.045 66.5833 184.28 66.5833Z" fill="#0000FF"/>
<path d="M188.161 68.6637C188.161 70.8051 186.424 72.5421 184.28 72.5421C182.136 72.5421 180.402 70.8051 180.402 68.6637C180.402 66.5223 182.138 64.7826 184.28 64.7826C185.756 64.7826 187.039 65.6054 187.696 66.8187C187.992 67.3672 188.161 67.9961 188.161 68.6637Z" fill="#0000FF"/>
<path d="M184.28 74.3428C181.15 74.3428 178.601 71.7942 178.601 68.6638C178.601 65.5334 181.15 62.982 184.28 62.982C186.369 62.982 188.286 64.1233 189.28 65.9628C189.726 66.7883 189.962 67.7219 189.962 68.6638C189.962 71.7942 187.413 74.3428 184.28 74.3428ZM184.28 66.5833C183.133 66.5833 182.202 67.5169 182.202 68.6638C182.202 69.8107 183.133 70.7415 184.28 70.7415C185.427 70.7415 186.36 69.8107 186.36 68.6638C186.36 68.312 186.277 67.9795 186.111 67.6748C185.748 67.0016 185.045 66.5833 184.28 66.5833Z" fill="#0000FF"/>
<path d="M184.283 70.4645C183.643 70.4645 183.022 70.121 182.695 69.5199C182.222 68.6445 182.549 67.553 183.424 67.0793L205.002 55.4248C205.877 54.9511 206.968 55.2779 207.442 56.1533C207.916 57.0288 207.589 58.1202 206.714 58.594L185.136 70.2485C184.864 70.3953 184.571 70.4645 184.283 70.4645Z" fill="#0000FF"/>
<path d="M214.207 54.3027C213.567 54.3027 212.947 53.9592 212.622 53.3581C212.149 52.4827 212.476 51.3912 213.351 50.9175L222.147 46.1665C223.022 45.6928 224.114 46.0196 224.587 46.8951C225.061 47.7705 224.734 48.8619 223.859 49.3357L215.063 54.0867C214.792 54.2335 214.498 54.3027 214.21 54.3027H214.207Z" fill="#0000FF"/>
<path d="M232.036 37.3765L222.28 42.7729L221.435 48.596L227.072 50.2831L235.796 45.6208L230.053 44.1414L232.036 37.3765Z" fill="#0000FF"/>
<path d="M227.072 52.0838C226.898 52.0838 226.726 52.0589 226.557 52.009L220.919 50.3219C220.063 50.0671 219.526 49.2221 219.653 48.3384L220.498 42.5153C220.579 41.9585 220.917 41.4709 221.41 41.1995L231.167 35.803C231.807 35.4512 232.593 35.5176 233.164 35.972C233.735 36.4291 233.973 37.1826 233.765 37.8835L232.305 42.8616L236.247 43.8783C236.965 44.0639 237.497 44.6706 237.585 45.4075C237.674 46.1444 237.3 46.8591 236.646 47.2109L227.923 51.8733C227.66 52.0146 227.369 52.0866 227.075 52.0866L227.072 52.0838ZM223.44 47.3162L226.878 48.344L230.873 46.2109L229.604 45.884C229.131 45.7621 228.729 45.4546 228.488 45.0307C228.247 44.6069 228.189 44.1027 228.324 43.6345L229.075 41.072L223.934 43.9171L223.44 47.3162Z" fill="#0000FF"/>
<path d="M114.256 4.55164C113.572 5.26636 113.004 6.09744 112.591 7.01163C112.225 7.81501 111.973 8.6821 111.862 9.59629H26.2613C19.1445 9.59629 13.2909 14.9845 12.554 21.9046C10.6647 21.9323 8.89448 22.4586 7.37361 23.3617V20.1288C7.37361 11.5244 14.3491 4.55164 22.9508 4.55164H114.256Z" fill="#0000FF"/>
<path d="M7.37364 25.1624C7.06614 25.1624 6.75864 25.0848 6.48161 24.9269C5.91925 24.6056 5.57297 24.01 5.57297 23.3617V20.1288C5.57297 10.5465 13.3685 2.75098 22.9508 2.75098H114.256C114.976 2.75098 115.63 3.18037 115.913 3.84523C116.195 4.51009 116.057 5.27746 115.558 5.79827C115.004 6.37725 114.558 7.03657 114.234 7.75407C113.932 8.41617 113.738 9.10873 113.652 9.81515C113.541 10.7183 112.774 11.3997 111.865 11.3997H26.2613C20.1169 11.3997 14.9946 15.9984 14.3436 22.0985C14.2467 23.0044 13.4904 23.6942 12.579 23.708C11.0636 23.7302 9.58154 24.1457 8.29059 24.9131C8.00803 25.0821 7.68945 25.1652 7.37087 25.1652L7.37364 25.1624ZM22.9508 6.35232C15.3548 6.35232 9.17431 12.5328 9.17431 20.1288V20.622C9.76992 20.4447 10.3766 20.3117 10.9944 20.223C12.4626 13.0425 18.7788 7.79563 26.2613 7.79563H110.391C110.53 7.30529 110.705 6.82327 110.912 6.35232H22.9508Z" fill="#0000FF"/>
<path d="M145.973 98.6879H26.2613C18.5073 98.6879 11.8698 92.9036 10.8198 85.2355C10.7506 84.7202 10.9057 84.1994 11.2465 83.8088C11.5872 83.4155 12.0831 83.1911 12.6039 83.1911H19.4603C20.2332 83.1911 20.9175 83.6842 21.1668 84.4128C22.2721 87.6761 25.3305 89.8702 28.7767 89.8702H89.2239C93.648 89.8702 97.2493 86.2688 97.2493 81.8447V38.4097C97.2493 35.3458 95.4653 32.5091 92.7089 31.1766C92.2435 30.9522 91.8972 30.5394 91.7586 30.0435C90.7032 26.3092 87.2542 23.6996 83.3731 23.6996H12.7175C12.6925 23.6996 12.6676 23.6996 12.6427 23.6996C12.1163 23.7246 11.6066 23.5196 11.2465 23.1373C10.8863 22.755 10.709 22.2342 10.7644 21.7106C11.6094 13.7766 18.2719 7.79279 26.2613 7.79279H108.602C109.311 7.79279 109.954 8.20833 110.245 8.85657C110.536 9.50481 110.419 10.2611 109.945 10.7902C108.99 11.8651 108.391 13.1893 108.217 14.6159C108.181 14.9013 108.164 15.1949 108.164 15.4913V38.0496C108.164 41.9585 111.344 45.1387 115.253 45.1387H152.017C152.644 45.1387 153.261 45.0584 153.854 44.8977C155.525 44.4517 156.968 43.4101 157.926 41.964C158.032 41.8089 158.115 41.6731 158.187 41.5429C158.586 40.8282 159.42 40.4736 160.212 40.6814C161.004 40.8891 161.558 41.6039 161.558 42.4239V83.0969C161.558 85.8755 160.819 88.6014 159.42 90.9783C156.63 95.732 151.477 98.6852 145.973 98.6852V98.6879ZM14.8561 86.7924C16.4269 91.6404 21.0116 95.0866 26.2613 95.0866H145.973C150.206 95.0866 154.17 92.815 156.314 89.1582C157.389 87.3326 157.957 85.2383 157.957 83.0996V46.9422C156.996 47.5849 155.926 48.0724 154.79 48.3772C153.896 48.6182 152.962 48.7428 152.017 48.7428H115.253C109.358 48.7428 104.563 43.9475 104.563 38.0524V15.4941C104.563 15.0509 104.591 14.6076 104.643 14.1782C104.762 13.2142 105.009 12.2806 105.375 11.3969H26.2613C20.8066 11.3969 16.1581 15.0204 14.7287 20.1011H83.3703C88.5922 20.1011 93.2574 23.4365 94.9805 28.3066C98.5707 30.3594 100.851 34.2405 100.851 38.4097V81.8447C100.851 88.2551 95.6343 93.4715 89.2239 93.4715H28.7767C24.2279 93.4715 20.1473 90.8342 18.2469 86.7924H14.8533H14.8561Z" fill="#0000FF"/>
<path d="M164.86 38.1577V93.2167C164.86 94.2916 164.752 95.3387 164.545 96.3499C163.093 103.453 156.81 108.797 149.28 108.797H97.277V125.199H74.957V108.797H22.9508C14.3491 108.797 7.37361 101.821 7.37361 93.2167V83.5319C8.90833 84.4405 10.6952 84.9696 12.6039 84.9918C13.5236 91.7125 19.2885 96.8873 26.2613 96.8873H145.973C151.042 96.8873 155.475 94.1475 157.868 90.0697C159.071 88.0252 159.758 85.6428 159.758 83.0997V41.8339C159.877 41.8034 159.993 41.7674 160.109 41.7314C162.073 41.1191 163.747 39.8393 164.86 38.1577Z" fill="#0000FF"/>
<path d="M97.277 127H74.957C73.9625 127 73.1563 126.194 73.1563 125.199V110.597H22.9508C13.3685 110.597 5.57297 102.799 5.57297 93.2166V83.5318C5.57297 82.8863 5.91925 82.2879 6.48161 81.9666C7.04398 81.6452 7.73377 81.6508 8.29059 81.9804C9.59539 82.7533 11.0941 83.1716 12.6233 83.1883C13.5153 83.1993 14.2661 83.8614 14.3852 84.7452C15.1913 90.6403 20.2969 95.0838 26.2585 95.0838H145.97C150.203 95.0838 154.167 92.8122 156.311 89.1554C157.386 87.3298 157.954 85.2355 157.954 83.0968V41.8338C157.954 41.011 158.511 40.2935 159.306 40.0885C159.397 40.0663 159.486 40.0359 159.572 40.0109C161.112 39.5317 162.456 38.5205 163.353 37.1631C163.791 36.501 164.614 36.2046 165.373 36.4345C166.135 36.6645 166.656 37.3653 166.656 38.1576V93.2166C166.656 94.3967 166.536 95.5741 166.304 96.7127C164.658 104.758 157.497 110.597 149.275 110.597H99.0722V125.199C99.0722 126.194 98.266 127 97.2715 127H97.277ZM76.7577 123.399H95.4763V108.797C95.4763 107.802 96.2825 106.996 97.277 106.996H149.28C155.799 106.996 161.478 102.367 162.78 95.9897C162.966 95.0865 163.06 94.1557 163.06 93.2166V42.349C162.58 42.6454 162.079 42.9031 161.558 43.1192V83.0996C161.558 85.8782 160.819 88.6041 159.42 90.981C156.63 95.7348 151.477 98.6879 145.973 98.6879H26.2613C19.0032 98.6879 12.723 93.6211 11.0886 86.6843C10.4403 86.5985 9.80039 86.4599 9.17431 86.2716V93.2166C9.17431 100.815 15.3548 106.996 22.9508 106.996H74.957C75.9515 106.996 76.7577 107.802 76.7577 108.797V123.399Z" fill="#0000FF"/>
<path d="M89.2239 93.4716H28.7767C23.7847 93.4716 19.355 90.2968 17.7538 85.5708C17.5682 85.0223 17.6569 84.4156 17.9948 83.9446C18.3328 83.4737 18.8785 83.1939 19.4575 83.1939H83.3675C88.1712 83.1939 92.08 79.285 92.08 74.4814V32.4149C92.08 31.6116 91.9692 30.8137 91.7531 30.0436C91.562 29.3621 91.7864 28.6308 92.3293 28.1764C92.8723 27.7221 93.6314 27.6279 94.2685 27.9354C98.266 29.8635 100.848 33.9746 100.848 38.4098V81.8448C100.848 88.2552 95.6315 93.4716 89.2211 93.4716H89.2239ZM22.4522 86.7924C23.9454 88.6984 26.2585 89.8702 28.7767 89.8702H89.2239C93.648 89.8702 97.2493 86.2689 97.2493 81.8448V38.4098C97.2493 36.6784 96.6786 35.0162 95.6841 33.6588V74.4786C95.6841 81.2685 90.1602 86.7924 83.3703 86.7924H22.4522Z" fill="#0000FF"/>
<path d="M83.3703 86.7924H12.6039C10.4237 86.7675 8.30444 86.1746 6.45667 85.0804C2.72512 82.8753 0.403643 78.8113 0.403643 74.4786V32.4149C0.403643 28.0822 2.72235 24.0182 6.45667 21.8103C8.27673 20.7299 10.3655 20.1399 12.5014 20.1038C12.5734 20.1038 12.6427 20.1011 12.7175 20.1011H83.3703C88.8582 20.1011 93.7338 23.7883 95.2242 29.0656C95.5317 30.1571 95.6869 31.2819 95.6869 32.4149V74.4786C95.6869 81.2685 90.163 86.7924 83.373 86.7924H83.3703ZM12.6787 23.7024C12.6787 23.7024 12.6537 23.7024 12.6427 23.7024C12.6233 23.7024 12.6011 23.7024 12.5817 23.7024C11.0664 23.7246 9.5843 24.1401 8.29335 24.9075C5.64775 26.4699 4.00499 29.3454 4.00499 32.4121V74.4758C4.00499 77.5425 5.64775 80.418 8.29058 81.9777C9.59815 82.7506 11.0969 83.1689 12.626 83.1883H83.3703C88.1739 83.1883 92.0828 79.2795 92.0828 74.4758V32.4149C92.0828 31.6115 91.9719 30.8137 91.7559 30.0436C90.7032 26.312 87.2542 23.7024 83.3703 23.7024H12.7175C12.7175 23.7024 12.6898 23.7024 12.6787 23.7024Z" fill="#0000FF"/>
<path d="M40.4921 70.4645C39.4976 70.4645 38.6915 69.6584 38.6915 68.6638V42.1386C38.6915 41.144 39.4976 40.3379 40.4921 40.3379C41.4867 40.3379 42.2928 41.144 42.2928 42.1386V68.6638C42.2928 69.6584 41.4867 70.4645 40.4921 70.4645Z" fill="#0000FF"/>
<path d="M30.9153 70.4645C29.9208 70.4645 29.1147 69.6584 29.1147 68.6638V53.2418C29.1147 52.2472 29.9208 51.4411 30.9153 51.4411C31.9099 51.4411 32.716 52.2472 32.716 53.2418V68.6638C32.716 69.6584 31.9099 70.4645 30.9153 70.4645Z" fill="#0000FF"/>
<path d="M21.9369 71.6723C20.9424 71.6723 20.1362 70.8661 20.1362 69.8716V45.5293C20.1362 44.5348 20.9424 43.7286 21.9369 43.7286C22.9314 43.7286 23.7376 44.5348 23.7376 45.5293V69.8716C23.7376 70.8661 22.9314 71.6723 21.9369 71.6723Z" fill="#0000FF"/>
<path d="M74.957 47.33H52.8641C51.8696 47.33 51.0635 46.5238 51.0635 45.5293C51.0635 44.5348 51.8696 43.7286 52.8641 43.7286H74.957C75.9515 43.7286 76.7577 44.5348 76.7577 45.5293C76.7577 46.5238 75.9515 47.33 74.957 47.33Z" fill="#0000FF"/>
<path d="M65.4328 53.7155H52.8641C51.8696 53.7155 51.0635 52.9093 51.0635 51.9148C51.0635 50.9203 51.8696 50.1141 52.8641 50.1141H65.4328C66.4274 50.1141 67.2335 50.9203 67.2335 51.9148C67.2335 52.9093 66.4274 53.7155 65.4328 53.7155Z" fill="#0000FF"/>
<path d="M71.3556 59.4998H52.8614C51.8668 59.4998 51.0607 58.6936 51.0607 57.6991C51.0607 56.7046 51.8668 55.8984 52.8614 55.8984H71.3556C72.3502 55.8984 73.1563 56.7046 73.1563 57.6991C73.1563 58.6936 72.3502 59.4998 71.3556 59.4998Z" fill="#0000FF"/>
<path d="M80.2454 65.2869H52.8614C51.8668 65.2869 51.0607 64.4807 51.0607 63.4862C51.0607 62.4917 51.8668 61.6855 52.8614 61.6855H80.2454C81.2399 61.6855 82.0461 62.4917 82.0461 63.4862C82.0461 64.4807 81.2399 65.2869 80.2454 65.2869Z" fill="#0000FF"/>
<path d="M157.45 43.9392H120.686C114.791 43.9392 109.995 39.1439 109.995 33.2488V10.6905C109.995 10.2473 110.023 9.80403 110.076 9.37463C110.206 8.30808 110.499 7.25815 110.951 6.2664C111.441 5.18046 112.117 4.18316 112.954 3.30776C114.993 1.17465 117.738 6.10352e-05 120.686 6.10352e-05H157.45C163.345 6.10352e-05 168.14 4.79539 168.14 10.6905V33.2488C168.14 35.3625 167.525 37.4042 166.359 39.155C165.007 41.1967 162.977 42.7231 160.644 43.4489C160.497 43.496 160.35 43.5375 160.204 43.5763C159.325 43.8146 158.392 43.9365 157.45 43.9365V43.9392ZM120.686 3.6014C118.733 3.6014 116.91 4.37985 115.558 5.79545C115.004 6.37444 114.558 7.03376 114.234 7.75126C113.932 8.41335 113.738 9.10592 113.652 9.81234C113.616 10.1004 113.599 10.3941 113.599 10.6905V33.2488C113.599 37.1576 116.78 40.3379 120.689 40.3379H157.453C158.079 40.3379 158.697 40.2575 159.289 40.0969C159.403 40.0664 159.492 40.0387 159.58 40.011C161.121 39.5317 162.464 38.5206 163.362 37.1632C164.135 36.0024 164.542 34.6505 164.542 33.2488V10.6905C164.542 6.78167 161.362 3.6014 157.453 3.6014H120.689H120.686Z" fill="#0000FF"/>
<path d="M152.017 48.7429H115.253C109.358 48.7429 104.563 43.9475 104.563 38.0524V15.4942C104.563 15.0509 104.591 14.6077 104.643 14.1783C104.906 12.023 105.812 10.0229 107.258 8.39951C107.599 8.01444 108.089 7.79559 108.605 7.79559H111.865C112.38 7.79559 112.874 8.01721 113.214 8.40505C113.555 8.79289 113.716 9.30816 113.652 9.81789C113.616 10.1005 113.599 10.3941 113.599 10.6905V33.2488C113.599 37.1576 116.78 40.3379 120.689 40.3379H157.453C158.079 40.3379 158.697 40.2576 159.289 40.0969C159.83 39.9501 160.409 40.0636 160.855 40.4044C161.301 40.7451 161.561 41.2742 161.561 41.8338V42.4267C161.561 42.7342 161.481 43.0389 161.331 43.3076C161.215 43.5182 161.082 43.7315 160.929 43.9614C159.489 46.1361 157.309 47.7068 154.793 48.3772C153.898 48.6182 152.965 48.7429 152.02 48.7429H152.017ZM109.466 11.3969C108.79 12.3471 108.361 13.4469 108.217 14.6188C108.181 14.9041 108.164 15.1977 108.164 15.4942V38.0524C108.164 41.9613 111.344 45.1415 115.253 45.1415H152.017C152.644 45.1415 153.261 45.0612 153.854 44.9005C154.613 44.6983 155.328 44.3714 155.968 43.9392H120.683C114.788 43.9392 109.993 39.1439 109.993 33.2488V11.3969H109.463H109.466Z" fill="#0000FF"/>
<path d="M134.706 36.0633C132.088 36.0633 130.224 32.6753 127.894 28.4396C126.778 26.4117 125.622 24.3119 124.511 22.8963C124.301 22.6276 123.763 22.007 123.367 22.0735C122.395 22.2314 120.461 24.7967 119.242 28.2207C118.91 29.1571 117.879 29.6474 116.943 29.315C116.007 28.9825 115.516 27.952 115.849 27.0157C116.314 25.7109 118.83 19.1647 122.788 18.5193C123.949 18.3309 125.681 18.5497 127.345 20.6745C128.636 22.3201 129.864 24.5501 131.049 26.7026C132.052 28.5227 133.659 31.4453 134.606 32.2847C134.817 31.9467 135.169 31.2181 135.562 29.7083C138.053 20.1343 140.579 13.6076 144.798 12.8624C147.048 12.4662 149.253 13.8126 151.358 16.8654C152.668 18.763 153.447 19.414 153.79 19.6301C154.458 18.5857 154.929 14.9456 155.192 12.9205C155.27 12.3277 155.345 11.7404 155.425 11.1725C155.563 10.1863 156.475 9.50204 157.458 9.64055C158.442 9.77907 159.129 10.6877 158.99 11.6739C158.913 12.2308 158.838 12.807 158.763 13.386C158.126 18.2976 157.575 22.5389 154.652 23.2481C152.167 23.8492 150.001 21.2452 148.391 18.9126C147.228 17.2228 146.114 16.2892 145.421 16.4111C145.103 16.4665 143.937 16.9264 142.338 20.4778C141.28 22.827 140.233 26.0488 139.044 30.617C138.427 32.9883 137.421 35.7475 135.094 36.0384C134.964 36.055 134.833 36.0633 134.706 36.0633Z" fill="#0000FF"/>
</g>
<defs>
<clipPath id="clip0_41_730">
<rect width="237.193" height="127" fill="white" transform="translate(0.403603)"/>
</clipPath>
</defs>
</svg>
