<svg width="164" height="127" viewBox="0 0 164 127" fill="none" xmlns="http://www.w3.org/2000/svg">
<g clip-path="url(#clip0_53_121)">
<path d="M72.6451 90.2507H63.6169C58.6805 90.2507 54.6637 86.2339 54.6637 81.2975V75.1634C54.6637 74.5657 55.0025 74.0188 55.5372 73.755C58.3563 72.3564 60.1082 69.5349 60.1082 66.3916V62.4571C60.1082 59.3138 58.3563 56.4947 55.5397 55.1009C55.0049 54.8348 54.6637 54.2903 54.6637 53.6902V46.7285C54.6637 41.7921 58.6805 37.7753 63.6169 37.7753H72.6451C73.5138 37.7753 74.218 38.4794 74.218 39.3481C74.218 40.2168 73.5138 40.921 72.6451 40.921C69.4437 40.921 66.8376 43.5271 66.8376 46.7285V81.2975C66.8376 84.4989 69.4437 87.105 72.6451 87.105C73.5138 87.105 74.218 87.8092 74.218 88.6779C74.218 89.5466 73.5138 90.2507 72.6451 90.2507ZM57.8094 76.0926V81.2975C57.8094 84.4989 60.4155 87.105 63.6169 87.105H65.8358C64.5001 85.5394 63.6919 83.5116 63.6919 81.2975V46.7285C63.6919 44.5144 64.5001 42.4866 65.8358 40.921H63.6169C60.4155 40.921 57.8094 43.5271 57.8094 46.7285V52.761C61.1923 54.813 63.2539 58.4451 63.2539 62.4571V66.3916C63.2539 70.4036 61.1923 74.0357 57.8094 76.0926Z" fill="#0000FF"/>
<path d="M105.731 79.7537C105.424 79.7537 105.116 79.6642 104.852 79.4851C104.395 79.1778 104.131 78.6503 104.16 78.101V78.0429L104.163 75.4562C104.163 74.8609 104.499 74.3165 105.032 74.0503C105.131 73.9995 105.23 73.9438 105.324 73.8785L130.151 56.623C130.633 56.2891 131.257 56.2504 131.777 56.5214C132.295 56.7924 132.622 57.3296 132.622 57.9152V76.9686C132.622 77.8373 131.918 78.5414 131.049 78.5414H111.246C109.549 78.5414 107.918 78.902 106.396 79.611C106.186 79.7102 105.958 79.7586 105.733 79.7586L105.731 79.7537ZM129.476 60.9181L108.199 75.7054C109.191 75.4949 110.21 75.3884 111.246 75.3884H129.476V60.9157V60.9181Z" fill="#0000FF"/>
<path d="M98.1569 77.7477H88.6883C85.4216 77.7477 82.7623 75.0884 82.7623 71.8217V69.8713H77.4291C73.5792 69.8713 70.4456 66.7377 70.4456 62.8878V54.1185C70.4456 50.2686 73.5792 47.135 77.4291 47.135H117.648C121.498 47.135 124.629 50.2686 124.629 54.1185V54.2347C124.629 54.7501 124.378 55.2316 123.954 55.5268L107.267 67.1224C107.246 67.1394 107.226 67.1539 107.205 67.1684L102.786 70.2391C102.742 70.2706 102.682 70.3141 102.626 70.3601C102.343 70.5948 101.99 70.7231 101.622 70.7231H100.129C99.9089 70.7231 99.7298 70.9021 99.7298 71.1223V76.1748C99.7298 77.0436 99.0256 77.7477 98.1569 77.7477ZM77.4291 50.2807C75.3117 50.2807 73.5913 52.0012 73.5913 54.1185V62.8878C73.5913 65.0051 75.3142 66.7256 77.4291 66.7256H84.3351C85.2038 66.7256 85.908 67.4297 85.908 68.2985V71.8217C85.908 73.3558 87.1542 74.602 88.6883 74.602H96.5841V71.1223C96.5841 69.1672 98.1739 67.5774 100.129 67.5774H101.104L105.346 64.6301C105.368 64.6131 105.39 64.5986 105.411 64.5817L121.428 53.4531C121.111 51.6527 119.538 50.2807 117.651 50.2807H77.4315H77.4291Z" fill="#0000FF"/>
<path d="M98.2295 90.2507H72.6451C67.7087 90.2507 63.6919 86.2339 63.6919 81.2975V46.7285C63.6919 41.7921 67.7087 37.7753 72.6451 37.7753H123.671C128.607 37.7753 132.622 41.7921 132.622 46.7285V48.6788C132.622 49.1942 132.368 49.6782 131.944 49.971L131.228 50.467L123.954 55.5244C123.473 55.8583 122.846 55.8995 122.328 55.626C121.81 55.355 121.484 54.8178 121.484 54.2322V54.1161C121.484 51.9988 119.763 50.2783 117.648 50.2783H77.429C75.3117 50.2783 73.5912 51.9988 73.5912 54.1161V62.8854C73.5912 65.0027 75.3141 66.7232 77.429 66.7232H84.3351C85.2038 66.7232 85.9079 67.4273 85.9079 68.296V71.8192C85.9079 73.3534 87.1541 74.5996 88.6883 74.5996H98.1569C99.0256 74.5996 99.7297 75.3037 99.7297 76.1724V78.0405C99.7297 78.2607 99.9088 78.4398 100.129 78.4398H102.844C103.505 78.4398 104.095 78.8535 104.323 79.4754C104.548 80.0973 104.361 80.7942 103.855 81.2177C101.547 83.1511 100.105 85.8588 99.7951 88.8376C99.7128 89.6385 99.0377 90.2483 98.2319 90.2483L98.2295 90.2507ZM72.6451 40.921C69.4437 40.921 66.8376 43.5271 66.8376 46.7285V81.2975C66.8376 84.4989 69.4437 87.105 72.6451 87.105H96.8817C97.2954 85.07 98.1303 83.1656 99.3329 81.4984C97.76 81.1354 96.584 79.7247 96.584 78.0429V77.7477H88.6883C85.4216 77.7477 82.7622 75.0884 82.7622 71.8216V69.8713H77.429C73.5791 69.8713 70.4455 66.7377 70.4455 62.8878V54.1185C70.4455 50.2686 73.5791 47.135 77.429 47.135H117.648C120.596 47.135 123.122 48.9716 124.145 51.5608L129.476 47.8537V46.7261C129.476 43.5247 126.872 40.9186 123.671 40.9186H72.6451V40.921Z" fill="#0000FF"/>
<path d="M98.1569 77.7477H88.6883C85.4216 77.7477 82.7623 75.0884 82.7623 71.8217V69.8713H77.4291C73.5792 69.8713 70.4456 66.7377 70.4456 62.8878V54.1185C70.4456 50.2686 73.5792 47.135 77.4291 47.135H117.648C121.498 47.135 124.629 50.2686 124.629 54.1185V54.2347C124.629 54.7501 124.378 55.2316 123.954 55.5268L107.267 67.1224C107.246 67.1394 107.226 67.1539 107.205 67.1684L102.786 70.2391C102.742 70.2706 102.682 70.3141 102.626 70.3601C102.343 70.5948 101.99 70.7231 101.622 70.7231H100.129C99.9089 70.7231 99.7298 70.9021 99.7298 71.1223V76.1748C99.7298 77.0436 99.0256 77.7477 98.1569 77.7477ZM77.4291 50.2807C75.3117 50.2807 73.5913 52.0012 73.5913 54.1185V62.8878C73.5913 65.0051 75.3142 66.7256 77.4291 66.7256H84.3351C85.2038 66.7256 85.908 67.4297 85.908 68.2985V71.8217C85.908 73.3558 87.1542 74.602 88.6883 74.602H96.5841V71.1223C96.5841 69.1672 98.1739 67.5774 100.129 67.5774H101.104L105.346 64.6301C105.368 64.6131 105.39 64.5986 105.411 64.5817L121.428 53.4531C121.111 51.6527 119.538 50.2807 117.651 50.2807H77.4315H77.4291Z" fill="#0000FF"/>
<path d="M90.7693 28.9092C87.8874 28.9092 85.2789 30.0779 83.389 31.9678C81.4991 33.8576 80.3304 36.4662 80.3304 39.3481H74.6826V37.4704C74.6826 32.7421 78.5156 28.9092 83.2438 28.9092H90.7693Z" fill="#0000FF"/>
<path d="M80.3304 40.921H74.6826C73.8139 40.921 73.1097 40.2168 73.1097 39.3481V37.4704C73.1097 31.8831 77.6565 27.3363 83.2438 27.3363H90.7693C91.638 27.3363 92.3422 28.0405 92.3422 28.9092C92.3422 29.7779 91.638 30.482 90.7693 30.482C88.4028 30.482 86.1766 31.404 84.5021 33.0809C82.8276 34.7554 81.9032 36.9816 81.9032 39.3481C81.9032 40.2168 81.1991 40.921 80.3304 40.921ZM76.2555 37.7753H78.8591C79.1979 35.1643 80.3836 32.7494 82.2759 30.8547C82.3945 30.7361 82.5154 30.62 82.6389 30.5062C79.0673 30.8135 76.2555 33.8189 76.2555 37.4679V37.7728V37.7753Z" fill="#0000FF"/>
<path d="M109.985 40.921H80.3304C79.4617 40.921 78.7575 40.2168 78.7575 39.3481C78.7575 36.1419 80.0085 33.1244 82.2759 30.8547C84.5456 28.5849 87.5607 27.3363 90.7693 27.3363H104.323C108.313 27.3363 111.558 30.5812 111.558 34.5715V39.3481C111.558 40.2168 110.854 40.921 109.985 40.921ZM82.0412 37.7753H108.412V34.5715C108.412 32.3162 106.578 30.482 104.323 30.482H90.7693C88.4028 30.482 86.1766 31.404 84.5021 33.0809C83.2051 34.3779 82.3581 36.0064 82.0436 37.7753H82.0412Z" fill="#0000FF"/>
<path d="M86.2855 96.5421H86.2734L86.1911 96.7478H82.9316C79.6335 96.7478 76.962 94.0764 76.962 90.7782V90.0813H81.262C81.262 91.9228 82.0073 93.59 83.2148 94.795C84.0496 95.6299 85.1046 96.2445 86.2855 96.5421Z" fill="#0000FF"/>
<path d="M86.1911 98.3207H82.9316C78.772 98.3207 75.3892 94.9378 75.3892 90.7782V90.0813C75.3892 89.2126 76.0933 88.5084 76.962 88.5084H81.262C82.1307 88.5084 82.8348 89.2126 82.8348 90.0813C82.8348 91.4436 83.3648 92.7213 84.3254 93.6819C84.9764 94.3328 85.787 94.795 86.6702 95.0177C87.4397 95.2112 87.9454 95.9493 87.8462 96.7357C87.822 96.939 87.7591 97.1277 87.6647 97.2971L87.6502 97.331C87.4107 97.9287 86.8323 98.3207 86.1887 98.3207H86.1911ZM78.622 91.6541C78.91 93.0721 79.8827 94.2433 81.1773 94.8095C80.5118 93.8634 80.0569 92.7914 79.8367 91.6541H78.622Z" fill="#0000FF"/>
<path d="M98.1569 98.3207H86.1911C85.6684 98.3207 85.182 98.0618 84.8892 97.6287C84.5964 97.1955 84.5383 96.6463 84.7319 96.1623L84.8142 95.9566C85.0538 95.3589 85.6321 94.9669 86.2758 94.9669C86.2854 94.9669 86.3048 94.9669 86.3145 94.9669L98.1859 95.1726C99.0498 95.1871 99.7394 95.8961 99.7322 96.76C99.7249 97.6238 99.0232 98.3183 98.1593 98.3183L98.1569 98.3207Z" fill="#0000FF"/>
<path d="M98.1569 98.3208C98.1569 98.3208 98.1375 98.3208 98.1303 98.3208L86.2588 98.1151C86.1378 98.1151 86.0192 98.0981 85.9007 98.0667C84.4682 97.7061 83.1542 96.9584 82.1016 95.9058C80.5457 94.3523 79.6891 92.2834 79.6891 90.079C79.6891 89.2103 80.3932 88.5061 81.2619 88.5061H98.1569C99.0256 88.5061 99.7297 89.2103 99.7297 90.079V96.7455C99.7297 97.1665 99.5604 97.5706 99.2603 97.8683C98.9651 98.1586 98.5707 98.3183 98.1569 98.3183V98.3208ZM86.5056 94.9742L96.584 95.1484V91.6542H83.0816C83.326 92.4116 83.7471 93.1037 84.3278 93.682C84.94 94.2942 85.6902 94.737 86.508 94.9742H86.5056Z" fill="#0000FF"/>
<path d="M98.1569 98.3206H87.9309C87.2389 98.3206 86.5541 98.2359 85.8935 98.0666C85.1215 97.8681 84.6182 97.1228 84.7271 96.3316C84.8336 95.55 85.499 94.9692 86.2855 94.9692C86.2951 94.9692 86.3048 94.9692 86.3121 94.9692L98.1835 95.1749C99.0474 95.1894 99.737 95.8984 99.7298 96.7623C99.7225 97.6262 99.0208 98.3206 98.1569 98.3206Z" fill="#0000FF"/>
<path d="M102.822 69.8713H77.4291C73.5792 69.8713 70.4456 66.7377 70.4456 62.8878V54.1185C70.4456 50.2686 73.5792 47.135 77.4291 47.135H117.648C121.498 47.135 124.629 50.2686 124.629 54.1185V54.2347C124.629 54.7501 124.378 55.2316 123.954 55.5268L107.267 67.1224C107.246 67.1394 107.226 67.1539 107.205 67.1684L103.72 69.5906C103.456 69.7745 103.144 69.8713 102.822 69.8713ZM77.4291 50.2807C75.3117 50.2807 73.5913 52.0012 73.5913 54.1185V62.8878C73.5913 65.0051 75.3142 66.7256 77.4291 66.7256H102.329L105.344 64.6301C105.365 64.6131 105.387 64.5986 105.409 64.5817L121.426 53.4531C121.109 51.6527 119.536 50.2807 117.648 50.2807H77.4291Z" fill="#0000FF"/>
<path d="M98.1569 77.7477H88.6883C85.4216 77.7477 82.7622 75.0884 82.7622 71.8217V68.2984C82.7622 67.4297 83.4664 66.7256 84.3351 66.7256H102.822C103.509 66.7256 104.117 67.1732 104.323 67.829C104.528 68.4848 104.284 69.1986 103.718 69.5906L102.784 70.2391C102.74 70.2706 102.679 70.3141 102.624 70.3601C102.341 70.5948 101.987 70.7231 101.62 70.7231H100.127C99.9064 70.7231 99.7274 70.9021 99.7274 71.1223V76.1748C99.7274 77.0435 99.0232 77.7477 98.1545 77.7477H98.1569ZM85.908 69.8713V71.8217C85.908 73.3558 87.1542 74.602 88.6883 74.602H96.584V71.1223C96.584 70.6819 96.6639 70.2609 96.8115 69.8713H85.908Z" fill="#0000FF"/>
<path d="M102.503 60.076C101.027 60.076 99.8242 58.8758 99.8242 57.3973C99.8242 55.9188 101.024 54.7186 102.503 54.7186C103.981 54.7186 105.182 55.9188 105.182 57.3973C105.182 58.8758 103.981 60.076 102.503 60.076ZM102.503 56.9303C102.244 56.9303 102.036 57.1408 102.036 57.3973C102.036 57.6538 102.246 57.8643 102.503 57.8643C102.759 57.8643 102.97 57.6538 102.97 57.3973C102.97 57.1408 102.759 56.9303 102.503 56.9303Z" fill="#0000FF"/>
<path d="M91.2339 73.8083C90.3652 73.8083 89.661 73.1042 89.661 72.2355C89.661 71.3668 90.3652 70.6626 91.2339 70.6626C92.1026 70.6626 92.8068 71.3668 92.8068 72.2355C92.8068 73.1042 92.1026 73.8083 91.2339 73.8083Z" fill="#0000FF"/>
<path d="M97.5423 73.8083C96.6736 73.8083 95.9694 73.1042 95.9694 72.2355C95.9694 71.3668 96.6736 70.6626 97.5423 70.6626C98.411 70.6626 99.1151 71.3668 99.1151 72.2355C99.1151 73.1042 98.411 73.8083 97.5423 73.8083Z" fill="#0000FF"/>
<path d="M108.879 60.076C107.403 60.076 106.2 58.8758 106.2 57.3973C106.2 55.9188 107.401 54.7186 108.879 54.7186C110.357 54.7186 111.558 55.9188 111.558 57.3973C111.558 58.8758 110.357 60.076 108.879 60.076ZM108.879 56.9303C108.62 56.9303 108.412 57.1408 108.412 57.3973C108.412 57.6538 108.622 57.8643 108.879 57.8643C109.135 57.8643 109.346 57.6538 109.346 57.3973C109.346 57.1408 109.135 56.9303 108.879 56.9303Z" fill="#0000FF"/>
<path d="M115.255 60.076C113.779 60.076 112.576 58.8758 112.576 57.3973C112.576 55.9188 113.777 54.7186 115.255 54.7186C116.734 54.7186 117.934 55.9188 117.934 57.3973C117.934 58.8758 116.734 60.076 115.255 60.076ZM115.255 56.9303C114.996 56.9303 114.788 57.1408 114.788 57.3973C114.788 57.6538 114.999 57.8643 115.255 57.8643C115.512 57.8643 115.722 57.6538 115.722 57.3973C115.722 57.1408 115.512 56.9303 115.255 56.9303Z" fill="#0000FF"/>
<path d="M83.1252 29.6569C82.0315 29.6569 80.9547 29.4802 79.919 29.1318C74.6899 27.3847 71.0336 21.5022 71.0336 14.8284C71.0336 8.15468 74.6899 2.27218 79.9239 0.522674C80.9523 0.176644 82.0315 0 83.1252 0C87.5897 0 91.6719 2.98843 93.7771 7.79655C94.7184 9.9429 95.2169 12.3724 95.2169 14.8284C95.2169 17.2845 94.7184 19.714 93.7771 21.8603C91.6695 26.6684 87.5873 29.6569 83.1252 29.6569ZM83.1252 3.14572C82.3751 3.14572 81.6346 3.26671 80.9257 3.50627C76.9524 4.83231 74.1793 9.48798 74.1793 14.8284C74.1793 20.1689 76.9524 24.8246 80.9208 26.1482C81.6347 26.3878 82.3751 26.5112 83.1252 26.5112C86.3218 26.5112 89.2981 24.2462 90.8976 20.5972C91.6647 18.8453 92.0712 16.8514 92.0712 14.8284C92.0712 12.8055 91.6647 10.8116 90.8976 9.05967C89.2981 5.41064 86.3218 3.14572 83.1252 3.14572Z" fill="#0000FF"/>
<path d="M72.6064 14.8285C72.6064 20.9723 75.9215 26.1385 80.4223 27.6412C79.5584 27.9292 78.6534 28.084 77.717 28.084C71.9071 28.084 67.1982 22.1507 67.1982 14.8285C67.1982 7.50619 71.9071 1.57288 77.717 1.57288H83.1252C82.1912 1.57288 81.2837 1.72532 80.4223 2.0157C75.9215 3.51838 72.6064 8.68704 72.6064 14.8285Z" fill="#0000FF"/>
<path d="M77.717 29.6569C71.0505 29.6569 65.6253 23.0049 65.6253 14.8284C65.6253 6.65199 71.0505 0 77.717 0H83.1252C83.9939 0 84.698 0.704157 84.698 1.57286C84.698 2.44156 83.9939 3.14572 83.1252 3.14572C82.375 3.14572 81.6346 3.26671 80.9256 3.50627C76.9523 4.83231 74.1792 9.48798 74.1792 14.8284C74.1792 20.1689 76.9523 24.8246 80.9208 26.1482C81.562 26.3636 81.9951 26.9637 81.9951 27.6412C81.9951 28.3187 81.562 28.9188 80.9208 29.1342C79.8778 29.4827 78.801 29.6569 77.717 29.6569ZM75.2101 3.61274C71.4933 5.03073 68.771 9.52185 68.771 14.8284C68.771 20.135 71.4933 24.6262 75.2101 26.0441C72.6233 23.2904 71.0335 19.2325 71.0335 14.8284C71.0335 10.4244 72.6257 6.36645 75.2101 3.61274Z" fill="#0000FF"/>
<path d="M106.955 29.6569C105.862 29.6569 104.785 29.4802 103.749 29.1318C98.5199 27.3847 94.866 21.5022 94.866 14.8284C94.866 8.15465 98.5199 2.27216 103.754 0.522652C104.782 0.176623 105.862 -0.00244141 106.955 -0.00244141C113.622 -0.00244141 119.047 6.64955 119.047 14.826C119.047 23.0025 113.622 29.6544 106.955 29.6544V29.6569ZM106.955 3.1457C106.205 3.1457 105.465 3.26669 104.756 3.50625C100.782 4.83229 98.0117 9.48796 98.0117 14.8284C98.0117 20.1689 100.782 24.8246 104.751 26.1482C105.465 26.3877 106.205 26.5111 106.955 26.5111C111.887 26.5111 115.901 21.2699 115.901 14.8284C115.901 8.38695 111.889 3.1457 106.955 3.1457Z" fill="#0000FF"/>
<path d="M96.4389 14.8285C96.4389 20.9723 99.754 26.1385 104.252 27.6412C103.391 27.9316 102.484 28.084 101.549 28.084C97.581 28.084 94.128 25.3158 92.3373 21.2288C93.1697 19.3317 93.644 17.149 93.644 14.8285C93.644 12.5079 93.1697 10.3252 92.3373 8.42813C94.128 4.34111 97.581 1.57288 101.549 1.57288H106.955C106.021 1.57288 105.114 1.72532 104.252 2.0157C99.754 3.51838 96.4389 8.68704 96.4389 14.8285Z" fill="#0000FF"/>
<path d="M101.549 29.6569C97.085 29.6569 93.0028 26.6684 90.8976 21.8603C90.7209 21.4587 90.7209 20.9989 90.8976 20.5972C91.6646 18.8477 92.0712 16.8514 92.0712 14.8284C92.0712 12.8055 91.6646 10.8116 90.8976 9.05967C90.7209 8.65799 90.7209 8.19823 90.8976 7.79655C93.0028 2.98843 97.085 0 101.549 0H106.955C107.824 0 108.528 0.704157 108.528 1.57286C108.528 2.44156 107.824 3.14572 106.955 3.14572C106.205 3.14572 105.465 3.26671 104.756 3.50627C100.782 4.83231 98.0117 9.48798 98.0117 14.8284C98.0117 20.1689 100.782 24.8246 104.751 26.1482C105.392 26.3611 105.825 26.9612 105.825 27.6388C105.825 28.3163 105.394 28.9164 104.756 29.1318C103.722 29.4802 102.643 29.6569 101.549 29.6569ZM94.0554 21.1876C95.2338 23.5445 97.0124 25.2505 99.0329 26.032C96.9567 23.8131 95.5218 20.7521 95.0427 17.3474C94.8563 18.6759 94.5248 19.9705 94.0554 21.1876ZM94.0554 8.46925C94.5248 9.68398 94.8563 10.981 95.0427 12.3094C95.5218 8.90481 96.9543 5.84378 99.0329 3.62484C97.0124 4.40643 95.2338 6.11238 94.0554 8.46925Z" fill="#0000FF"/>
<path d="M92.5551 96.7479L74.6826 125.427L86.1911 96.7479H92.5551Z" fill="#0000FF"/>
<path d="M74.6826 127C74.443 127 74.1986 126.944 73.9712 126.831C73.2452 126.463 72.9186 125.599 73.2235 124.842L84.732 96.1623C84.9715 95.5671 85.5498 95.175 86.1911 95.175H92.5551C93.1262 95.175 93.6537 95.4848 93.9296 95.9857C94.2078 96.4842 94.1909 97.0964 93.8884 97.5803L76.0159 126.26C75.7207 126.734 75.2077 127 74.6802 127H74.6826ZM87.2558 98.3208L82.7937 109.437L89.7215 98.3208H87.2558Z" fill="#0000FF"/>
<path d="M98.1569 96.7479V105.583L92.5551 96.7479H98.1569Z" fill="#0000FF"/>
<path d="M98.1569 107.155C97.6294 107.155 97.1212 106.889 96.8284 106.425L91.2266 97.59C90.9193 97.106 90.9 96.4914 91.1758 95.9905C91.4517 95.4872 91.9816 95.175 92.5551 95.175H98.1569C99.0256 95.175 99.7298 95.8792 99.7298 96.7479V105.583C99.7298 106.282 99.2676 106.899 98.5949 107.092C98.4497 107.134 98.3021 107.155 98.1569 107.155ZM95.4153 98.3208L96.584 100.165V98.3208H95.4153Z" fill="#0000FF"/>
<path d="M98.1569 98.3207H86.1911C85.6684 98.3207 85.182 98.0618 84.8892 97.6287C84.5964 97.1955 84.5383 96.6463 84.7319 96.1623L84.8142 95.9566C85.0538 95.3589 85.6321 94.9669 86.2758 94.9669C86.2854 94.9669 86.3048 94.9669 86.3145 94.9669L98.1859 95.1726C99.0498 95.1871 99.7394 95.8961 99.7322 96.76C99.7249 97.6238 99.0232 98.3183 98.1593 98.3183L98.1569 98.3207Z" fill="#0000FF"/>
<path d="M44.9458 77.7476H38.3906C37.926 77.7476 37.4856 77.542 37.1856 77.1863C36.888 76.8305 36.7621 76.3611 36.842 75.9014C38.5552 66.1811 37.5776 57.3392 36.842 52.9352C36.767 52.4802 36.8952 52.0132 37.1929 51.6599C37.4905 51.3067 37.9309 51.1034 38.3931 51.1034H44.9434C45.8121 51.1034 46.5163 51.8076 46.5163 52.6763V76.1748C46.5163 77.0435 45.8121 77.7476 44.9434 77.7476H44.9458ZM40.2369 74.6019H43.373V54.2491H40.2273C40.8709 58.8878 41.4396 66.3529 40.2369 74.6019Z" fill="#0000FF"/>
<path d="M51.8979 77.7476H49.6814C49.2168 77.7476 48.7764 77.542 48.4763 77.1863C48.1787 76.8305 48.0528 76.3611 48.1327 75.9014C49.8459 66.1811 48.8707 57.3392 48.1351 52.9352C48.0601 52.4802 48.1884 52.0132 48.486 51.6599C48.7836 51.3067 49.224 51.1034 49.6862 51.1034H51.8979C53.6667 51.1034 55.3606 51.5002 56.9359 52.2818C60.8317 54.2104 63.2539 58.1111 63.2539 62.457V66.3916C63.2539 70.7399 60.8317 74.6406 56.9359 76.5716C55.3654 77.3508 53.6692 77.7476 51.8979 77.7476ZM51.5277 74.6019H51.8979C53.1804 74.6019 54.4048 74.3164 55.5372 73.755C58.3563 72.3564 60.1082 69.5349 60.1082 66.3916V62.457C60.1082 59.3137 58.3563 56.4947 55.5397 55.1009C54.4024 54.5371 53.1779 54.2491 51.8979 54.2491H51.518C52.1616 58.8878 52.7303 66.3529 51.5277 74.6019Z" fill="#0000FF"/>
<path d="M6.58982 94.3667C6.20749 94.3667 5.82759 94.2264 5.52995 93.9553C5.01212 93.4835 4.86935 92.7261 5.17909 92.097C5.18876 92.0776 6.25105 89.8683 7.30124 85.3748C8.27157 81.2224 9.42823 74.2172 9.42823 64.4219C9.42823 45.6322 5.2662 38.1745 5.22264 38.1019C4.86935 37.4872 4.97098 36.7129 5.47188 36.2096C5.97277 35.7063 6.74711 35.5998 7.36415 35.9507L34.4294 51.3066C34.9207 51.5849 35.2256 52.1076 35.2256 52.6738V76.1723C35.2256 76.7192 34.9424 77.2274 34.4754 77.5129L7.41255 94.1344C7.15847 94.2917 6.87293 94.3667 6.58982 94.3667ZM9.67263 40.8774C10.989 45.1241 12.5764 52.6811 12.5764 64.4243C12.5764 74.6116 11.3544 81.9193 10.3284 86.258C10.0743 87.3324 9.81781 88.2858 9.57583 89.1158L32.0823 75.2964V53.5933L9.67263 40.8798V40.8774Z" fill="#0000FF"/>
<path d="M11.0035 64.4243C11.0035 83.8528 6.58985 92.7939 6.58985 92.7939C6.58985 92.7939 2.24634 84.6997 2.24634 63.2507C2.24634 41.8018 6.58985 37.3203 6.58985 37.3203C6.58985 37.3203 11.0035 44.9983 11.0035 64.4243Z" fill="#0000FF"/>
<path d="M6.58984 94.3668C6.01151 94.3668 5.47916 94.0498 5.2033 93.5368C5.0194 93.1932 0.673462 84.8449 0.673462 63.2508C0.673462 41.6566 4.971 36.7324 5.4598 36.2266C5.80341 35.8709 6.29462 35.6991 6.78342 35.7596C7.27464 35.8201 7.70536 36.1081 7.95218 36.5364C8.14092 36.8654 12.574 44.8048 12.574 64.4244C12.574 74.6117 11.352 81.9194 10.326 86.2581C9.19353 91.042 8.04655 93.394 7.99815 93.4908C7.73681 94.0183 7.20446 94.3571 6.61403 94.3668C6.60435 94.3668 6.5971 94.3668 6.58742 94.3668H6.58984ZM6.43739 41.088C6.22445 41.6784 6.00183 42.3826 5.78163 43.2174C4.88631 46.5736 3.81918 52.7755 3.81918 63.2508C3.81918 75.9401 5.3751 83.8819 6.58258 88.1359C6.81488 87.3373 7.05927 86.4178 7.30367 85.3749C8.27401 81.2225 9.43066 74.2173 9.43066 64.422C9.43066 52.2359 7.67874 44.8144 6.43739 41.0856V41.088Z" fill="#0000FF"/>
<path d="M38.3907 76.1749C38.1753 77.4017 37.9188 78.6455 37.6139 79.8965H33.6552V48.8337H37.6139C37.6139 48.8337 37.9914 50.2445 38.3955 52.6764C39.2013 57.5087 40.1184 66.3723 38.3907 76.1749Z" fill="#0000FF"/>
<path d="M37.6139 81.4694H33.6551C32.7864 81.4694 32.0823 80.7652 32.0823 79.8965V48.8337C32.0823 47.965 32.7864 47.2609 33.6551 47.2609H37.6139C38.3253 47.2609 38.9496 47.74 39.1335 48.4272C39.1505 48.4877 39.5352 49.9396 39.9466 52.4174C40.7136 57.0199 41.7348 66.2634 39.9393 76.4459C39.7119 77.7453 39.4433 79.0326 39.1408 80.2692C38.969 80.9733 38.3374 81.4694 37.6115 81.4694H37.6139ZM35.228 78.3236H36.3629C36.5371 77.53 36.6968 76.7193 36.8396 75.9039C38.5528 66.1836 37.5752 57.3417 36.8396 52.9377C36.6653 51.8875 36.496 51.0309 36.3605 50.409H35.2232V78.3261L35.228 78.3236Z" fill="#0000FF"/>
<path d="M49.6814 76.1749C49.466 77.4017 49.2095 78.6455 48.9046 79.8965H44.9459V48.8337H48.9046C48.9046 48.8337 49.2821 50.2445 49.6862 52.6764C50.492 57.5087 51.4091 66.3723 49.6814 76.1749Z" fill="#0000FF"/>
<path d="M48.9046 81.4694H44.9458C44.0771 81.4694 43.373 80.7652 43.373 79.8965V48.8337C43.373 47.965 44.0771 47.2609 44.9458 47.2609H48.9046C49.616 47.2609 50.2403 47.74 50.4242 48.4272C50.4412 48.4877 50.8259 49.9396 51.2373 52.4174C52.0044 57.0199 53.0255 66.2634 51.23 76.4459C51.0026 77.7429 50.734 79.0302 50.4339 80.2667C50.2621 80.9709 49.6305 81.4669 48.9046 81.4669V81.4694ZM46.5187 78.3236H47.6536C47.8278 77.53 47.9875 76.7193 48.1303 75.9039C49.8435 66.1836 48.8683 57.3417 48.1327 52.9377C47.9585 51.8875 47.7891 51.0309 47.6536 50.409H46.5163V78.3261L46.5187 78.3236Z" fill="#0000FF"/>
<path d="M122.539 76.9637L119.202 86.1492H108.935L112.272 76.9637H122.539Z" fill="#0000FF"/>
<path d="M119.202 87.7221H108.935C108.422 87.7221 107.94 87.4729 107.647 87.0518C107.355 86.6308 107.282 86.0936 107.456 85.612L110.793 76.4265C111.018 75.8047 111.611 75.3909 112.272 75.3909H122.539C123.052 75.3909 123.533 75.6401 123.826 76.0611C124.119 76.4822 124.191 77.0194 124.017 77.5009L120.68 86.6864C120.455 87.3083 119.862 87.7221 119.202 87.7221ZM111.18 84.5764H118.101L120.296 78.5366H113.375L111.18 84.5764Z" fill="#0000FF"/>
<path d="M143.071 76.9637L139.734 86.1492H129.467L129.667 85.5927L129.672 85.5854L131.025 81.859L132.803 76.9637H143.071Z" fill="#0000FF"/>
<path d="M139.734 87.7221H129.467C128.954 87.7221 128.474 87.4729 128.179 87.0543C127.884 86.6356 127.814 86.0984 127.988 85.6169L128.189 85.0603C128.199 85.0337 128.208 85.0095 128.218 84.9853L131.325 76.429C131.55 75.8071 132.143 75.3933 132.803 75.3933H143.071C143.584 75.3933 144.065 75.6425 144.358 76.0636C144.651 76.4846 144.723 77.0218 144.549 77.5034L141.212 86.6889C140.987 87.3107 140.394 87.7245 139.734 87.7245V87.7221ZM131.712 84.5764H138.633L140.827 78.5366H133.907L131.712 84.5764Z" fill="#0000FF"/>
<path d="M150.001 87.7221H139.734C139.221 87.7221 138.739 87.4729 138.446 87.0518C138.154 86.6308 138.081 86.0936 138.255 85.612L141.592 76.4265C141.817 75.8047 142.41 75.3909 143.071 75.3909H148.665C150.451 75.3909 152.2 75.7103 153.86 76.3394C154.255 76.4895 154.572 76.7895 154.741 77.1742C154.911 77.559 154.92 77.997 154.765 78.389L151.462 86.7276C151.225 87.3277 150.644 87.7221 150.001 87.7221ZM141.979 84.5764H148.934L151.213 78.8197C150.381 78.631 149.529 78.5366 148.665 78.5366H144.172L141.977 84.5764H141.979Z" fill="#0000FF"/>
<path d="M161.161 86.1491H150.001L153.304 77.8105C157.042 79.2261 159.963 82.3089 161.161 86.1491Z" fill="#0000FF"/>
<path d="M161.161 87.722H150.001C149.481 87.722 148.992 87.4631 148.699 87.0324C148.406 86.6017 148.346 86.0524 148.537 85.5684L151.84 77.2298C152.157 76.4313 153.055 76.0345 153.858 76.3394C158.039 77.9219 161.328 81.4136 162.659 85.6797C162.809 86.1564 162.722 86.6767 162.424 87.0808C162.126 87.4849 161.657 87.722 161.156 87.722H161.161ZM152.317 84.5763H158.797C157.734 82.6235 156.116 80.9974 154.158 79.9303L152.317 84.5763Z" fill="#0000FF"/>
<path d="M161.161 86.1492H108.935L112.272 76.9637H111.246C109.276 76.9637 107.408 77.3993 105.731 78.1809C104.686 78.6649 103.718 79.2843 102.844 80.0151C100.308 82.1397 98.5901 85.208 98.2295 88.6779C98.1811 89.1304 98.1569 89.5878 98.1569 90.0524V112.002C98.1569 118.983 103.626 124.689 110.512 125.069C110.537 125.071 110.561 125.074 110.585 125.074C110.803 125.086 111.023 125.091 111.246 125.091H148.665C155.893 125.091 161.754 119.23 161.754 112.002V90.0524C161.754 88.6924 161.546 87.3809 161.161 86.1492ZM156.205 108.728C156.205 113.897 152.602 118.086 148.157 118.086H111.751C109.765 118.086 107.945 117.248 106.541 115.859C104.954 114.289 103.897 112.012 103.73 109.449C103.713 109.21 103.705 108.97 103.705 108.728V101.815C103.705 96.6487 107.309 92.4576 111.751 92.4576H148.157C152.602 92.4576 156.205 96.6487 156.205 101.815V108.728Z" stroke="#0000FF" stroke-width="4.11173" stroke-linecap="round" stroke-linejoin="round"/>
<path d="M148.157 119.658H120.869C120 119.658 119.296 118.954 119.296 118.085V92.4575C119.296 91.5888 120 90.8846 120.869 90.8846H148.157C153.461 90.8846 157.778 95.7871 157.778 101.815V108.728C157.778 114.756 153.461 119.658 148.157 119.658ZM122.442 116.513H148.157C151.729 116.513 154.632 113.021 154.632 108.728V101.815C154.632 97.5221 151.729 94.0304 148.157 94.0304H122.442V116.513Z" fill="#0000FF"/>
<path d="M120.869 119.658H111.751C109.426 119.658 107.183 118.707 105.436 116.977C103.512 115.073 102.348 112.435 102.162 109.551C102.142 109.292 102.135 109.019 102.135 108.728V101.815C102.135 95.7871 106.45 90.8846 111.754 90.8846H120.871C121.74 90.8846 122.444 91.5888 122.444 92.4575V118.085C122.444 118.954 121.74 119.658 120.871 119.658H120.869ZM111.751 94.0304C108.182 94.0304 105.278 97.5221 105.278 101.815V108.728C105.278 108.946 105.286 109.144 105.298 109.338C105.433 111.433 106.29 113.398 107.647 114.741C108.802 115.883 110.258 116.513 111.751 116.513H119.296V94.0304H111.751Z" fill="#0000FF"/>
<path d="M148.157 119.658H120.869C120 119.658 119.296 118.954 119.296 118.085V92.4575C119.296 91.5888 120 90.8846 120.869 90.8846H148.157C153.461 90.8846 157.778 95.7871 157.778 101.815V108.728C157.778 114.756 153.461 119.658 148.157 119.658ZM122.442 116.513H148.157C151.729 116.513 154.632 113.021 154.632 108.728V101.815C154.632 97.5221 151.729 94.0304 148.157 94.0304H122.442V116.513Z" fill="#0000FF"/>
<path d="M108.935 87.722H99.0426C98.1739 87.722 97.4697 87.0179 97.4697 86.1492C97.4697 85.2805 98.1739 84.5763 99.0426 84.5763H108.935C109.803 84.5763 110.507 85.2805 110.507 86.1492C110.507 87.0179 109.803 87.722 108.935 87.722Z" fill="#0000FF"/>
<path d="M102.844 81.588H100.129C98.1738 81.588 96.584 79.9981 96.584 78.043V71.1224C96.584 69.1672 98.1738 67.5774 100.129 67.5774H101.622C102.285 67.5774 102.875 67.9912 103.101 68.6155C103.326 69.2374 103.137 69.9343 102.629 70.3601C101.741 71.0982 101.571 72.3734 102.232 73.3268C102.854 74.2221 104.059 74.5319 105.034 74.0479C105.52 73.8059 106.099 73.8325 106.563 74.1181C107.028 74.4036 107.309 74.9118 107.309 75.4562V78.0454C107.309 78.118 107.306 78.1906 107.301 78.2632C107.272 78.8463 106.921 79.3642 106.391 79.611C105.484 80.0296 104.63 80.5741 103.853 81.225C103.57 81.4621 103.212 81.5904 102.844 81.5904V81.588ZM99.7298 75.2336V78.043C99.7298 78.2632 99.9088 78.4422 100.129 78.4422H102.29C102.779 78.0647 103.287 77.7211 103.817 77.409C102.237 77.334 100.71 76.5669 99.7298 75.2336Z" fill="#0000FF"/>
<path d="M116.574 67.9693L116.102 68.2984L110.735 72.0297L108.567 73.5348L107.023 68.2984L106.307 65.8762V65.8737L114.316 60.3082L116.574 67.9693Z" fill="#0000FF"/>
<path d="M108.567 75.1077C108.39 75.1077 108.214 75.0787 108.044 75.0182C107.567 74.8512 107.2 74.4641 107.057 73.9801L104.797 66.3239C104.753 66.1787 104.731 66.0287 104.731 65.8787C104.731 65.3632 104.983 64.8793 105.407 64.5841L113.416 59.0186C113.83 58.7306 114.36 58.658 114.836 58.8274C115.313 58.9944 115.681 59.3815 115.824 59.8655L118.081 67.5265C118.273 68.175 118.028 68.8744 117.472 69.2615L109.462 74.8294C109.196 75.0158 108.881 75.1101 108.564 75.1101L108.567 75.1077ZM108.136 66.5175L109.46 71.0013L114.745 67.3281L113.423 62.8467L108.136 66.5199V66.5175Z" fill="#0000FF"/>
<path d="M148.609 45.705L140.6 51.2705L138.342 43.6095L145.945 38.3247C146.081 38.2303 146.219 38.148 146.361 38.0754L148.609 45.705Z" fill="#0000FF"/>
<path d="M140.6 52.8433C140.423 52.8433 140.247 52.8143 140.077 52.7538C139.601 52.5868 139.233 52.1997 139.09 51.7157L136.832 44.0547C136.641 43.4037 136.888 42.7044 137.445 42.3197L145.048 37.0349C145.239 36.9018 145.442 36.7808 145.65 36.6743C146.066 36.4614 146.557 36.4469 146.986 36.6332C147.414 36.8171 147.741 37.1849 147.871 37.6326L150.119 45.2621C150.311 45.9131 150.064 46.6124 149.507 46.9971L141.498 52.5626C141.232 52.7489 140.917 52.8433 140.6 52.8433ZM140.172 44.2531L141.493 48.7345L146.78 45.0613L145.459 40.5774L140.172 44.2531Z" fill="#0000FF"/>
<path d="M148.609 47.2777C148.433 47.2777 148.256 47.2487 148.087 47.1882C147.61 47.0212 147.242 46.6341 147.099 46.1501L144.852 38.5205C144.639 37.7994 144.965 37.0299 145.631 36.6815C148.017 35.4353 150.974 36.1637 152.51 38.3753C153.137 39.2828 153.468 40.3378 153.468 41.434C153.468 43.1931 152.607 44.8386 151.167 45.8404L149.505 46.997C149.239 47.1834 148.924 47.2777 148.607 47.2777H148.609ZM148.343 39.232L149.502 43.1617C150.023 42.7431 150.327 42.1091 150.327 41.434C150.327 40.9815 150.19 40.5435 149.931 40.1684C149.553 39.624 148.965 39.2973 148.346 39.232H148.343Z" fill="#0000FF"/>
<path d="M116.574 69.5422C116.397 69.5422 116.221 69.5132 116.051 69.4527C115.575 69.2857 115.207 68.8986 115.064 68.4146L112.806 60.7536C112.615 60.1026 112.862 59.4033 113.418 59.0161L122.159 52.9425C122.64 52.6086 123.265 52.5674 123.785 52.8409C124.303 53.1119 124.629 53.6491 124.629 54.2347V62.8878C124.629 63.1419 124.615 63.3935 124.586 63.6597C124.537 64.1122 124.293 64.5212 123.92 64.7801L117.472 69.2615C117.205 69.4478 116.891 69.5422 116.574 69.5422ZM116.146 60.952L117.467 65.4334L121.484 62.641V57.2424L116.146 60.952Z" fill="#0000FF"/>
<path d="M131.049 48.6788V57.9103L124.583 62.4039L123.023 63.4879C123.044 63.2895 123.057 63.0911 123.057 62.8878V54.2347L130.333 49.1749L131.049 48.6788Z" fill="#0000FF"/>
<path d="M123.023 65.0607C122.744 65.0607 122.466 64.9881 122.219 64.8405C121.689 64.526 121.392 63.9307 121.459 63.3185C121.476 63.1685 121.484 63.0281 121.484 62.8902V54.237C121.484 53.7216 121.735 53.2401 122.159 52.9449L130.154 47.3866C130.635 47.0527 131.26 47.014 131.78 47.2874C132.298 47.5584 132.622 48.0956 132.622 48.6812V57.9127C132.622 58.4281 132.37 58.9096 131.947 59.2049L123.92 64.7825C123.652 64.9688 123.337 65.0632 123.023 65.0632V65.0607ZM124.629 55.0573V60.4583L129.476 57.09V51.689L124.629 55.0598V55.0573Z" fill="#0000FF"/>
<path d="M131.049 59.4831C130.8 59.4831 130.551 59.425 130.321 59.304C129.803 59.033 129.476 58.4958 129.476 57.9102V48.6788C129.476 48.1634 129.728 47.6818 130.151 47.3866L137.445 42.3172C137.861 42.0292 138.388 41.9566 138.865 42.126C139.342 42.293 139.709 42.6801 139.852 43.1641L142.11 50.8251C142.301 51.476 142.054 52.1754 141.498 52.5601L131.947 59.2C131.678 59.3863 131.364 59.4807 131.049 59.4807V59.4831ZM132.622 49.5015V54.9025L138.771 50.6291L137.449 46.1477L132.622 49.5039V49.5015Z" fill="#0000FF"/>
<path d="M146.361 39.6482C145.689 39.6482 145.067 39.215 144.859 38.5375L144.849 38.506C144.593 37.676 145.06 36.7952 145.89 36.5387C146.72 36.2822 147.6 36.7493 147.857 37.5792L147.867 37.6107C148.123 38.4407 147.656 39.3215 146.826 39.578C146.671 39.6264 146.516 39.6482 146.361 39.6482Z" fill="#0000FF"/>
<path d="M129.467 87.7221H119.202C118.689 87.7221 118.207 87.4729 117.914 87.0518C117.622 86.6308 117.549 86.0936 117.723 85.612L121.06 76.4265C121.285 75.8047 121.878 75.3909 122.539 75.3909H132.803C133.316 75.3909 133.798 75.6401 134.091 76.0611C134.386 76.4822 134.456 77.0194 134.282 77.5009L131.151 86.1226C131.141 86.1468 131.134 86.1686 131.124 86.1928L130.947 86.684C130.722 87.3083 130.13 87.7221 129.469 87.7221H129.467ZM121.447 84.5764H128.366L130.558 78.5366H123.64L121.445 84.5764H121.447Z" fill="#0000FF"/>
<path d="M153.304 79.3834C153.113 79.3834 152.919 79.3495 152.733 79.2745C151.925 78.9575 151.525 78.0453 151.84 77.237L151.874 77.1499C152.191 76.3417 153.103 75.94 153.911 76.257C154.719 76.574 155.119 77.4863 154.804 78.2945L154.77 78.3816C154.528 79.0035 153.933 79.3834 153.304 79.3834Z" fill="#0000FF"/>
<path d="M138.519 119.658C137.65 119.658 136.946 118.954 136.946 118.085V92.4575C136.946 91.5888 137.65 90.8846 138.519 90.8846C139.388 90.8846 140.092 91.5888 140.092 92.4575V118.085C140.092 118.954 139.388 119.658 138.519 119.658Z" fill="#0000FF"/>
</g>
<defs>
<clipPath id="clip0_53_121">
<rect width="162.653" height="127" fill="white" transform="translate(0.673462)"/>
</clipPath>
</defs>
</svg>
