<svg width="121" height="170" viewBox="0 0 121 170" fill="none" xmlns="http://www.w3.org/2000/svg">
<g clip-path="url(#clip0_39_2)">
<path d="M17.0208 105.516C16.1685 105.572 15.5227 106.3 15.5796 107.146C18.7616 153.618 3.1717 167.122 2.95991 167.295C2.30387 167.83 2.20573 168.788 2.74812 169.44C3.05289 169.812 3.49714 170 3.94655 170C4.29264 170 4.63874 169.888 4.92802 169.654C5.62538 169.088 21.9798 155.309 18.6686 106.937C18.6118 106.097 17.8731 105.45 17.0156 105.516H17.0208Z" fill="#0000FF"/>
<path d="M20.3526 68.9362C20.8485 69.6239 21.8145 69.792 22.5119 69.303C23.2092 68.814 23.3797 67.8614 22.8838 67.1737C20.5334 63.8932 14.4535 61.4889 9.15352 63.1495C1.1881 65.6404 0 75.2476 0 80.7542C0 87.8602 2.08692 93.2598 6.19877 96.8103C10.698 100.692 16.4164 101.293 19.5416 101.293C20.8537 101.293 21.7112 101.186 21.8197 101.171C22.6668 101.059 23.2609 100.289 23.1472 99.454C23.0336 98.6186 22.2588 98.0277 21.4064 98.1398C21.3289 98.15 13.5288 99.0923 8.21337 94.4925C4.81438 91.5482 3.08905 86.928 3.08905 80.7542C3.08905 72.5733 5.50657 67.4946 10.0782 66.0632C14.1694 64.7847 18.8908 66.9088 20.3423 68.9362H20.3526Z" fill="#0000FF"/>
<path d="M48.2678 54.668C47.4774 54.9889 47.1003 55.8804 47.4258 56.6648C47.6737 57.2557 48.2523 57.6123 48.8566 57.6123C49.0529 57.6123 49.2544 57.5767 49.4455 57.4952C54.0533 55.6257 67.0707 51.8205 71.9316 56.6139C72.5359 57.2099 73.5174 57.2099 74.1218 56.6139C74.7262 56.0179 74.7262 55.0501 74.1218 54.4541C66.8072 47.2411 49.0168 54.3624 48.2626 54.668H48.2678Z" fill="#0000FF"/>
<path d="M45.7883 67.8257C46.1498 68.5897 47.0745 68.9209 47.8493 68.5643C47.9113 68.5337 50.7731 67.2399 54.4924 66.3535C54.5285 66.6999 54.575 67.0667 54.6422 67.4691C54.8591 68.7578 55.2414 69.8123 55.8199 70.6885C57.1113 72.6547 59.2757 73.3373 61.311 73.3373C62.153 73.3373 62.9743 73.2201 63.7079 73.0266C66.6678 72.2472 67.5873 69.741 67.8817 67.5353C68.1813 67.7594 68.4706 67.9938 68.7392 68.2586C69.044 68.5592 69.4366 68.7069 69.8343 68.7069C70.2321 68.7069 70.6298 68.5592 70.9294 68.2586C71.5338 67.6627 71.5338 66.6948 70.9294 66.0988C69.8188 65.0036 68.5532 64.2141 67.1947 63.6537C66.8951 63.4907 65.8723 63.0119 63.9403 62.7368C63.8473 62.7215 63.7492 62.7113 63.6562 62.6961C63.6304 62.6961 63.6045 62.691 63.5736 62.6859C55.8303 61.5805 47.0228 65.569 46.5269 65.7983C45.7521 66.1548 45.4163 67.0667 45.7831 67.8308L45.7883 67.8257Z" fill="#0000FF"/>
<path d="M78.1148 96.7338C76.7614 96.4588 75.5062 96.1633 74.4059 95.9086C70.1184 94.9102 67.2877 94.2531 66.1202 96.5505C65.738 97.3044 66.0479 98.2213 66.8124 98.6033C67.5253 98.9548 68.3828 98.7103 68.8063 98.0634C69.5089 97.9105 71.8179 98.4454 73.693 98.8835C74.8192 99.1433 76.0899 99.4438 77.4898 99.7291C78.3266 99.9023 79.1325 99.9838 79.8866 99.9838C82.1905 99.9838 84.0708 99.2044 85.2228 97.7323C86.2094 96.469 87.4698 93.5756 84.8405 88.3951C81.6895 82.1856 82.9447 73.9334 82.9654 73.7907C83.0997 72.9553 82.5211 72.176 81.6791 72.0435C80.8371 71.9111 80.0416 72.4816 79.9073 73.3119C79.8453 73.6889 78.4558 82.6389 82.0717 89.7653C83.4406 92.46 83.6937 94.6912 82.7691 95.873C81.9942 96.8714 80.2999 97.1872 78.12 96.744L78.1148 96.7338Z" fill="#0000FF"/>
<path d="M50.334 99.2911C50.0706 98.4914 49.1976 98.0482 48.3866 98.308C47.5704 98.5627 47.121 99.4236 47.3844 100.228C47.4361 100.397 48.7533 104.36 52.5862 108.312C56.1092 111.95 62.5146 116.279 73.0318 116.279C73.8893 116.279 74.5815 115.597 74.5815 114.751C74.5815 113.906 73.8893 113.223 73.0318 113.223C55.1587 113.223 50.5251 99.8667 50.334 99.286V99.2911Z" fill="#0000FF"/>
<path d="M117.668 64.5453C117.022 64.1276 116.356 63.9799 115.767 63.9748C117.653 57.261 118.071 48.5504 118.107 47.7353C118.557 36.6408 115.442 26.2135 109.553 19.1176C103.008 11.2271 93.7771 4.9259 85.4759 2.67947C73.3676 -0.601025 59.627 -0.881191 47.7822 1.91538C33.8091 5.21625 22.9716 12.4751 16.4422 22.9177C9.34982 34.267 6.71534 47.4246 5.74937 56.4664C5.73387 56.6141 5.7287 56.8229 5.71321 57.4189C5.69771 58.0709 5.64605 59.9557 5.54791 60.5823C5.34645 60.9847 5.32578 61.4737 5.53241 61.9169C5.89917 62.681 6.82382 63.007 7.5935 62.6453C17.1809 58.183 23.793 64.907 24.0667 65.1923C24.5006 65.6507 25.1773 65.7985 25.7714 65.5692C37.5542 60.9643 39.8013 44.1136 40.1629 40.2625C59.9731 27.0591 77.1024 27.9607 88.0277 31.0731C102.011 35.0565 110.307 43.594 110.932 45.0356C112.131 47.7914 111.495 60.7198 110.813 68.2232C110.751 68.9312 111.19 69.5934 111.877 69.8125C112.038 69.8634 112.198 69.8889 112.358 69.8889C112.89 69.8889 113.401 69.6189 113.685 69.1452C114.063 68.5288 114.403 67.8207 114.719 67.0567C115.039 67.1534 115.395 67.1585 115.731 67.0312C115.798 67.0312 115.881 67.0567 115.969 67.1127C116.289 67.3215 117.89 68.7326 117.89 76.348C117.89 84.9924 114.91 87.738 113.329 87.9876C113.324 87.9876 113.319 87.9876 113.314 87.9876C114.104 82.9294 114.3 78.5129 113.856 75.3292C113.737 74.4938 112.957 73.908 112.11 74.0252C111.263 74.1423 110.669 74.9115 110.788 75.7469C111.919 83.7953 108.701 98.9345 103.142 111.741C93.9165 132.982 83.6472 138.046 78.3473 139.177C57.3903 143.639 38.9128 130.242 38.7268 130.109C38.0398 129.605 37.0687 129.743 36.5573 130.415C36.0459 131.093 36.1802 132.05 36.8672 132.555C37.5491 133.059 51.4498 143.165 69.4159 143.165C72.505 143.165 75.718 142.865 79.0033 142.167C96.8506 138.367 109.005 110.788 112.818 90.8606C113.029 90.9676 113.262 91.0338 113.515 91.0338C113.561 91.0338 113.613 91.0338 113.66 91.0287C113.959 91.0033 120.995 90.1933 120.995 76.3531C120.995 69.8532 119.905 65.9971 117.663 64.5555L117.668 64.5453Z" fill="#0000FF"/>
<path d="M107.502 58.4784C108.107 57.8824 108.107 56.9146 107.502 56.3186C100.188 49.1056 82.3972 56.2269 81.643 56.5325C80.8526 56.8534 80.4755 57.7449 80.801 58.5294C81.0489 59.1203 81.6275 59.4768 82.2318 59.4768C82.4281 59.4768 82.6296 59.4412 82.8207 59.3597C87.4285 57.4902 100.446 53.685 105.307 58.4784C105.911 59.0744 106.893 59.0744 107.497 58.4784H107.502Z" fill="#0000FF"/>
<path d="M97.2949 64.5912C97.2122 64.5759 97.1296 64.5657 97.0521 64.5555C97.0211 64.5555 96.9953 64.5453 96.9694 64.5453C94.3866 64.1785 91.6798 64.3721 89.19 64.8153C89.19 64.8153 89.1848 64.8153 89.1796 64.8153H89.1693C89.1693 64.8153 89.159 64.8153 89.1538 64.8204C86.9274 65.2177 84.8767 65.8086 83.2392 66.3638C82.4282 66.6389 81.9994 67.51 82.2783 68.3046C82.5573 69.1044 83.4406 69.5272 84.2465 69.2521C85.543 68.814 86.757 68.4625 87.8882 68.1875C87.9347 68.6969 87.9915 69.1706 88.0174 69.3234C88.2343 70.6122 88.6218 71.6666 89.1951 72.5428C90.4866 74.5091 92.651 75.1916 94.6862 75.1916C95.5282 75.1916 96.3496 75.0745 97.0831 74.8809C100.048 74.1015 100.962 71.5902 101.257 69.3896C101.593 69.6342 101.877 69.8837 102.114 70.1181C102.419 70.4186 102.812 70.5663 103.21 70.5663C103.607 70.5663 104.005 70.4186 104.305 70.1181C104.909 69.5221 104.909 68.5542 104.305 67.9582C103.179 66.8478 101.897 66.048 100.513 65.4826C100.151 65.2941 99.1235 64.8509 97.2897 64.5912H97.2949Z" fill="#0000FF"/>
<path d="M83.9675 145.61C84.0915 144.775 83.5078 144.001 82.6606 143.878C81.8134 143.751 81.0283 144.332 80.9043 145.167C80.8165 145.753 78.8535 159.629 86.7466 169.424C87.0514 169.807 87.506 170 87.9606 170C88.2963 170 88.6373 169.893 88.9214 169.669C89.5929 169.144 89.7014 168.182 89.1693 167.524C82.1337 158.799 83.9417 145.794 83.9675 145.615V145.61Z" fill="#0000FF"/>
<path d="M17.1241 77.0051C17.9454 77.2394 18.8081 76.7759 19.0457 75.9659C19.2833 75.156 18.8133 74.3053 17.9919 74.071C14.8047 73.1592 12.2064 73.4495 10.2745 74.9369C6.99428 77.4635 7.15441 82.4607 7.16474 82.6695C7.19574 83.4948 7.88277 84.1366 8.71444 84.1366C8.7351 84.1366 8.7506 84.1366 8.77126 84.1366C9.62359 84.106 10.29 83.398 10.2641 82.5575C10.2383 81.773 10.4036 79.8475 11.2611 78.4212C12.6042 79.8984 13.2292 81.2993 13.1001 82.5931C12.8934 84.6664 10.822 86.0112 10.7807 86.0417C10.0627 86.49 9.84571 87.4324 10.2951 88.1455C10.5896 88.6091 11.0958 88.8638 11.6124 88.8638C11.8913 88.8638 12.1754 88.7874 12.4337 88.6294C12.5732 88.5429 15.812 86.5053 16.184 82.9293C16.4009 80.8357 15.6106 78.7421 13.8336 76.6842C14.7479 76.5415 15.8482 76.6434 17.1293 77.0153L17.1241 77.0051Z" fill="#0000FF"/>
<path d="M38.9799 99.4336C38.794 100.259 39.326 101.074 40.1629 101.252C40.2765 101.278 40.385 101.288 40.4986 101.288C41.2115 101.288 41.852 100.799 42.0122 100.086C42.069 99.8207 43.5464 93.5603 50.8196 93.5603C51.6771 93.5603 52.3693 92.8777 52.3693 92.0321C52.3693 91.1865 51.6771 90.5039 50.8196 90.5039C43.0298 90.5039 39.6721 96.3416 38.9851 99.4336H38.9799Z" fill="#0000FF"/>
</g>
<defs>
<clipPath id="clip0_39_2">
<rect width="121" height="170" fill="white"/>
</clipPath>
</defs>
</svg>
